<?xml version="1.0" encoding="utf-8"?>
<!-- Generator: Adobe Illustrator 24.3.0, SVG Export Plug-In . SVG Version: 6.00 Build 0)  -->
<svg version="1.1" xmlns="http://www.w3.org/2000/svg" xmlns:xlink="http://www.w3.org/1999/xlink" x="0px" y="0px"
	 viewBox="0 0 1920 1080" style="enable-background:new 0 0 1920 1080;" xml:space="preserve">
<style type="text/css">
	.st0{fill:#002337;}
	.st1{fill:#00796B;}
	.st2{fill:#00C853;}
	.st3{opacity:0.22;fill:url(#SVGID_1_);}
	.st4{fill:url(#SVGID_2_);}
	.st5{opacity:0.2;fill:url(#SVGID_3_);}
	.st6{opacity:0.22;fill:url(#SVGID_4_);}
	.st7{opacity:0.22;fill:url(#SVGID_5_);}
</style>
<g id="Layer_2">
	<g>
		<path class="st0" d="M886.4,1117.7c-14.2-39.5,10-68.8,3.5-133c-4.8-47.6-20.1-51.7-64.7-154c-29.4-67.5-44.1-102.1-46.8-145.1
			c-4.6-73.3,20.4-127.9,23.9-135.4c7.5-15.8,38-79.5,79.7-70.5c41.3,8.9,60.3,65.7,57.8,71.3c-0.9,1.9-9.9,2.8-20.4-12.2
			c-19.9-28.4-44.3-34.9-64.2-17c-21.1,18.9-40.4,45.5-42.3,94.9c-2,52.7,19.2,92.4,41.3,133.8c31.8,59.6,45.2,50.4,70.2,103
			c25.5,53.7,32.9,108.1,37.8,144.3c8.5,62.3,17.7,130.5-3,154.8C940.3,1174.8,900.4,1156.3,886.4,1117.7z"/>
		<path class="st1" d="M979,1217.4"/>
		<path class="st2" d="M1021.1,1244.4c11.3-31.2-10.9-63-12.7-121.8c-2-65.8,23-116.9,27.6-126.4c26.1-53.5,46.6-32.8,77.8-82.5
			c41.1-65.6,42.9-161.6,43-183.9c0-29.1,0.1-85.9-23.5-133.9c-20.1-41-48.6-57.5-49.3-55.2c-1.8,6.1,14.4,13.9,27.6,42.4
			c14.5,31.3,18.6,64.1,19.9,75.7c7.9,68.5-10,124.3-16.7,144.5c-2.7,8.1-12.7,37.1-39.3,76.4c-43.2,63.8-63.1,56-91.4,96.1
			c-46.8,66.5-69,197.2-42.5,255.8c10.3,22.8,32.6,44.8,54.3,37.8C999.9,1268.1,1014.2,1263.5,1021.1,1244.4z"/>
		<path class="st1" d="M975.6,1184.2c-29.1-17.3-20.2-72.7-54.3-120c-26.4-36.7-40.1-14.9-93.1-60c-30.3-25.7-53.2-45.2-61.7-85.9
			c-11-52.7,9.5-105.4,12.9-114.3c23.3-60,64.9-79.4,105.1-97.3c76.4-33.9,106.6-5,132-51.1c22.1-40.1,20.2-100.4,19.4-124.9
			c-0.7-24-2.4-76.7-24.9-112.7c-26.2-41.9-65.2-36.1-64.7-44.6c0.3-6.1,20.7-12.8,40.8-4.9c30,11.8,46.8,51.2,53.3,66.5
			c35.4,83.3,17.4,180.5,16.4,185.7c-3.1,15.7-13.6,69.7-44.3,101.3c-15.7,16.2-25.7,15.3-59.8,25.1c-70.1,20.2-105.4,31.2-119,70.5
			c-9.9,28.6-8.5,69.1,3,91.6c12,23.6,29.6,16.5,66.2,28.4c15.3,4.9,52.1,16.8,81.2,49.5c33.4,37.6,69,116.4,53.3,163.8
			C1027.4,1180.8,997.5,1197.2,975.6,1184.2z"/>
	</g>
	<linearGradient id="SVGID_1_" gradientUnits="userSpaceOnUse" x1="1410.1562" y1="1464.8734" x2="616.3005" y2="-164.3418">
		<stop  offset="0" style="stop-color:#002337;stop-opacity:0"/>
		<stop  offset="0.9945" style="stop-color:#DCFF1F"/>
	</linearGradient>
	<rect x="-1" class="st3" width="1921" height="1080"/>
</g>
<g id="Layer_1">
	<linearGradient id="SVGID_2_" gradientUnits="userSpaceOnUse" x1="962.0823" y1="701.213" x2="959.7657" y2="1097.8108">
		<stop  offset="0" style="stop-color:#002337;stop-opacity:0"/>
		<stop  offset="0.9945" style="stop-color:#002337"/>
	</linearGradient>
	<rect x="2" y="693" class="st4" width="1918" height="387"/>
	<linearGradient id="SVGID_3_" gradientUnits="userSpaceOnUse" x1="971.2803" y1="1044.8931" x2="946.7916" y2="701.4353">
		<stop  offset="1.335238e-04" style="stop-color:#EEFF41;stop-opacity:0"/>
		<stop  offset="1" style="stop-color:#00796B"/>
	</linearGradient>
	<polygon class="st5" points="0,745.2 1920,693.4 1920,1080 0,1080 	"/>
	
		<linearGradient id="SVGID_4_" gradientUnits="userSpaceOnUse" x1="987.2266" y1="1050.4146" x2="948.0165" y2="793.4256" gradientTransform="matrix(-1 0 0 1 1917.5555 0)">
		<stop  offset="1.335238e-04" style="stop-color:#EEFF41;stop-opacity:0"/>
		<stop  offset="1" style="stop-color:#00796B"/>
	</linearGradient>
	<polygon class="st6" points="1919,912 -1,645 -1,1080 1919,1080 	"/>
	<linearGradient id="SVGID_5_" gradientUnits="userSpaceOnUse" x1="989.212" y1="1050.2147" x2="952.5532" y2="814.647">
		<stop  offset="1.335238e-04" style="stop-color:#EEFF41;stop-opacity:0"/>
		<stop  offset="1" style="stop-color:#00796B"/>
	</linearGradient>
	<polygon class="st7" points="-11,949 1920,645 1920,1080 0,1080 	"/>
</g>
</svg>
