<?xml version="1.0" encoding="utf-8"?>
<!-- Generator: Adobe Illustrator 24.3.0, SVG Export Plug-In . SVG Version: 6.00 Build 0)  -->
<svg version="1.1"
	 id="Layer_1" xmlns:cc="http://creativecommons.org/ns#" xmlns:dc="http://purl.org/dc/elements/1.1/" xmlns:inkscape="http://www.inkscape.org/namespaces/inkscape" xmlns:rdf="http://www.w3.org/1999/02/22-rdf-syntax-ns#" xmlns:sodipodi="http://sodipodi.sourceforge.net/DTD/sodipodi-0.dtd" xmlns:svg="http://www.w3.org/2000/svg"
	 xmlns="http://www.w3.org/2000/svg" xmlns:xlink="http://www.w3.org/1999/xlink" x="0px" y="0px" viewBox="0 0 100 100"
	 style="enable-background:new 0 0 100 100;" xml:space="preserve">
<style type="text/css">
	.st0{fill:#579FED;}
	.st1{fill:#004689;}
</style>
<path class="st0" d="M50,74.5c0,0-19.7-12.7-19.9-13.3S22.7,45,22.7,45l3.5-14.9l10.2-4.7l12,4.4l12.5-4.4L72.6,28l5.3,11.2L77,49.7
	l-6,8.9L50,74.5z"/>
<g transform="translate(0,-952.36218)">
	<path class="st1" d="M37.3,974.4c-10.8,0-18.3,9.1-18.3,19.9c0,8.8,3.5,15.6,8.9,21c5.4,5.4,12.6,9.6,20.5,14.7
		c1,0.6,2.2,0.6,3.2,0c8-5,15.1-9.3,20.5-14.7c5.4-5.4,8.9-12.1,8.9-21c0-10.8-7.6-19.9-18.3-19.9c-5.4,0-9.8,2.2-12.7,4.4
		C47.1,976.6,42.8,974.4,37.3,974.4z M37.3,980.4c4.7,0,9.1,3,10.5,4.5c1.2,1.2,3.1,1.2,4.2,0.1c0,0,0,0,0.1-0.1
		c1.4-1.4,5.8-4.5,10.5-4.5c7.5,0,12.3,5.7,12.3,13.9c0,7.4-2.5,12.1-7.1,16.7c-4.3,4.3-10.6,8.2-17.9,12.8
		c-7.3-4.6-13.6-8.6-17.9-12.8c-4.6-4.6-7.1-9.4-7.1-16.7C25,986.1,29.8,980.4,37.3,980.4z"/>
</g>
</svg>
