<?xml version="1.0" encoding="utf-8"?>
<!-- Generator: Adobe Illustrator 24.3.0, SVG Export Plug-In . SVG Version: 6.00 Build 0)  -->
<svg version="1.1" id="Layer_1" xmlns="http://www.w3.org/2000/svg" xmlns:xlink="http://www.w3.org/1999/xlink" x="0px" y="0px"
	 viewBox="0 0 44 44" style="enable-background:new 0 0 44 44;" xml:space="preserve">
<style type="text/css">
	.st0{opacity:0.23;fill:#FFFF78;}
	.st1{fill:#FFFFFF;}
</style>
<circle class="st0" cx="22" cy="22" r="22"/>
<g>
	<polygon class="st1" points="22,42.3 7.4,19.8 9.1,19.7 19.9,37 21.2,35.4 21.2,27.8 22,25.4 22.8,27.8 22.8,35.4 24.4,36.4 
		34.6,19.7 36.6,19.8 	"/>
	<polygon class="st1" points="9.1,19.7 17,18.5 20.6,23.7 17,12.3 15.2,12.7 12.1,3.7 7.4,19.8 	"/>
	<polygon class="st1" points="34.9,19.7 27,19.1 23.4,23.7 27,12.3 28.8,12.7 31.9,3.7 36.6,19.8 	"/>
	<polyline class="st1" points="22,24.8 27.9,5.8 23.2,16.3 22,11.3 20.7,17.2 16,5.8 	"/>
	<ellipse class="st1" cx="16.4" cy="24.9" rx="1.2" ry="1.4"/>
	<ellipse class="st1" cx="28" cy="24.8" rx="1.2" ry="1.4"/>
</g>
</svg>
