<svg height='100px' width='100px'  fill="#002337" xmlns="http://www.w3.org/2000/svg" xmlns:xlink="http://www.w3.org/1999/xlink" version="1.1" x="0px" y="0px" viewBox="0 0 64 64" style="enable-background:new 0 0 64 64;" xml:space="preserve"><style type="text/css">
	.st0{display:none;}
	.st1{display:inline;}
	.st2{fill:none;stroke:#002337;stroke-width:0.1;stroke-miterlimit:10;}
</style><g class="st0"><g class="st1"><rect x="2" y="2" class="st2" width="60" height="60"></rect><line class="st2" x1="32" y1="2" x2="32" y2="62"></line><line class="st2" x1="62" y1="32" x2="2" y2="32"></line><line class="st2" x1="2" y1="2" x2="62" y2="62"></line><rect x="10" y="10" class="st2" width="44" height="44"></rect><line class="st2" x1="62" y1="2" x2="2" y2="62"></line><line class="st2" x1="2" y1="32" x2="32" y2="2"></line><line class="st2" x1="32" y1="2" x2="62" y2="32"></line><line class="st2" x1="62" y1="32" x2="32" y2="62"></line><line class="st2" x1="32" y1="62" x2="2" y2="32"></line><circle class="st2" cx="32" cy="32" r="21"></circle></g></g><path d="M32,2C15.4,2,2,15.4,2,32s13.4,30,30,30s30-13.4,30-30S48.6,2,32,2z M50.4,44.7l-5.7,5.7L32,37.7L19.3,50.4l-5.7-5.7  L26.3,32L13.6,19.3l5.7-5.7L32,26.3l12.7-12.7l5.7,5.7L37.7,32L50.4,44.7z"></path></svg>