<svg height='100px' width='100px'  fill="#ffffff" xmlns="http://www.w3.org/2000/svg" xmlns:xlink="http://www.w3.org/1999/xlink" version="1.1" x="0px" y="0px" viewBox="0 0 20 20" xml:space="preserve"><g transform="translate(-570 -320)"><g xmlns="http://www.w3.org/2000/svg" xmlns:xlink="http://www.w3.org/1999/xlink"><path d="M583.201,325.077c-0.248,0.088-0.49,0.187-0.732,0.29c0.152-0.032,0.311-0.056,0.467-0.083    C583.026,325.215,583.109,325.147,583.201,325.077z"></path><path d="M589.989,320c-2.704,0.225-4.992,0.756-6.932,1.491l-2.88,3.386l0.899-2.5c-5.854,3.02-7.776,8.044-8.409,10.93    c1.581-2.582,7.341-7.788,11.142-8.026c0,0-6.73,3.944-11.266,10.077c-0.979,1.323-1.699,2.501-2.125,3.344    c-0.363,0.719-0.509,1.2-0.362,1.299c1.172-1.347,2.233-2.613,3.258-3.828c0.183-0.217,0.361-0.427,0.542-0.641    c4.968-0.302,9.943-3.659,13.03-7.628l-2.673-0.075l3.699-1.38C589.311,324.261,590.103,321.984,589.989,320z"></path><path d="M582.301,339.39c-0.443-0.015-0.902,0.019-1.333-0.216c-0.105-0.064-0.184-0.204-0.168-0.331    c0.01-0.126,0.063-0.23,0.116-0.329c0.11-0.194,0.245-0.365,0.353-0.545c0.107-0.174,0.2-0.389,0.065-0.506    c-0.134-0.119-0.363-0.163-0.57-0.193c-0.431-0.052-0.874-0.044-1.311-0.023c-0.878,0.049-1.749,0.194-2.605,0.392    c-1.713,0.404-3.381,0.994-4.976,1.724l-0.033-0.064c0.733-0.507,1.529-0.907,2.335-1.296c0.82-0.354,1.66-0.675,2.528-0.943    c0.874-0.244,1.778-0.406,2.709-0.486c0.472-0.034,0.926-0.058,1.448-0.007c0.134,0.016,0.273,0.036,0.432,0.08    c0.16,0.05,0.343,0.1,0.57,0.315c0.109,0.106,0.214,0.274,0.251,0.448c0.039,0.174,0.021,0.326-0.006,0.44    c-0.06,0.227-0.143,0.357-0.215,0.476l-0.356,0.518c-0.037,0.056-0.047,0.108-0.039,0.046c0.024-0.068-0.095-0.264-0.124-0.255    c-0.037-0.006,0.162,0.067,0.334,0.081c0.176,0.025,0.4,0.036,0.579,0.041c0.835,0.002,1.641-0.1,2.467-0.304    c1.632-0.438,3.219-1.188,4.716-2.099l0.05,0.054"></path></g></g></svg>