<?xml version="1.0" encoding="utf-8"?>
<!-- Generator: Adobe Illustrator 25.2.1, SVG Export Plug-In . SVG Version: 6.00 Build 0)  -->
<svg version="1.1" id="Layer_1" xmlns="http://www.w3.org/2000/svg" xmlns:xlink="http://www.w3.org/1999/xlink" x="0px" y="0px"
	 viewBox="0 0 256 256" style="enable-background:new 0 0 256 256;" xml:space="preserve">
<style type="text/css">
	.st0{fill:#1E1B10;}
	.st1{fill:#FFFFFF;}
</style>
<rect class="st0" width="256" height="256"/>
<g>
	<path class="st1" d="M35.8,161.1V94.7H48v58.1H64v8.4H35.8z"/>
	<path class="st1" d="M104,162c-4.7,0-8.5-0.9-11.2-2.6c-2.8-1.7-4.8-4.3-6-7.5c-1.2-3.3-1.8-7.2-1.8-11.6v-24.9
		c0-4.5,0.6-8.3,1.8-11.5c1.2-3.2,3.2-5.6,6-7.3c2.8-1.7,6.5-2.5,11.2-2.5c4.8,0,8.6,0.8,11.4,2.5c2.8,1.7,4.8,4.1,6,7.3
		c1.2,3.2,1.8,7,1.8,11.5v24.9c0,4.4-0.6,8.3-1.8,11.5c-1.2,3.3-3.2,5.8-6,7.5C112.6,161.2,108.8,162,104,162z M104,153.1
		c2,0,3.5-0.4,4.5-1.3c1-0.9,1.6-2.1,1.9-3.6c0.3-1.5,0.5-3.2,0.5-5v-30.6c0-1.9-0.2-3.5-0.5-5c-0.3-1.5-1-2.6-1.9-3.5
		c-1-0.8-2.4-1.3-4.5-1.3c-1.9,0-3.4,0.4-4.3,1.3c-1,0.8-1.6,2-2,3.5c-0.3,1.5-0.5,3.1-0.5,5v30.6c0,1.8,0.2,3.5,0.5,5
		c0.3,1.5,0.9,2.7,1.9,3.6C100.6,152.7,102,153.1,104,153.1z"/>
	<path class="st1" d="M148.5,161.1V94.7h12.1v29.2l13.1-29.2h11.6l-12.7,29.7l14,36.8h-12.1l-11.2-30.3l-2.8,5.1v25.2H148.5z"/>
	<path class="st1" d="M208.2,161.1V94.7h12v66.5H208.2z"/>
</g>
</svg>
