<?xml version="1.0" encoding="utf-8"?>
<!-- Generator: Adobe Illustrator 24.3.0, SVG Export Plug-In . SVG Version: 6.00 Build 0)  -->
<svg version="1.1" id="Layer_1" xmlns="http://www.w3.org/2000/svg" xmlns:xlink="http://www.w3.org/1999/xlink" x="0px" y="0px"
	 viewBox="0 0 256 256" style="enable-background:new 0 0 256 256;" xml:space="preserve">
<style type="text/css">
	.st0{fill:#002337;}
</style>
<g>
	<path class="st0" d="M97.8,254c-0.8-1-1.4-2-2.2-2.9c-2.5-2.9-5.1-5.7-7.7-8.6c-1.2-1.3-2.6-1.5-4.4-1c-7.7,2.2-16-1.6-19.3-8.9
		c-0.4-0.8-0.5-1.7-0.7-2.5c0.2-0.1,0.4-0.2,0.6-0.3c0.4,0.4,0.8,0.9,1.1,1.3c3.1,4.8,8.9,7.1,14.4,5.7c5.4-1.4,9.7-6.6,9.9-11.9
		c0.3-6-3-11.1-8.7-12.9c-2.3-0.8-3-1.7-2.8-4.2c0.8-14.6,1.8-29.1,1.9-43.7c0.1-14.6-0.6-29.2-1.3-43.7c-0.4-8.1-1.2-16.2-2.4-24.3
		c-1.3-8.4-6.2-14.4-14.1-17.6c-1.8-0.7-2.4-1.6-2.3-3.4c0.3-4,2.6-6.8,5.3-9.4c4.5-4.3,4.7-10.2,0.6-14.5
		c-3.2-3.3-8.7-3.2-11.3,0.2c-1.3,1.7-1.2,4.5,0.2,6c1.3,1.4,3.2,1.7,5,0.7c1.4-0.8,1.5-1.2,1.3-4.5c2,0,3.6,1.5,3.9,3.7
		c0.4,3.1-1.3,6.1-4.3,7.4c-4.2,1.9-8.4,1.7-12.2-1.1c-4-3-5.1-7.3-4.6-12c0.9-7.2,7.5-12,13.3-12c9.9,0,18.1-4.8,25.3-11.3
		c7.2-6.6,11.8-14.7,14-24.1c0.2-0.8,0.9-1.4,1.4-2.1c0.6,0.7,1.6,1.3,1.8,2.1c3.2,11.3,9.5,20.6,19.4,27c3.6,2.4,7.8,3.9,11.7,5.8
		c0.7,0.3,1.5,0.5,2.2,0.8c2.2,1.1,2.6,2.8,0.9,4.5c-2.7,2.7-5.5,5.4-8.4,7.9c-2.6,2.3-4.4,4.8-4.5,8.4c0,0.2,0,0.4,0,0.6
		c0,0.1,0.1,0.3,0.3,0.6c1.9-0.8,3.9-1.5,5.8-2.3c16.8-7,33.6-14,50.5-21c2.6-1.1,2.8-1,2.9,1.9c0.3,9.9,4.3,18.4,9.3,26.6
		c5.1,8.4,11,16.5,15.2,25.4c11.1,23.3,10.1,46.2-6.2,66.8c-12.9,16.3-31,21.2-51.1,17.1c-10.5-2.1-18.6-8.2-22.7-18.5
		c-2.8-6.8-3.5-13.9-1.1-21.1c0.3-0.8,0.6-1.5,1.1-2.5c0.3,4,0.1,7.6,0.8,11.1c2.3,12,12.3,20.9,24.5,22.4
		c6.9,0.8,13.4,0.3,19.2-3.6c8-5.3,11.7-13.1,12.1-22.5c0.5-13.2-3.4-25.1-10.5-36c-3.5-5.3-7.2-10.4-10.9-15.5
		c-5.8-8.1-10.4-16.8-12-26.8c-0.3-1.8-1.1-2.1-2.7-1.4c-7.7,3.2-15.4,6.4-23.2,9.5c-1.6,0.6-2.3,1.6-2.4,3.4
		c-1.2,11.9-2.5,23.8-3.7,35.7c-1.1,10.6-2.1,21.2-3.2,31.8c-1.2,11.9-2.5,23.8-3.7,35.7c-1.1,11.2-2.2,22.4-3.2,33.6
		c-0.4,4.6-0.7,9.1-1,13.7c-0.3,4.5,1.6,7.8,4.9,10.6c1.2,1,2.5,2,3.7,3.1c1,0.8,1.1,1.8,0,2.5c-5.9,3.8-10.6,8.7-14.8,14.2
		C98.5,253.8,98.3,253.8,97.8,254z"/>
	<path class="st0" d="M80.2,212.4c3,0.9,5.1,3,6.6,5.6c3.4,5.7,1.7,12.8-3.8,16.2c-5.9,3.7-13.2,2.3-16.7-3.3
		c-2.6-4.1-1.8-8.3-0.3-12.6c0.6-1.6,1.3-3.2,1.8-4.9c1.1-3.7,0.3-5.4-3.1-7.3c-0.4-0.2-0.7-0.5-1.2-0.9c1.7-1.6,3.5-1.9,5.5-1.5
		c4.3,0.8,7,4.7,6.2,9.1c-0.3,1.6,0.2,2,1.6,2.4c4.6,1.3,6.9,4.8,6.5,9.3c-0.4,3.9-4.5,6.9-8.3,6c-1.8-0.4-3.1-1.5-3.4-3.3
		c-0.2-0.9,0.4-2,0.6-3c0.2,0,0.5,0,0.7,0c0.2,0.2,0.5,0.5,0.7,0.7c0.6,1.3,1.7,1.7,2.8,0.9c1.2-0.8,1.4-2,0.6-3.3
		c-1-1.6-3.3-2-5-0.9c-3.5,2.2-3.3,7.3,0.3,9.4c3.3,1.9,7.9,1.5,10.8-1.1c2.9-2.6,4-7.4,2.1-11c-0.9-1.8-2.4-3.2-3.6-4.8
		c-0.4-0.5-1-0.9-1.6-1.4C79.9,212.8,80,212.6,80.2,212.4z"/>
</g>
</svg>
