<svg height='100px' width='100px'  fill="#002337" xmlns="http://www.w3.org/2000/svg" xmlns:xlink="http://www.w3.org/1999/xlink" version="1.1" x="0px" y="0px" viewBox="0 0 100 100" enable-background="new 0 0 100 100" xml:space="preserve"><g><path d="M50,5C25.188,5,5,25.188,5,50s20.188,45,45,45s45-20.188,45-45S74.813,5,50,5z M50,89.706   c-8.041,0-15.519-2.397-21.771-6.506c-4.02-2.642-7.529-5.992-10.354-9.876c0.037-0.18,0.077-0.359,0.128-0.536   c1.386-4.76,3.215-7.781,5.031-9.719c2.988-3.185,5.942-3.435,6.848-3.643c0.169-0.041,0.336-0.077,0.512-0.11   c0.553-0.509,0.987-1.224,1.329-2.076c0.851-2.145,1.105-5.186,1.076-8.209c-0.049-5.441-1.003-10.835-1.003-10.835c0,0,0,0,0,0   c0-0.753,0.016-1.478,0.047-2.185c0.007-0.227,0.023-0.439,0.034-0.66c0.027-0.477,0.059-0.946,0.097-1.4   c0.021-0.242,0.043-0.475,0.069-0.711c0.039-0.424,0.09-0.834,0.143-1.236c0.03-0.224,0.059-0.449,0.091-0.666   c0.064-0.413,0.133-0.816,0.205-1.207c0.035-0.177,0.065-0.359,0.101-0.537c0.105-0.532,0.225-1.05,0.353-1.546   c0.004-0.02,0.009-0.042,0.015-0.063c0.135-0.521,0.284-1.019,0.442-1.5c0.042-0.14,0.094-0.269,0.138-0.405   c0.114-0.335,0.232-0.663,0.354-0.978c0.059-0.154,0.122-0.302,0.183-0.453c0.121-0.285,0.244-0.563,0.369-0.832   c0.066-0.144,0.131-0.285,0.2-0.423c0.134-0.272,0.275-0.534,0.416-0.789c0.063-0.114,0.122-0.232,0.185-0.34   c0.197-0.331,0.391-0.648,0.593-0.95c0.014-0.021,0.029-0.049,0.045-0.073c0.222-0.33,0.448-0.639,0.681-0.933   c0.064-0.081,0.126-0.153,0.19-0.232c0.168-0.208,0.341-0.411,0.515-0.605c0.082-0.089,0.166-0.177,0.248-0.264   c0.162-0.171,0.323-0.337,0.49-0.495c0.083-0.08,0.17-0.162,0.256-0.243c0.174-0.157,0.347-0.308,0.522-0.454   c0.078-0.062,0.155-0.127,0.231-0.187c0.228-0.181,0.455-0.351,0.684-0.512c0.024-0.016,0.046-0.035,0.071-0.051   c0.26-0.179,0.519-0.343,0.776-0.498c0.063-0.04,0.13-0.072,0.192-0.111c0.191-0.112,0.386-0.218,0.574-0.316   c0.086-0.046,0.174-0.088,0.26-0.129c0.172-0.083,0.343-0.166,0.514-0.238c0.087-0.041,0.176-0.079,0.264-0.114   c0.172-0.073,0.343-0.14,0.514-0.205c0.079-0.029,0.159-0.06,0.238-0.088c0.206-0.072,0.408-0.138,0.609-0.201   c0.039-0.009,0.077-0.026,0.115-0.035c0.24-0.073,0.478-0.135,0.711-0.19c0.062-0.013,0.117-0.027,0.177-0.041   c0.173-0.037,0.338-0.074,0.504-0.107c0.078-0.015,0.153-0.027,0.23-0.041c0.144-0.028,0.282-0.05,0.42-0.073   c0.078-0.01,0.154-0.022,0.23-0.033c0.134-0.018,0.261-0.034,0.389-0.047c0.069-0.01,0.14-0.02,0.211-0.024   c0.135-0.015,0.264-0.026,0.389-0.033c0.051-0.005,0.107-0.01,0.156-0.013c0.164-0.009,0.326-0.017,0.476-0.021   c0.065-0.002,0.121-0.002,0.184-0.002c0.08,0,0.162,0,0.235,0c0.368,0,0.659,0.014,0.87,0.032c0.027,0.001,0.052,0.002,0.071,0.004   c0.072,0.005,0.136,0.012,0.177,0.016c0.014,0.002,0.034,0.003,0.046,0.004c0.04,0.004,0.066,0.007,0.066,0.007   c0.215-0.011,0.427-0.022,0.637-0.027c0.21,0.007,0.422,0.016,0.638,0.03c0,0,0.024-0.004,0.065-0.007   c0.01-0.001,0.031-0.003,0.047-0.005c0.044-0.005,0.103-0.011,0.179-0.016c0.022-0.003,0.041-0.004,0.07-0.004   c0.207-0.019,0.502-0.033,0.869-0.033c0.072,0,0.152,0.002,0.227,0.002c0.068,0,0.129,0,0.197,0.001   c0.15,0.008,0.304,0.01,0.471,0.021c0.055,0.004,0.115,0.011,0.179,0.015c0.119,0.007,0.24,0.019,0.366,0.03   c0.073,0.008,0.147,0.019,0.228,0.026c0.12,0.013,0.244,0.028,0.366,0.045c0.08,0.009,0.162,0.021,0.25,0.035   c0.124,0.02,0.255,0.042,0.388,0.066c0.083,0.015,0.17,0.031,0.257,0.047c0.148,0.03,0.304,0.066,0.459,0.102   c0.072,0.016,0.141,0.029,0.219,0.047c0.227,0.056,0.456,0.117,0.694,0.188c0.049,0.014,0.104,0.034,0.155,0.049   c0.186,0.057,0.381,0.12,0.572,0.189c0.079,0.031,0.169,0.064,0.252,0.096c0.167,0.062,0.328,0.124,0.494,0.193   c0.095,0.04,0.186,0.079,0.282,0.121c0.163,0.072,0.322,0.148,0.488,0.228c0.093,0.047,0.185,0.091,0.28,0.142   c0.178,0.09,0.36,0.19,0.543,0.297c0.072,0.041,0.146,0.081,0.221,0.124c0.256,0.153,0.514,0.315,0.766,0.491   c0.032,0.023,0.071,0.052,0.105,0.08c0.218,0.151,0.435,0.313,0.649,0.482c0.08,0.064,0.163,0.134,0.246,0.204   c0.171,0.142,0.337,0.284,0.505,0.438c0.09,0.081,0.177,0.165,0.267,0.252c0.161,0.155,0.319,0.314,0.475,0.48   c0.088,0.095,0.172,0.184,0.262,0.278c0.171,0.188,0.334,0.386,0.5,0.589c0.068,0.082,0.138,0.161,0.205,0.247   c0.229,0.291,0.453,0.601,0.675,0.926c0.022,0.031,0.04,0.063,0.058,0.092c0.192,0.296,0.393,0.608,0.577,0.93   c0.065,0.114,0.129,0.233,0.194,0.351c0.139,0.25,0.275,0.509,0.411,0.776c0.069,0.141,0.136,0.285,0.202,0.432   c0.123,0.265,0.249,0.539,0.363,0.821c0.063,0.147,0.127,0.303,0.186,0.458c0.12,0.311,0.241,0.636,0.351,0.965   c0.048,0.139,0.097,0.274,0.146,0.417c0.156,0.478,0.301,0.973,0.437,1.495c0.007,0.022,0.01,0.04,0.017,0.058   c0.127,0.498,0.245,1.019,0.355,1.551c0.035,0.178,0.065,0.365,0.101,0.544c0.072,0.391,0.141,0.792,0.203,1.203   c0.033,0.218,0.063,0.444,0.092,0.669c0.055,0.401,0.104,0.813,0.146,1.233c0.023,0.236,0.047,0.469,0.066,0.71   c0.042,0.456,0.069,0.926,0.095,1.404c0.012,0.219,0.028,0.432,0.037,0.656c0.027,0.708,0.045,1.431,0.045,2.184   c0,0.002,0,0.002,0,0.002s-0.954,5.392-1.004,10.834c-0.022,3.023,0.228,6.066,1.077,8.207c0.339,0.855,0.777,1.567,1.329,2.08   c0.173,0.03,0.343,0.069,0.515,0.106c0.901,0.209,3.859,0.461,6.848,3.645c1.814,1.936,3.643,4.952,5.026,9.717   c0.053,0.185,0.095,0.37,0.134,0.558c-2.823,3.879-6.331,7.225-10.348,9.864C65.517,87.309,58.04,89.706,50,89.706z"></path><path d="M59.082,55.945c-0.146-0.357-0.235-0.757-0.242-1.205c-0.012-0.007-0.021-0.012-0.032-0.017   c-1.514,1.487-3.186,2.663-4.974,3.372c-1.213,0.482-2.479,0.748-3.781,0.748c-1.301,0-2.567-0.266-3.78-0.748   c-0.562-0.223-1.109-0.501-1.646-0.813c-0.687-0.4-1.355-0.859-1.998-1.381c-0.47-0.381-0.93-0.783-1.372-1.22   c-0.001,0-0.001,0-0.001,0c0,1.854-1.415,2.909-2.378,3.413c-0.11,0.06-0.22,0.115-0.318,0.156   c-0.241,0.111-0.422,0.175-0.501,0.203c0,0,0,0,0,0.001c0.057,0.476,0.269,0.933,0.605,1.368c1.592,2.036,6.061,4.97,11.328,4.97   c5.264,0,9.734-2.937,11.324-4.97c0.338-0.436,0.552-0.894,0.605-1.368c0.003-0.015,0.005-0.028,0.003-0.038   c0-0.001,0-0.001,0-0.001c-0.395-0.147-1.44-0.594-2.205-1.461C59.463,56.668,59.239,56.332,59.082,55.945z"></path><path d="M64.072,37.145c-0.047-0.02-0.1-0.039-0.148-0.046l-1.502,1.447l-18.494-9.52c-6.047-0.56-7.007,7.518-7.081,8.237   c-0.003,0.034-0.003,0.05-0.003,0.05c-0.214-0.176-0.435-0.254-0.642-0.217c-0.091,0.016-0.179,0.053-0.258,0.11   c-0.439,0.314-0.682,1.216-0.649,2.348c0.01,0.377,0.051,0.78,0.125,1.195c0.227,1.259,0.702,2.31,1.219,2.831   c0.255,0.258,0.527,0.385,0.777,0.34c0.126-0.023,0.234-0.084,0.337-0.176c1.226,3.82,3.572,7.63,6.531,9.929   c1.745,1.355,3.703,2.184,5.772,2.184c2.058,0,4.004-0.818,5.74-2.155c2.976-2.299,5.332-6.122,6.566-9.957   c0.1,0.095,0.216,0.154,0.339,0.176c0.216,0.038,0.445-0.052,0.671-0.239c0.556-0.475,1.081-1.585,1.32-2.932   c0.079-0.438,0.12-0.864,0.128-1.26c0.006-0.296-0.008-0.577-0.038-0.834C64.691,37.883,64.44,37.32,64.072,37.145z"></path></g></svg>