<svg height='100px' width='100px'  fill="#002339" xmlns="http://www.w3.org/2000/svg" xmlns:xlink="http://www.w3.org/1999/xlink" version="1.1" x="0px" y="0px" viewBox="0 0 100 100" enable-background="new 0 0 100 100" xml:space="preserve"><path d="M50,5C25.2,5,5,25.1,5,50c0,24.8,20.2,45,45,45c24.9,0,45-20.2,45-45C95,25.1,74.9,5,50,5L50,5z M35.5,68.8  c-6.7,1.1-13.9-2.6-15.6-11.9c-1.8-13.3,8-24.4,22.5-26c0.5,0,0.6,0.4,0.6,0.4l0.7,4.1c0,0,0,0.5-0.4,0.6c-4.2,1.3-7.7,3.3-9,8.5  c5.7,0.3,10.6,4.5,11.6,10.4C46.7,61.6,42.2,67.8,35.5,68.8L35.5,68.8z M70,68.8c-6.7,1.1-13.9-2.6-15.7-11.9  c-1.7-13.3,8-24.4,22.5-26c0.5,0,0.6,0.4,0.6,0.4l0.7,4.1c0,0,0,0.5-0.4,0.6c-4.2,1.3-7.7,3.3-9.1,8.5c5.7,0.3,10.6,4.5,11.6,10.4  C81.3,61.6,76.7,67.8,70,68.8z"></path></svg>