<svg height='100px' width='100px'  fill="#002337" xmlns="http://www.w3.org/2000/svg" xmlns:xlink="http://www.w3.org/1999/xlink" version="1.1" x="0px" y="0px" viewBox="0 0 100 100" enable-background="new 0 0 100 100" xml:space="preserve"><path d="M50,5C25.1,5,5,25.1,5,50c0,24.9,20.1,45,45,45c24.9,0,45-20.1,45-45C95,25.1,74.9,5,50,5L50,5z M43.1,50  c0,0.7-0.1,1.3-0.3,1.9L55,59.3c1.3-1.1,3-1.9,4.9-1.9c4.2,0,7.5,3.4,7.5,7.5c0,4.1-3.3,7.5-7.5,7.5c-4.1,0-7.5-3.4-7.5-7.5  c0-0.7,0.1-1.3,0.3-1.9l-12.2-7.5c-1.3,1.1-3,1.8-4.9,1.8c-4.1,0-7.5-3.3-7.5-7.5c0-4.1,3.4-7.5,7.5-7.5c1.9,0,3.6,0.7,4.9,1.8  l12.2-7.5c-0.2-0.6-0.3-1.2-0.3-1.9c0-4.1,3.4-7.5,7.5-7.5c4.2,0,7.5,3.4,7.5,7.5c0,4.2-3.3,7.5-7.5,7.5c-1.9,0-3.6-0.7-4.9-1.9  l-12.2,7.5C43,48.7,43.1,49.3,43.1,50z"></path></svg>