<svg height='100px' width='100px'  fill="#000000" xmlns="http://www.w3.org/2000/svg" xmlns:xlink="http://www.w3.org/1999/xlink" viewBox="0 0 90 73" version="1.1" x="0px" y="0px"><title>Combined Shape</title><desc>Created with Sketch.</desc><g stroke="none" stroke-width="1" fill="none" fill-rule="evenodd"><path d="M24.0277459,0.202748894 C25.3768905,-0.363506808 26.4705882,0.362226668 26.4705882,1.82701417 L26.4705882,60.0732357 C26.4705882,61.5365484 25.3835602,63.1790392 24.0277459,63.7480943 L2.44284237,72.8075938 C1.09369778,73.3738495 0,72.648116 0,71.1833285 L0,12.9371069 C0,11.4737943 1.08702807,9.83130346 2.44284237,9.26224838 L24.0277459,0.202748894 Z M87.5571576,0.192406228 C88.9063022,-0.373849475 90,0.351884001 90,1.8166715 L90,60.0628931 C90,61.5262057 88.9129719,63.1686965 87.5571576,63.7377516 L65.9722541,72.7972511 C64.6231095,73.3635068 63.5294118,72.6377733 63.5294118,71.1729858 L63.5294118,12.9267643 C63.5294118,11.4634516 64.6164398,9.82096079 65.9722541,9.25190571 L87.5571576,0.192406228 Z M34.2075483,0.192406228 C32.8584037,-0.373849475 31.7647059,0.351884001 31.7647059,1.8166715 L31.7647059,60.0628931 C31.7647059,61.5262057 32.8517339,63.1686965 34.2075483,63.7377516 L55.7924517,72.7972511 C57.1415963,73.3635068 58.2352941,72.6377733 58.2352941,71.1729858 L58.2352941,12.9267643 C58.2352941,11.4634516 57.1482661,9.82096079 55.7924517,9.25190571 L34.2075483,0.192406228 Z" fill="#000000"></path></g></svg>