<svg height='100px' width='100px'  fill="#002337" xmlns="http://www.w3.org/2000/svg" xmlns:xlink="http://www.w3.org/1999/xlink" version="1.1" x="0px" y="0px" viewBox="0 0 60 60" style="enable-background:new 0 0 60 60;" xml:space="preserve"><path d="M53.31,25.19l-4.05-0.63c-0.42-1.51-1.02-2.96-1.79-4.32l2.42-3.31c0.59-0.8,0.5-1.89-0.2-2.59l-4.01-4.01  c-0.7-0.7-1.79-0.78-2.59-0.2l-3.31,2.42c-1.36-0.76-2.81-1.36-4.32-1.78l-0.63-4.05C34.66,5.71,33.83,5,32.84,5h-5.67  c-0.99,0-1.82,0.71-1.98,1.69l-0.64,4.06c-1.51,0.43-2.96,1.02-4.31,1.78l-3.31-2.41c-0.8-0.58-1.89-0.5-2.59,0.2l-4.01,4.01  c-0.7,0.7-0.79,1.79-0.2,2.59l2.42,3.31c-0.76,1.36-1.36,2.81-1.78,4.32l-4.05,0.63C5.71,25.34,5,26.17,5,27.16v5.67  c0,0.99,0.71,1.82,1.69,1.98l4.06,0.64c0.42,1.51,1.02,2.95,1.78,4.31l-2.42,3.31c-0.58,0.8-0.5,1.89,0.2,2.59l4.01,4.01  c0.7,0.7,1.79,0.78,2.59,0.2l3.32-2.42c1.36,0.76,2.8,1.36,4.31,1.78l0.64,4.06c0.15,0.98,0.99,1.69,1.98,1.69h5.67  c0.99,0,1.82-0.71,1.98-1.69l0.63-4.05c1.51-0.43,2.96-1.02,4.32-1.78l3.31,2.42c0.8,0.58,1.89,0.5,2.59-0.2l4.01-4.01  c0.7-0.7,0.79-1.79,0.2-2.59l-2.42-3.31c0.76-1.36,1.36-2.81,1.79-4.31l4.05-0.64c0.98-0.15,1.69-0.98,1.69-1.98v-5.67  C55,26.17,54.29,25.34,53.31,25.19z M7,32.84l-1,0L7,32.84C7,32.84,7,32.84,7,32.84z M53,32.84l-4.7,0.74  c-0.4,0.06-0.72,0.36-0.82,0.75c-0.44,1.76-1.13,3.44-2.06,4.98c-0.21,0.35-0.19,0.78,0.05,1.11l2.8,3.84l-4.01,4.01l-3.84-2.8  c-0.33-0.24-0.76-0.25-1.11-0.05c-1.54,0.93-3.22,1.63-4.99,2.06c-0.39,0.1-0.69,0.42-0.75,0.82L32.84,53l-5.67,0l-0.74-4.7  c-0.06-0.4-0.36-0.72-0.75-0.82c-1.77-0.44-3.44-1.13-4.98-2.06c-0.16-0.1-0.34-0.14-0.52-0.14c-0.21,0-0.41,0.06-0.59,0.19  l-3.84,2.8l-4.01-4.01l2.8-3.84c0.24-0.33,0.26-0.76,0.05-1.11c-0.93-1.54-1.63-3.22-2.06-4.99c-0.1-0.39-0.42-0.69-0.82-0.75  L7,32.84l0-5.67l4.7-0.74c0.4-0.06,0.72-0.36,0.82-0.75c0.43-1.77,1.13-3.45,2.06-4.99c0.21-0.34,0.19-0.78-0.05-1.11l-2.8-3.84  l4.01-4.01l3.84,2.8c0.33,0.24,0.76,0.26,1.11,0.05c1.54-0.93,3.22-1.63,4.98-2.06c0.39-0.1,0.68-0.42,0.75-0.82L27.16,7h5.67  l0.74,4.7c0.06,0.4,0.36,0.72,0.75,0.82c1.77,0.44,3.45,1.13,4.99,2.06c0.34,0.21,0.78,0.19,1.11-0.05l3.84-2.8l4.01,4.01l-2.8,3.84  c-0.24,0.33-0.26,0.76-0.05,1.11c0.93,1.54,1.63,3.22,2.06,4.99c0.1,0.39,0.42,0.69,0.82,0.75l4.7,0.74V32.84z"></path><path d="M30,15.21c-8.16,0-14.79,6.64-14.79,14.79c0,6.42,4.12,11.88,9.84,13.92c0.05,0.03,0.11,0.04,0.16,0.06  c1.5,0.52,3.11,0.81,4.79,0.81s3.28-0.29,4.79-0.81c0.06-0.02,0.11-0.03,0.16-0.06c5.73-2.04,9.84-7.5,9.84-13.92  C44.79,21.84,38.16,15.21,30,15.21z M30,32.67c-0.8,0-1.46-0.65-1.46-1.46c0-0.8,0.65-1.46,1.46-1.46s1.46,0.65,1.46,1.46  C31.46,32.01,30.8,32.67,30,32.67z M35.5,41.53v-5.62l2.79-2.79c0.19-0.19,0.29-0.44,0.29-0.71v-1.59c1.42-0.43,2.45-1.74,2.45-3.29  c0-1.91-1.55-3.46-3.46-3.46s-3.46,1.55-3.46,3.46c0,1.56,1.04,2.86,2.46,3.29v1.17l-2.79,2.79c-0.19,0.19-0.29,0.44-0.29,0.71v6.79  c-0.81,0.23-1.64,0.38-2.51,0.45V34.5c1.42-0.43,2.46-1.74,2.46-3.29c0-1.91-1.55-3.46-3.46-3.46s-3.46,1.55-3.46,3.46  c0,1.56,1.04,2.86,2.45,3.29v8.24c-0.86-0.07-1.7-0.22-2.5-0.45V35.5c0-0.27-0.11-0.52-0.29-0.71l-2.79-2.79v-1.17  c1.42-0.43,2.46-1.74,2.46-3.29c0-1.91-1.55-3.46-3.46-3.46s-3.46,1.55-3.46,3.46c0,1.56,1.04,2.86,2.45,3.29v1.59  c0,0.27,0.11,0.52,0.29,0.71l2.79,2.79v5.62c-4.3-2.06-7.29-6.45-7.29-11.53c0-7.05,5.74-12.79,12.79-12.79S42.79,22.95,42.79,30  C42.79,35.08,39.81,39.47,35.5,41.53z M37.58,29c-0.8,0-1.46-0.65-1.46-1.46s0.65-1.46,1.46-1.46c0.8,0,1.46,0.65,1.46,1.46  S38.38,29,37.58,29z M22.42,29c-0.8,0-1.46-0.65-1.46-1.46s0.65-1.46,1.46-1.46c0.8,0,1.46,0.65,1.46,1.46S23.22,29,22.42,29z"></path></svg>