<svg height='100px' width='100px'  fill="#bb1187" xmlns="http://www.w3.org/2000/svg" xmlns:xlink="http://www.w3.org/1999/xlink" version="1.1" x="0px" y="0px" viewBox="0 0 100 100" enable-background="new 0 0 100 100" xml:space="preserve"><g><g><g><path fill="none" stroke="#bb1187" stroke-width="3" stroke-linecap="round" stroke-linejoin="round" d="M60.8,20.673     c0.104,0.178,8.32-5.095,8.446-4.876c0.183,0.316-12.56,12.589-12.33,12.986c0.295,0.511,22.254-13.791,22.662-13.084     c0.404,0.701-29.324,21.543-28.813,22.429c0.544,0.943,35.143-21.456,35.647-20.582"></path><path fill="none" stroke="#bb1187" stroke-width="3" stroke-linecap="round" stroke-linejoin="round" d="M20.239,24.713     c0.138,0.238,10.755-6.595,10.922-6.306c0.355,0.615-23.407,18.212-23.007,18.905c0.346,0.598,29.467-17.79,29.804-17.207     c0.41,0.71-31.268,22.858-30.875,23.539c0.527,0.913,33.241-20.139,33.651-19.428c0.44,0.764-28.313,21.714-27.911,22.408     c0.404,0.701,29.009-17.866,29.493-17.028c0.366,0.634-24.989,19.158-24.562,19.899c0.392,0.678,32.751-20.002,33.225-19.182     S17.182,55.004,17.616,55.756c0.431,0.747,36.015-21.972,36.524-21.088c0.508,0.879-37.988,26.862-37.521,27.672     c0.989,1.714,71.735-43.62,72.689-41.967c1.108,1.92-65.024,40.751-63.93,42.647c0.971,1.681,63.432-38.896,64.417-37.191     c0.914,1.583-62.489,40.261-61.709,41.612c1.098,1.901,62.896-38.446,63.82-36.847c0.899,1.557-58.241,36.853-57.263,38.548     c1.029,1.784,56.898-34.788,57.737-33.335c0.959,1.661-62.488,39.755-61.427,41.594c0.715,1.238,55.437-33.937,56.272-32.489     c0.622,1.078-50.468,33.625-49.806,34.771c0.776,1.346,44.466-26.903,44.998-25.98c0.541,0.937-40.541,27.83-40.013,28.745     c0.475,0.822,38.941-23.759,39.494-22.802c0.491,0.852-33.044,24.076-32.468,25.073c0.286,0.496,24.792-14.994,25.087-14.484     c0.473,0.819-25.579,18.958-25.142,19.716c0.155,0.269,16.688-10.024,16.857-9.732"></path></g></g></g></svg>