<?xml version="1.0" encoding="utf-8"?>
<!-- Generator: Adobe Illustrator 25.2.3, SVG Export Plug-In . SVG Version: 6.00 Build 0)  -->
<svg version="1.1" id="Layer_1" xmlns="http://www.w3.org/2000/svg" xmlns:xlink="http://www.w3.org/1999/xlink" x="0px" y="0px"
	 viewBox="0 0 256 256" style="enable-background:new 0 0 256 256;" xml:space="preserve">
<style type="text/css">
	.st0{fill:#002337;}
</style>
<rect x="37.1" y="185.2" class="st0" width="114.9" height="14"/>
<g>
	<g>
		<path class="st0" d="M107.8,169.1c-26.2,9.6-55.2-4-64.8-30.1s4-55.2,30.1-64.8L80,93.1c-15.8,5.8-24,23.3-18.2,39.1
			s23.3,24,39.1,18.2L107.8,169.1z"/>
	</g>
	<g>
		<path class="st0" d="M182,142c26.2-9.6,39.7-38.6,30.1-64.8c-9.6-26.2-38.6-39.7-64.8-30.1l6.9,18.8c15.8-5.8,33.3,2.4,39.1,18.2
			s-2.4,33.3-18.2,39.1L182,142z"/>
	</g>
	<polygon class="st0" points="108.8,61.2 73.1,74.3 80,93.1 105.6,83.7 	"/>
	<polygon class="st0" points="118.5,79 154.2,66 147.3,47.2 121.7,56.5 	"/>
	<g>
		<polygon class="st0" points="146.3,155.1 182,142 175.1,123.3 149.5,132.6 		"/>
		<polygon class="st0" points="136.6,137.3 100.9,150.4 107.8,169.1 133.4,159.8 		"/>
	</g>
	<g>
		<polygon class="st0" points="92,131.9 131.4,117.5 124.6,98.7 95.2,109.4 		"/>
		<polygon class="st0" points="164.1,84.2 122.8,99.3 129.6,118.1 160.9,106.7 		"/>
	</g>
</g>
<rect x="164" y="185" class="st0" width="54" height="14"/>
<rect x="184" y="165" class="st0" width="14" height="54"/>
</svg>
