<?xml version="1.0" encoding="utf-8"?>
<!-- Generator: Adobe Illustrator 25.2.1, SVG Export Plug-In . SVG Version: 6.00 Build 0)  -->
<svg version="1.1" id="Layer_1" xmlns="http://www.w3.org/2000/svg" xmlns:xlink="http://www.w3.org/1999/xlink" x="0px" y="0px"
	 viewBox="0 0 100 100" style="enable-background:new 0 0 100 100;" xml:space="preserve">
<style type="text/css">
	.st0{fill:#ffffff;}
</style>
<path class="st0" d="M82.6,20.3c0-0.8-0.6-1.4-1.4-1.4H9.4c-0.8,0-1.4,0.6-1.4,1.4v50l24.3-32.7c0.3-0.4,0.7-0.6,1.2-0.6
	c0.5,0,0.9,0.2,1.2,0.6l9.5,13.8L57,29.3c0.1-0.1,0.2-0.3,0.3-0.4c0,0,0.1,0,0.1-0.1c0.1-0.1,0.3-0.2,0.4-0.2c0,0,0,0,0,0
	c0.1,0,0.2,0,0.4,0c0,0,0.1,0,0.1,0c0,0,0.1,0,0.1,0c0.2,0,0.3,0.1,0.5,0.2c0,0,0,0,0,0c0.1,0.1,0.3,0.2,0.4,0.3
	c0,0,0.1,0.1,0.1,0.1c0,0,0,0.1,0.1,0.1l13.9,23.8c2.4-1.1,5-1.7,7.8-1.7c0.5,0,1,0,1.4,0.1V20.3z M22,36.9c-3.1,0-5.7-2.5-5.7-5.7
	c0-3.1,2.5-5.7,5.7-5.7c3.1,0,5.7,2.5,5.7,5.7C27.6,34.4,25.1,36.9,22,36.9z"/>
<path class="st0" d="M87.7,55.7V15.2c0-0.8-0.6-1.4-1.4-1.4h-82c-0.8,0-1.4,0.6-1.4,1.4v60.2c0,0.8,0.6,1.4,1.4,1.4h62.3
	c2.6,5.7,8.3,9.4,14.6,9.4c8.8,0,16-7.2,16-16C97.1,64,93.4,58.3,87.7,55.7z M65.2,70.3c0,1.2,0.2,2.5,0.4,3.7H5.7V16.6h79.1v38.1
	c-1.2-0.3-2.4-0.4-3.7-0.4C72.4,54.3,65.2,61.4,65.2,70.3z M87.7,71.6h-5.1v5.1c0,0.8-0.6,1.4-1.4,1.4c-0.8,0-1.4-0.6-1.4-1.4v-5.1
	h-5.1c-0.8,0-1.4-0.6-1.4-1.4s0.6-1.4,1.4-1.4h5.1v-5.1c0-0.8,0.6-1.4,1.4-1.4c0.8,0,1.4,0.6,1.4,1.4v5.1h5.1c0.8,0,1.4,0.6,1.4,1.4
	S88.5,71.6,87.7,71.6z"/>
</svg>
