<svg height='100px' width='100px'  fill="#ffffff" xmlns="http://www.w3.org/2000/svg" viewBox="0 0 32 32" x="0px" y="0px"><title>cart</title><g data-name="Layer 15"><path d="M26,5a1,1,0,0,0-1,1V7H24a1,1,0,0,0,0,2h1v1a1,1,0,0,0,2,0V9h1a1,1,0,0,0,0-2H27V6A1,1,0,0,0,26,5Z"></path><path d="M4.68,21a18.35,18.35,0,0,1,0,5.41,1,1,0,0,0,1.76.76l4.8-5.79A1,1,0,0,1,12,21H24a3.07,3.07,0,0,0,3-3.11V15a1,1,0,0,0-2,0v2.89A1.07,1.07,0,0,1,24,19H12a3,3,0,0,0-2.29,1.08l-2.8,3.38c0-1.64-.13-3.25-.75-3.95A1.45,1.45,0,0,0,5,19a1.07,1.07,0,0,1-1-1.11V10.11A1.07,1.07,0,0,1,5,9H20a1,1,0,0,0,0-2H5a3.07,3.07,0,0,0-3,3.11v7.78A3.08,3.08,0,0,0,4.68,21Z"></path></g></svg>