<svg height='100px' width='100px'  fill="#e7fbfb" xmlns="http://www.w3.org/2000/svg" xmlns:xlink="http://www.w3.org/1999/xlink" version="1.1" x="0px" y="0px" viewBox="0 0 100 100" enable-background="new 0 0 100 100" xml:space="preserve"><path d="M77.201,66.654h-8.938v-8.938c0-0.828-0.672-1.5-1.5-1.5s-1.5,0.672-1.5,1.5v8.938h-8.938c-0.828,0-1.5,0.672-1.5,1.5  s0.672,1.5,1.5,1.5h8.938v8.938c0,0.828,0.672,1.5,1.5,1.5s1.5-0.672,1.5-1.5v-8.938h8.938c0.828,0,1.5-0.672,1.5-1.5  S78.029,66.654,77.201,66.654z M66.766,47.217c0,0-0.001,0-0.002,0V20.908c0-5.522-4.479-10-10-10H22.299c-5.521,0-10,4.478-10,10  v48.393c0,5.523,4.479,10,10,10h26.774c3.713,5.872,10.246,9.791,17.692,9.791c11.544,0,20.936-9.393,20.936-20.938  S78.31,47.217,66.766,47.217z M34.318,21.408h10.426c1.105,0,2,0.896,2,2c0,1.105-0.895,2-2,2H34.318c-1.104,0-2-0.895-2-2  C32.318,22.305,33.215,21.408,34.318,21.408z M22.656,33.094h33.75c1.105,0,2,0.896,2,2c0,1.105-0.895,2-2,2h-33.75  c-1.104,0-2-0.895-2-2C20.656,33.99,21.553,33.094,22.656,33.094z M22.656,40.881h33.75c1.105,0,2,0.895,2,2c0,1.104-0.895,2-2,2  h-33.75c-1.104,0-2-0.896-2-2C20.656,41.775,21.553,40.881,22.656,40.881z M22.656,48.666h33.75c0.551,0,1.043,0.23,1.405,0.591  c-1.864,0.887-3.572,2.037-5.085,3.409h-30.07c-1.104,0-2-0.895-2-2C20.656,49.563,21.553,48.666,22.656,48.666z M45.832,68.238  H22.656c-1.104,0-2-0.895-2-2c0-1.104,0.896-2,2-2h23.553c-0.242,1.271-0.381,2.576-0.381,3.916  C45.828,68.183,45.832,68.21,45.832,68.238z M22.656,60.453c-1.104,0-2-0.896-2-2c0-1.105,0.896-2,2-2h26.755  c-0.879,1.3-1.597,2.713-2.169,4.197L22.656,60.453z M66.766,86.092c-9.891,0-17.938-8.047-17.938-17.938  s8.047-17.938,17.938-17.938c9.89,0,17.936,8.047,17.936,17.938S76.655,86.092,66.766,86.092z"></path></svg>