<svg height='100px' width='100px'  fill="#ffffff" xmlns="http://www.w3.org/2000/svg" xmlns:xlink="http://www.w3.org/1999/xlink" version="1.1" x="0px" y="0px" viewBox="0 0 70 70" enable-background="new 0 0 70 70" xml:space="preserve"><path d="M57.7999878,14.2098999c0-0.5500488-0.4400024-1-1-1H6.5900269c-0.5500488,0-1,0.4499512-1,1v34.9699707  l17.0099487-22.869873c0.1900024-0.2600098,0.5100098-0.3901367,0.8200073-0.4001465  c0.3200073,0,0.6199951,0.1601563,0.8099976,0.4300537l6.6600342,9.6600342l8.9799805-15.4699707  c0.0599976-0.1000977,0.1400146-0.1900635,0.2299805-0.2600098c0.0200195-0.0200195,0.0400391-0.0300293,0.0700073-0.0500488  c0.0900269-0.0700684,0.1900024-0.1199951,0.2999878-0.1499023c0.0100098,0,0.0100098,0,0.0100098,0  c0.0800171-0.0200195,0.1600342-0.0300293,0.25-0.0300293c0.0300293,0,0.0500488,0,0.0800171,0.0100098  c0.0300293,0,0.0599976,0,0.0900269,0.0100098c0.1199951,0.0198975,0.2299805,0.0499268,0.3299561,0.1098633  c0.0100098,0,0.0100098,0.0100098,0.0100098,0.0100098c0.1000366,0.0600586,0.1799927,0.130127,0.25,0.2199707  c0.0200195,0.0300293,0.0400391,0.0500488,0.0599976,0.0700684c0.0100098,0.0200195,0.0300293,0.0400391,0.0400391,0.0600586  l9.737793,16.6784668c1.6695557-0.7683105,3.5188599-1.2084961,5.4719849-1.2084961  c0.3340454,0,0.6673584,0.0189209,1.0001831,0.0439453V14.2098999z M15.3900146,25.8599243  c-2.1799927,0-3.960022-1.7800293-3.960022-3.960083c0-2.1899414,1.7800293-3.9599609,3.960022-3.9599609  c2.1900024,0,3.9599609,1.7700195,3.9599609,3.9599609C19.3499756,24.079895,17.5800171,25.8599243,15.3900146,25.8599243z"></path><path d="M61.3901367,38.9763794V10.6200562c0-0.5527344-0.4477539-1-1-1H3c-0.5522461,0-1,0.4472656-1,1v42.1494141  c0,0.5527344,0.4477539,1,1,1h43.5933838c1.7911377,3.9777832,5.8029785,6.6104736,10.206604,6.6104736  C62.9799805,60.3799438,68,55.3599243,68,49.1898804C68,44.7960815,65.3676758,40.7848511,61.3901367,38.9763794z   M45.6199951,49.1898804c0,0.8703613,0.1115112,1.7341309,0.3084717,2.5795898H4V11.6200562h55.3901367v26.6894531  c-0.8476563-0.1977539-1.7115479-0.3095703-2.5901489-0.3095703C50.6500244,37.999939,45.6300049,43.0099487,45.6199951,49.1898804z   M61.4243164,50.1083374h-3.5375977v3.5380859c0,0.5527344-0.4477539,1-1,1s-1-0.4472656-1-1v-3.5380859h-3.5375977  c-0.5522461,0-1-0.4472656-1-1s0.4477539-1,1-1h3.5375977V44.571228c0-0.5527344,0.4477539-1,1-1s1,0.4472656,1,1v3.5371094  h3.5375977c0.5522461,0,1,0.4472656,1,1S61.9765625,50.1083374,61.4243164,50.1083374z"></path></svg>