<svg height='100px' width='100px'  fill="#002337" xmlns:x="http://ns.adobe.com/Extensibility/1.0/" xmlns:i="http://ns.adobe.com/AdobeIllustrator/10.0/" xmlns:graph="http://ns.adobe.com/Graphs/1.0/" xmlns="http://www.w3.org/2000/svg" xmlns:xlink="http://www.w3.org/1999/xlink" version="1.1" x="0px" y="0px" viewBox="0 0 100 100" style="enable-background:new 0 0 100 100;" xml:space="preserve"><g><g i:extraneous="self"><g><path d="M93.9,24.8H82.9V13.9c0-2-1.7-3.6-3.6-3.6H6.1c-2,0-3.6,1.6-3.6,3.6v57.7c0,2,1.6,3.6,3.6,3.6h10.9v10.9     c0,2,1.6,3.6,3.6,3.6h73.1c2,0,3.6-1.6,3.6-3.6V28.4C97.5,26.4,95.9,24.8,93.9,24.8z M90.2,73.9l-15-16.5c-1.5-1.7-4.2-1.7-5.7,0     l-6.4,7.1L49,48.3c-1.7-2-4.8-2-6.5,0L24.4,69.1v-37h65.8V73.9z M9.8,67.9V17.5h65.8v7.3H20.7c-2,0-3.6,1.6-3.6,3.6v39.5H9.8z"></path><circle cx="78.2" cy="44.2" r="5.8"></circle></g></g></g></svg>