<?xml version="1.0" encoding="utf-8"?>
<!-- Generator: Adobe Illustrator 25.1.0, SVG Export Plug-In . SVG Version: 6.00 Build 0)  -->
<svg version="1.1" id="Layer_1" xmlns="http://www.w3.org/2000/svg" xmlns:xlink="http://www.w3.org/1999/xlink" x="0px" y="0px"
	 viewBox="0 0 100 100" style="enable-background:new 0 0 100 100;" xml:space="preserve">
<style type="text/css">
	.st0{opacity:0.37;enable-background:new    ;}
	.st1{fill:#FFFFFF;}
	.st2{fill:url(#SVGID_1_);}
</style>
<circle class="st0" cx="50" cy="50" r="45.3"/>
<g>
	<path class="st1" d="M50,56.7c5.1,0,9.7-3.7,12.6-9.3c1.5-3.1,2.6-6.8,2.9-10.8c0.1-0.8,0.2-1.4,0.2-2.2l-1-0.2h-0.2l-5.2-0.7
		c2.9-1.6,1.4-5.3,0.7-6.5c-0.2-0.4-0.4-0.6-0.4-0.6l-0.1,0.1c-8.2,5.9-14.9,8.1-14.9,8.1c-3.7,1.4-9.9,2.5-9.9,2.5
		C35.7,48.2,42.2,56.7,50,56.7z"/>
	<linearGradient id="SVGID_1_" gradientUnits="userSpaceOnUse" x1="9.2863" y1="68.4666" x2="90.1075" y2="27.3525">
		<stop  offset="0" style="stop-color:#FFFFFF;stop-opacity:0.3"/>
		<stop  offset="1" style="stop-color:#FFFFFF"/>
	</linearGradient>
	<path class="st2" d="M22.7,63.1c1.7-1.5,3.8-2.9,5.9-3.9c-2.9,0.1-5,0.2-5,0.2c7.9-4.3,7.7-20,7.7-20C30.1,12,46.4,10.8,49.5,10.8
		c0.3,0,0.5,0,0.5,0l0,0l0,0c0,0,0.2,0,0.5,0c3.1,0,19.4,1.3,18.2,28.8c0,0-0.2,15.7,7.7,20c0,0-3.5-0.7-7.4-1.2
		c3.1,1,6,2.6,8.4,4.7c4.3,3.9,7.2,9.3,7.7,15.5c6.4-7.8,10.2-17.8,10.2-28.7C95.3,24.9,75,4.6,50,4.6S4.7,25,4.7,50
		c0,10.9,3.9,20.9,10.2,28.7C15.4,72.5,18.3,67,22.7,63.1z"/>
</g>
</svg>
