<?xml version="1.0" encoding="utf-8"?>
<!-- Generator: Adobe Illustrator 25.1.0, SVG Export Plug-In . SVG Version: 6.00 Build 0)  -->
<svg version="1.1" id="Layer_1" xmlns="http://www.w3.org/2000/svg" xmlns:xlink="http://www.w3.org/1999/xlink" x="0px" y="0px"
	 viewBox="0 0 256 256" style="enable-background:new 0 0 256 256;" xml:space="preserve">
<style type="text/css">
	.st0{fill:#FFFFFF;}
</style>
<g>
	<g>
		<path class="st0" d="M17.5,155.9c1.1-13.5,10.1-26,20.5-33.9c0.6,0.4,1,1,0.9,1.7c-0.4,2.3-0.8,4.6-1.1,6.9
			c-0.3,2.5-0.7,5.1-0.9,7.6c-0.3,3.6-0.5,7.2-0.8,10.8c0,0.2,0,0.4,0,0.6c0.1,0.1,0.2,0.2,0.3,0.2c0.1-0.2,0.2-0.5,0.4-0.7
			c2.8-3,5.6-6,8.3-9.1c3.4-4,7.7-6.8,12.1-9.5c1.3-0.8,2.6-1.4,3.9-2.2c-1.5,5.2-2,10.4-3.1,15.5c0.1,0,0.1,0.1,0.2,0.1
			c0.3-0.2,0.5-0.3,0.8-0.5c3.3-2.3,6.5-4.6,9.8-6.8c3-2,6.3-2.1,9.8-1.2c-1,1.1-1.9,2.1-2.8,3.1c-4.7,5.5-8.3,11.5-10.6,18.3
			c-1.6,5-2.4,10.1-2.1,15.3c0.5,7.9,3.2,15,9.3,20.4c3.9,3.4,8.4,5.3,13.6,5.7c5.2,0.4,9.9-1,14.3-3.5c5.7-3.2,10.4-7.6,14.5-12.6
			c1.9-2.3,3.5-4.9,5.2-7.3c0.1-0.2,0.3-0.4,0.5-0.7c2.2,1.8,4.3,3.5,6.4,5.2c3.7,3.1,7.4,6.3,11.1,9.4c1.3,1.1,1.3,1.1,0.5,2.6
			c-4.4,8.4-9.7,16.2-16.5,22.8c-8,7.7-17.3,13.1-28.2,15.5c-5.1,1.1-10.3,1.7-15.6,1.4c-10.9-0.5-20.8-4-29.6-10.5
			c-3.8-2.8-6.8-6.4-9.6-10.1c-0.4-0.5-0.8-1-1.3-1.4c-1.2-1.1-2.7-0.6-2.9,1c-0.2,1.1-0.1,2.4,0.1,3.5c0.2,1.5,0.7,2.9,1.1,4.3
			c0.1,0.2,0.1,0.4,0.2,0.6c-0.1,0-0.1,0.1-0.2,0.1c-1.3-1.5-2.7-2.9-4-4.5c-6.1-7.3-9.7-15.7-11.1-25.1c-1.7-11.2-0.4-22.1,3-32.8
			c0.4-1.2,0.6-2.5,0.7-3.7c0.1-1.3-0.9-2-2.1-1.3c-1.2,0.8-2.3,1.8-3.4,2.7C18.5,154.7,18.1,155.3,17.5,155.9z"/>
		<path class="st0" d="M100.9,127.6c0.1,0.7,0.1,1.5,0.4,2.2c0.8,2.7,2.7,4.2,5.2,5.3c2.1,0.9,4.4,1,6.6,1.3c1.6,0.2,3.3,0.5,4.8,1
			c2.1,0.7,3.3,2.4,3.8,4.5c0.4,1.5,0.6,2.9,0.9,4.4c0.1,0.4,0.2,0.7,0.3,1.1c0.6,2,2.1,3,4.1,3.2c2.1,0.1,4.1,0.3,6.2,0.4
			c2.9,0.3,5.4,1.3,7.6,3.2c8.4,6.9,16.8,13.8,25.1,20.7c2,1.6,4.2,2.9,6.7,3.3c5.7,1,11.1-2.9,11.9-8.6c0.3-1.7,0.2-3.4-0.3-5.1
			c0-0.2-0.1-0.3-0.1-0.5c0,0,0,0,0.1-0.1c1.7,1,3.2,2.3,4.3,3.8c4.6,6.2,5.7,13,3.1,20.4c-0.8,2.3-2.2,4.2-4.2,5.7
			c-0.1,0.1-0.2,0.1-0.3,0.2c0,0.1,0.1,0.2,0.1,0.3c1.4,0.1,2.7,0.3,4.1,0.4c4,0,7.8-0.7,11.4-2.5c3.8-1.9,6.7-4.7,7.7-9
			c1.2-5.4-0.7-9.8-4.8-13.3c-1.8-1.5-3.8-2.6-6-3.2c0-0.1,0-0.2,0-0.2c2.2,0.1,4.4,0,6.6,0.3c6.1,0.8,11.5,3,16.2,7
			c4.8,4.2,8,9.4,8.8,15.7c1,7.7-1.4,14.5-6.7,20.1c-5.1,5.4-11.5,8.4-18.9,9.1c-2.4,0.2-4.8,0-7.3,0c-0.2,0-0.3,0-0.6,0.1
			c2.9,2.6,6.4,3.9,10,4.7c3.7,0.8,7.4,1.1,11.2-0.2c-0.9,1.4-2,2.5-3.1,3.5c-4,3.3-8.6,5.4-13.6,6.8c-6.8,1.8-13.6,2-20.4-0.3
			c-7.4-2.6-12.6-7.7-16-14.7c-1.6-3.3-2.7-6.8-2.9-10.5c0-0.1,0-0.1-0.1-0.2c-4.4,3.3-7.2,14.4-0.3,22c-2.6-0.7-4.9-2-6.9-3.5
			c-4.5-3.4-7.4-7.9-8.2-13.5c-0.4-2.5-0.2-5.2-0.2-7.7c0.1-3.3,0.5-6.5,0.1-9.8c-0.5-4.5-2.6-8.1-6-11c-6.7-5.6-13.4-11.1-20-16.7
			c-1.2-1-2.3-2.1-3.4-3.2c-2.9-3.1-4.4-6.9-4.6-11.2c0-0.8-0.1-1.6-0.2-2.4c-0.2-2.4-1.3-4.3-3.1-5.9c-1.6-1.4-3.4-2.7-5.1-4.1
			c-2-1.6-3.7-3.3-4.4-5.8c-0.6-2.3-0.6-4.5,0.2-6.8c0.1-0.2,0.2-0.4,0.2-0.6C100.8,127.6,100.9,127.6,100.9,127.6z"/>
		<path class="st0" d="M89.4,108.8c-7.8-3-26.6,2.6-30.2,8.9c3.3,0.3,6.5,0.8,9.7,1.8c-5,1.2-9.5,3.4-13.9,5.9
			c-4.4,2.5-8.5,5.4-12.3,9.1c0.4-1.8,0.8-3.4,1-5.1c0.3-2,0.7-3.9,0.7-5.9c0-3-1.4-5.2-4.1-6.6c-1.9-1-4.1-1.3-6.2-1.4
			c-3-0.1-6,0.3-9,0.8c1.1-0.9,2.2-1.8,3.3-2.7c3.6-2.7,7.6-4.7,11.6-6.9c2.4-1.3,4.8-2.8,7.2-4.2c0.2-0.1,0.4-0.3,0.6-0.4
			c2.1-1.7,2.5-3.3,1.2-5.7c-1.7-3.1-4.2-5.4-6.9-7.5c-0.7-0.6-1.5-1-2.4-1.6c5.6-0.1,11.1,0.1,16.6,1.6c-2.9-5.1-3.7-10.4-2.2-16
			c0.1,0,0.2,0.1,0.2,0.1c2.1,4.6,5.5,8.1,9.6,10.8c3.9,2.6,8,4.9,12.1,7.3c3.1,1.9,6.2,3.8,8.7,6.5c1,1.1,1.9,2.4,3,3.8
			c-0.4-1-0.6-1.9-1-2.7c-2.1-4.6-5.5-8.1-9.7-10.8c-0.7-0.4-1-0.9-1.2-1.7c-1-3.3-1.2-6.7-1-10.1c0.2-4.1,0.8-8.1,2.3-11.9
			c0.5-1.3,1-2.5,2-3.6c0.1,1.5,0.1,3,0.4,4.5c0.6,4,2.3,7.6,4.6,10.9c3.3,4.7,7.4,8.6,11.6,12.5c4.3,3.9,8.5,7.8,12.7,11.9
			c2.1,2.1,3.9,4.5,5.4,7.1c0.1,0.1,0.2,0.2,0.4,0.3c-0.1-0.3-0.2-0.5-0.3-0.8c-1.6-4.2-4-7.8-7.1-11c-3.9-3.9-7.9-7.6-11.9-11.4
			c-1.4-1.3-2.7-2.7-4-4c-0.7-0.7-1.1-1.5-1.3-2.4c-1-5-0.5-9.8,1.7-14.4c0.1-0.3,0.3-0.6,0.6-0.8c0,0.5,0.1,1.1,0.1,1.6
			c0.3,5.1,2.4,9.4,5.3,13.4c3.4,4.8,7.7,8.7,11.9,12.7c3.1,2.9,6.2,5.8,9.1,8.9c3.4,3.6,6,7.8,7.3,12.6c0.7,2.4,0.9,4.9,0.5,7.5
			c0,0.3,0.1,0.7,0.3,0.8c2.7,1.1,4.3,2.8,4.2,6c3.2-1.1,5.3-3.3,6.9-6.1c0.9,2,0,8.7-1.8,13c-2,4.8-4.9,8.9-9.6,11.6
			c0.1-1,0.3-1.9,0.4-2.8c0.1-4.6-1.9-7.4-6.3-8.7c-3.1-0.9-6.2-1.1-9.4-1.1c-0.3,0-0.6,0-1,0c0.2-0.3,0.3-0.5,0.4-0.8
			c0.9-1.6,1.6-3.2,1.9-4.9c0.3-2-0.4-3.2-2.3-3.7c-2.1-0.6-4.3-0.7-6.5-0.7c-5.6,0.1-11,0.8-16.4,2.2c-0.5,0.1-1,0.3-1.5,0.6
			c3.5,0.1,7.1,0.4,10.4,1.4c-0.7,1.7-1.5,3.4-1.9,5.1c-0.4,1.5-0.6,3.1-0.7,4.6c-0.1,0.4,0.1,0.9,0.3,1.3c0.5,1.3,1.8,1.8,3,1.2
			c0.8-0.4,1.5-1,2.1-1.5c-0.3,1.4-0.7,3-1,4.5c-0.2,0.9-0.2,1.9-0.3,2.9c0,2.3,1.1,3.5,3.5,3.5c1,0,2.1-0.2,3.4-0.3
			c-0.7,1.1-1.3,2.1-2,2.9c-2.5,3-5.9,5-9.6,6.3c-2,0.7-4.1,1.1-6.1,1.5c-0.5,0.1-1,0.1-1.6,0.1c3.1-2.1,5.5-4.4,6.9-7.9
			c-2.8,0.9-5.5,1.2-8.2,1c0.2-0.2,0.5-0.4,0.7-0.6c4-3.3,5.7-9.7,3.8-14.6c-1.4-3.4-4-5.4-7.5-6.4c-4.8-1.4-9.5-1-13.9,1.6
			c-0.1,0-0.1,0.1-0.4,0.2c2.8-6.6,7.4-11.3,13.7-14.4c0-0.1,0-0.2,0-0.2c-3.3-0.8-6.6-1.7-10-2.5c2.8-2.1,6.1-3.3,9.5-4.3
			C82.3,109.6,85.7,108.9,89.4,108.8z M102.3,107.1c0,0.3,0,0.4,0.1,0.6c0.6,1.6,1.2,3.3,1.9,4.8c0.7,1.5,1.7,2.7,3.1,3.6
			c1.5,1,3.2,1.4,5.1,1.3C110.5,112.6,107.3,109.1,102.3,107.1z"/>
		<path class="st0" d="M68.9,80.4c-4.1-2.7-8-5.5-9.9-10.3c-1.7-4.2-3.5-8.4-5.3-12.6c-0.1-0.3-0.2-0.6-0.5-1
			c-0.2,0.7-0.4,1.3-0.6,1.8c-1.3,4.2-2.7,8.4-4,12.6c-1,3-1.3,6.2-0.9,9.3c0,0.3,0,0.7-0.1,1.1c-0.1-0.2-0.3-0.4-0.4-0.6
			c-2.3-3.8-3.7-7.9-4.3-12.3c-0.8-5.8-0.5-11.5,0.9-17.2c2.2-8.2,6.8-14.9,13.3-20.3c6.2-5.2,13.4-8.2,21.4-9.4
			c8.9-1.3,17.7-1,26.2,1.9c13.9,4.7,22.4,14.3,25.6,28.6c2,9.1,0.6,17.9-2.8,26.4c-2,4.9-4.4,9.6-7.5,13.9
			c-0.1,0.2-0.2,0.3-0.5,0.7c-0.6-0.7-1.1-1.3-1.7-1.9c-4-3.8-8.1-7.6-12.1-11.5c-1.6-1.6-2.9-3.4-4.3-5.2c-0.4-0.4-0.4-0.9-0.1-1.4
			c2.5-4.9,3.5-10.1,3-15.6c-0.4-4.6-1.9-8.9-5.3-12.2c-3.6-3.5-8-4.7-12.9-3.8c-7.3,1.3-11.5,6.2-13.3,13.1
			c-0.5,1.8-0.4,3.7-0.6,5.6c-0.1,0.5-0.1,1-0.3,1.4c-1.5,3.9-2.4,7.9-2.7,12c-0.1,2.2,0,4.4,0,6.7C69.1,80.3,69,80.4,68.9,80.4z"/>
		<path class="st0" d="M193.3,110.1c-2.1,0-4.2-0.2-6.3,0c-14,1.6-25.9,7.8-36.2,17.1c-0.8,0.7-1.5,1.4-2.2,2.2
			c-0.7,0.7-1.4,1.5-2,2.2c0-7.2,16-27.5,24.2-30.8c-0.8,1.2-1.6,2.3-2.3,3.5c-0.6,1-1.1,2-1.4,3.1c-0.5,1.5,0.4,2.4,2,1.9
			c0.9-0.3,1.8-0.8,2.6-1.4c2.7-2.1,5.4-4.4,8.1-6.5c3.5-2.7,7.2-5,11.6-6c0.9-0.2,1.9-0.3,2.9-0.5c0,0.1,0,0.1,0.1,0.2
			c-0.4,0.3-0.9,0.5-1.3,0.8c-1.6,1.1-3.2,2.2-4.7,3.4c-0.6,0.4-1,1.1-1.3,1.8c-0.6,1.4,0.3,2.6,1.8,2.4c0.9-0.1,1.9-0.4,2.8-0.7
			c3.2-1,6.3-2.1,9.6-2.6c4.1-0.6,8.2-0.6,12.3,0.3c9.6,2,17.7,6.7,24.7,13.5c0.1,0.1,0.3,0.3,0.4,0.5c0,0,0,0.1,0.1,0.2
			c-2.8-0.7-5.6-0.9-8.4-0.7c-7.4,0.4-14.5,1.9-21.2,5.1c-1.1,0.5-2.1,1.2-3.1,1.9c-0.3,0.2-0.6,0.3-0.9,0.1
			c-3.4-2.4-7.3-3.4-11.4-3.6c-7.7-0.2-14.6,2.1-20,7.7c-3.1,3.2-5.7,6.8-8.3,10.3c-4.7,6.5-8.5,13.5-11.9,20.7
			c-0.1,0.2-0.2,0.5-0.4,0.7c-0.2-0.2-0.4-0.3-0.6-0.4c-2.6-2.1-5.2-4.2-7.8-6.4c-1.7-1.5-3.7-2.6-5.8-3.4c-0.2-0.1-0.3-0.1-0.5-0.2
			c0.1-0.2,0.2-0.3,0.3-0.4c6.9-9.1,14.7-17.2,24-23.8c6.9-4.9,14.4-8.8,22.8-10.7C187.9,110.9,190.6,110.6,193.3,110.1
			C193.3,110.1,193.3,110.1,193.3,110.1z"/>
	</g>
</g>
</svg>
