<?xml version="1.0" encoding="utf-8"?>
<!-- Generator: Adobe Illustrator 25.4.1, SVG Export Plug-In . SVG Version: 6.00 Build 0)  -->
<svg version="1.1" id="Layer_1" xmlns="http://www.w3.org/2000/svg" xmlns:xlink="http://www.w3.org/1999/xlink" x="0px" y="0px"
	 viewBox="0 0 100 100" style="enable-background:new 0 0 100 100;" xml:space="preserve">
<style type="text/css">
	.st0{fill:#FFFFFF;}
</style>
<path class="st0" d="M35.2,91.5c-4.1,0-8-1-11.5-3c-1.2,0.8-2.7,1.4-4.4,1.8c-2.2,0.6-5.4,0.9-8-0.7l-2.1-1.3l2.1-1.3
	c2-1.2,3.9-2.8,5.4-4.5c-3.3-4.1-5.1-9.3-5.1-14.7c0-8.3,4.2-15.8,11.2-20.1c-2.1-2.7-3.2-6-3.2-9.5c0-4.3,1.7-8.3,4.8-11.3
	c-0.7-1.5-1.5-2.9-2.6-4.4l-0.2-0.3c-0.4-0.4-0.7-0.9-1-1.1l-0.2-0.1C20.2,21,20.2,21,20.1,21c-0.1,0-0.2-0.1-0.5-0.1L9.4,18.3
	l10.5-0.4c2.6-0.1,8.4,1.4,11,5.2c1.4-0.4,2.8-0.6,4.2-0.6c3.2,0,6.2,0.9,8.7,2.6C46.7,15.4,55.7,8.5,66,8.5c4,0,7.9,1,11.3,3
	c1.4-0.6,2.8-1,4.1-1.2c2.8-0.3,5.6,0.6,7.5,2.3l1.6,1.4l-1.9,1c-1.5,0.8-2.9,1.8-4.2,2.9c2.9,3.9,4.5,8.7,4.5,13.6
	c0,8.3-4.3,15.7-11.4,19.8c3,2.9,4.6,6.9,4.6,11.1c0,3.7-1.2,7.2-3.5,10c1.1,3.4,3.3,6.5,6.2,8.6l2.7,2l-3.3,0.7
	c-3.3,0.7-6.7,0-9.3-1.9c-1.5-1.1-2.8-2.7-3.5-4.5c-4.8,1.6-9.8,0.8-13.9-2C54.5,84.9,45.6,91.5,35.2,91.5z M23.5,84.9l0.9,0.5
	c3.3,2,6.9,3.1,10.8,3.1c9.7,0,18-6.6,20.1-16.1l0.6-2.5l1.9,1.8c2.5,2.3,5.5,3.5,8.8,3.5c1.8,0,3.5-0.4,5.3-1.2l1.7-0.8L74,75
	c0.3,1.7,1.4,3.4,2.8,4.4c1,0.8,2.2,1.2,3.5,1.5c-2.2-2.4-3.8-5.3-4.7-8.4l-0.2-0.8l0.6-0.6c2.1-2.3,3.3-5.4,3.3-8.6
	c0-4-1.9-7.7-5.2-10.2l-2-1.5l2.3-1.1C81.5,46.4,86,39.4,86,31.5c0-4.7-1.7-9.3-4.7-12.8l-0.9-1.1l1-1c1.1-1.1,2.3-2,3.6-2.9
	c-1-0.4-2.1-0.5-3.3-0.4c-1.2,0.2-2.5,0.6-3.9,1.2l-0.8,0.4l-0.7-0.4c-3.1-1.9-6.7-3-10.4-3c-9.7,0-18,7-19.7,16.6l-0.5,2.8l-2-1.9
	c-2.3-2.2-5.3-3.4-8.6-3.4c-1.5,0-2.9,0.3-4.4,0.8l-1.3,0.5l-0.6-1.2c-0.7-1.5-2.2-2.6-3.9-3.4c1,1.5,1.8,3.1,2.4,4.6l0.4,1
	l-0.8,0.7c-2.9,2.4-4.6,6-4.6,9.8c0,3.3,1.3,6.5,3.6,8.9l1.4,1.5l-1.8,0.9C18.8,53,14.5,60,14.5,67.8c0,5.2,1.8,9.9,5.2,13.7
	l0.8,0.9l-0.8,1c-1.2,1.6-2.7,3-4.3,4.3c1.2,0,2.3-0.2,3.1-0.4c1.8-0.4,3.1-1,4.2-1.8L23.5,84.9z M54.1,59.1l-1.4-2.3
	c-1.9-3.1-4.7-5.6-8-7.4L43,48.5l1.3-1.4c1.2-1.3,2-2.6,2.6-4l1.1-2.6l1.6,2.3c2.1,3.1,5.2,5.7,8.7,7.2l2.3,1l-2,1.6
	c-1.4,1.1-2.5,2.5-3.3,4.1L54.1,59.1z M47.7,47.7c2.4,1.5,4.5,3.4,6.2,5.6c0.4-0.5,0.8-1,1.2-1.4c-2.5-1.4-4.7-3.2-6.5-5.3
	C48.3,46.9,48,47.3,47.7,47.7z"/>
<circle class="st0" cx="25" cy="68.5" r="3.3"/>
<circle class="st0" cx="34.5" cy="68.5" r="3.3"/>
<circle class="st0" cx="44" cy="68.5" r="3.3"/>
<circle class="st0" cx="57" cy="31.5" r="3.3"/>
<circle class="st0" cx="66.5" cy="31.5" r="3.3"/>
<circle class="st0" cx="75.9" cy="31.5" r="3.3"/>
<circle class="st0" cx="28.9" cy="37.5" r="1.6"/>
<circle class="st0" cx="34.5" cy="37.5" r="1.6"/>
<circle class="st0" cx="40.1" cy="37.5" r="1.6"/>
<circle class="st0" cx="60.8" cy="62.8" r="1.6"/>
<circle class="st0" cx="66.5" cy="62.8" r="1.6"/>
<circle class="st0" cx="72.1" cy="62.8" r="1.6"/>
</svg>
