<svg height='100px' width='100px'  fill="#ffffff" xmlns:x="http://ns.adobe.com/Extensibility/1.0/" xmlns:i="http://ns.adobe.com/AdobeIllustrator/10.0/" xmlns:graph="http://ns.adobe.com/Graphs/1.0/" xmlns="http://www.w3.org/2000/svg" xmlns:xlink="http://www.w3.org/1999/xlink" version="1.1" x="0px" y="0px" viewBox="0 0 100 100" style="enable-background:new 0 0 100 100;" xml:space="preserve"><g><g i:extraneous="self"><g><path d="M80,11.1c-1.7-1.6-3.7-3.2-5.9-4.6C72,5,69.7,3.9,67.5,3c-2.9-1.2-6.2-0.1-7.9,2.6L22.8,62.3c-0.1,0.2-0.2,0.5-0.3,0.7     l-2.9,22.6c-0.1,1.1,0.4,2.2,1.3,2.8c0.5,0.3,1,0.5,1.6,0.5c0.5,0,1-0.1,1.5-0.4l19.5-11.9c0.2-0.1,0.4-0.3,0.6-0.5l36.8-56.7     C82.6,16.7,82.2,13.2,80,11.1z M26.3,80.1c-0.8-0.5-1.5-0.8-2.3-1l1.9-14.5c2.6,0.8,5.3,2.2,8,3.9c2.7,1.7,5,3.7,6.8,5.7     l-12.5,7.6C27.6,81.2,27,80.6,26.3,80.1z M77.9,17.5L42.8,71.5c-1.9-2.1-4.4-4.1-7.1-5.9c-2.8-1.8-5.6-3.2-8.3-4.1L62.5,7.5     c0.8-1.3,2.4-1.8,3.7-1.3c2,0.8,4,1.9,6,3.2c2,1.3,3.8,2.7,5.4,4.2C78.6,14.6,78.7,16.2,77.9,17.5z"></path><path d="M67.2,11.3c-0.8-0.5-1.9-0.3-2.4,0.5L34.6,58.2c-0.5,0.8-0.3,1.9,0.5,2.4c0.3,0.2,0.6,0.3,1,0.3c0.6,0,1.1-0.3,1.5-0.8     l30.2-46.5C68.2,12.9,68,11.8,67.2,11.3z"></path><path d="M78.8,94h-59c-1,0-1.7,0.8-1.7,1.7s0.8,1.7,1.7,1.7h59c1,0,1.7-0.8,1.7-1.7S79.8,94,78.8,94z"></path></g></g></g></svg>