<svg height='100px' width='100px'  fill="#ffffff" xmlns="http://www.w3.org/2000/svg" data-name="Layer 1" viewBox="0 0 100 100" x="0px" y="0px"><title>interface collection</title><path d="M22.5,57.75V10a2.5,2.5,0,1,0-5,0V57.75a12.5,12.5,0,0,0,0,24.5V90a2.5,2.5,0,0,0,5,0V82.25a12.5,12.5,0,0,0,0-24.5ZM20,77.5A7.5,7.5,0,1,1,27.5,70,7.51,7.51,0,0,1,20,77.5Z"></path><path d="M92.5,70a12.52,12.52,0,0,0-10-12.25V10a2.5,2.5,0,1,0-5,0V57.75a12.5,12.5,0,0,0,0,24.5V90a2.5,2.5,0,1,0,5,0V82.25A12.52,12.52,0,0,0,92.5,70ZM80,77.5A7.5,7.5,0,1,1,87.5,70,7.51,7.51,0,0,1,80,77.5Z"></path><path d="M53,17.88V10a2.5,2.5,0,1,0-5,0v7.68a12.49,12.49,0,0,0-.5,24.57V90a2.5,2.5,0,1,0,5,0V42.25A12.49,12.49,0,0,0,53,17.88ZM50,37.5A7.5,7.5,0,1,1,57.5,30,7.51,7.51,0,0,1,50,37.5Z"></path></svg>