<svg height='100px' width='100px'  fill="#002337" xmlns="http://www.w3.org/2000/svg" viewBox="0 0 24 24" x="0px" y="0px"><g data-name="2 Filter"><path d="M21.88,2.52A1,1,0,0,0,21,2H3a1,1,0,0,0-.84,1.54L9,14.18V21a1,1,0,0,0,.47.85A1,1,0,0,0,10,22a1,1,0,0,0,.45-.11l4-2A1,1,0,0,0,15,19V14.18L21.84,3.54A1,1,0,0,0,21.88,2.52ZM13.16,13.35s0,.05,0,.08a1.34,1.34,0,0,0-.07.18.71.71,0,0,0,0,.2.24.24,0,0,0,0,.08v4.49l-2,1V13.89a.24.24,0,0,0,0-.08.71.71,0,0,0,0-.2,1.34,1.34,0,0,0-.07-.18s0-.06,0-.08L4.83,4H19.17Z"></path></g></svg>