<?xml version="1.0" encoding="utf-8"?>
<!-- Generator: Adobe Illustrator 25.2.3, SVG Export Plug-In . SVG Version: 6.00 Build 0)  -->
<svg version="1.1" id="Layer_1" xmlns="http://www.w3.org/2000/svg" xmlns:xlink="http://www.w3.org/1999/xlink" x="0px" y="0px"
	 viewBox="0 0 256 256" style="enable-background:new 0 0 256 256;" xml:space="preserve">
<style type="text/css">
	.st0{fill:#002337;}
</style>
<g>
	<path class="st0" d="M122.6,196.4v-59.1H63.1v59.1H39.8v-136h23.3v55h59.5v-55h23.1v136H122.6z"/>
	<path class="st0" d="M168.3,196.4c0-16.1,8-28.4,24.1-36.9c3.3-1.7,5.9-3.5,7.8-5.4c1.9-1.8,2.8-4.1,2.8-6.8c0-2.7-1-4.8-2.9-6.5
		c-1.9-1.7-4.4-2.5-7.5-2.5c-6.1,0-10.3,2.8-12.7,8.4l-10.5-4.8c1.8-4.5,4.8-8,8.9-10.7c4.1-2.7,8.9-4,14.2-4
		c6.8,0,12.2,1.9,16.2,5.6c4,3.8,6,8.6,6,14.5c0,5.3-1.3,9.5-4,12.6c-2.7,3.1-6.8,6.2-12.5,9.3c-4.7,2.6-8.4,5.1-10.9,7.6
		c-2.5,2.5-4.2,5.2-5.1,8.4h33v11.3H168.3z"/>
</g>
</svg>
