<?xml version="1.0" encoding="utf-8"?>
<!-- Generator: Adobe Illustrator 25.4.1, SVG Export Plug-In . SVG Version: 6.00 Build 0)  -->
<svg version="1.1" id="Layer_1" xmlns="http://www.w3.org/2000/svg" xmlns:xlink="http://www.w3.org/1999/xlink" x="0px" y="0px"
	 viewBox="0 0 100 100" style="enable-background:new 0 0 100 100;" xml:space="preserve">
<style type="text/css">
	.st0{fill:#ffffff;}
</style>
<g>
	<path class="st0" d="M54.4,40.6h-8.8c0.9,2.4,3.5,3.7,6,2.9C52.9,43,53.9,42,54.4,40.6z"/>
	<path class="st0" d="M42.3,40.6h-3.2c0.9,6,6.4,10.1,12.4,9.3c4.8-0.7,8.6-4.5,9.3-9.3h-3.2c-0.9,4.2-5,7-9.2,6.1
		C45.4,46.1,43,43.7,42.3,40.6z"/>
	<path class="st0" d="M50,53.1c-7.2,0-13.2-5.4-14-12.5h-3.1c0.9,9.5,9.2,16.4,18.7,15.6c8.3-0.7,14.8-7.3,15.6-15.6H64
		C63.2,47.7,57.2,53.1,50,53.1z"/>
	<path class="st0" d="M50,21.9c-8.9,0-16.3,6.8-17.1,15.6h34.2C66.3,28.7,58.9,21.9,50,21.9z M40.6,34.4h-3.1C37.5,27,45.7,25,50,25
		v3.1C49.6,28.1,40.6,28.2,40.6,34.4z"/>
	<path class="st0" d="M50,6.2c-16.4,0-29.7,13.3-29.7,29.7v46.9c0,2.6,2.1,4.7,4.7,4.7s4.7-2.1,4.7-4.7V75h3.1
		c0,2.6,2.1,4.7,4.7,4.7s4.7-2.1,4.7-4.7h3.1v14.1c0,2.6,2.1,4.7,4.7,4.7c2.6,0,4.7-2.1,4.7-4.7V68.8h3.1c0,2.6,2.1,4.7,4.7,4.7
		c2.6,0,4.7-2.1,4.7-4.7h3.1v17.2c0,2.6,2.1,4.7,4.7,4.7s4.7-2.1,4.7-4.7l0,0v-50C79.7,19.5,66.4,6.3,50,6.2z M32.8,71.9h-3.1v-3.1
		h3.1V71.9z M70.3,65.6h-3.1v-3.1h3.1V65.6z M50,59.4c-11.2,0-20.3-9.1-20.3-20.3S38.8,18.8,50,18.8s20.3,9.1,20.3,20.3
		C70.3,50.3,61.2,59.4,50,59.4z M69,22.7c-5.7-10-18.8-10.2-19-10.2V9.4c0.6,0,15,0.1,21.7,11.7L69,22.7z"/>
	<path class="st0" d="M10.9,9.4c-3.5,0-6.2,2.8-6.2,6.2s2.8,6.2,6.2,6.2s6.2-2.8,6.2-6.2S14.4,9.4,10.9,9.4z M10.9,18.8
		c-1.7,0-3.1-1.4-3.1-3.1s1.4-3.1,3.1-3.1s3.1,1.4,3.1,3.1S12.7,18.8,10.9,18.8z"/>
	<path class="st0" d="M96.9,10.9c0-4.3-3.5-7.8-7.8-7.8s-7.8,3.5-7.8,7.8s3.5,7.8,7.8,7.8C93.4,18.7,96.9,15.3,96.9,10.9z
		 M84.4,10.9c0-2.6,2.1-4.7,4.7-4.7s4.7,2.1,4.7,4.7s-2.1,4.7-4.7,4.7S84.4,13.5,84.4,10.9z"/>
	<path class="st0" d="M92.2,51.6c-3.5,0-6.2,2.8-6.2,6.2s2.8,6.2,6.2,6.2s6.2-2.8,6.2-6.2S95.6,51.6,92.2,51.6z M92.2,60.9
		c-1.7,0-3.1-1.4-3.1-3.1s1.4-3.1,3.1-3.1s3.1,1.4,3.1,3.1S93.9,60.9,92.2,60.9z"/>
	<path class="st0" d="M7.8,37.5c-2.6,0-4.7,2.1-4.7,4.7s2.1,4.7,4.7,4.7s4.7-2.1,4.7-4.7S10.4,37.5,7.8,37.5z M7.8,43.8
		c-0.9,0-1.6-0.7-1.6-1.6s0.7-1.6,1.6-1.6s1.6,0.7,1.6,1.6S8.7,43.8,7.8,43.8z"/>
</g>
</svg>
