<svg height='100px' width='100px'  fill="#ffffff" xmlns="http://www.w3.org/2000/svg" xmlns:xlink="http://www.w3.org/1999/xlink" version="1.1" x="0px" y="0px" viewBox="0 0 512 512" style="enable-background:new 0 0 512 512;" xml:space="preserve"><g><path d="M225.3,68.6c1.5,13.8,6.9,27.4,16.3,41.7c2.9,4.3,6,8.6,9,12.8c5.3,7.4,10.8,15,15.4,23.2c1.7,3,3.3,6.2,5.1,10.1l0,0   c0,0.1,0.1,0.2,0.1,0.2l0.4,0.9c0,0.1,0.1,0.1,0.1,0.2l0.4,1.1c0,0.1,0.1,0.1,0.1,0.2c0.9,2.4,1.7,4.5,2.4,6.6   c2.5,7.4,4.5,15.2,5.8,23c0.1,0.7,0.2,1.4,0.3,2c0,0.1,0,0.1,0,0.2c0,0.3,0.1,0.8,0.1,1.3c0.2,2.2,0.4,4.5,0.6,6.9   c0.1,2.2,0.2,4.4,0.2,6.7h18.9c-0.2-18-3.7-35.8-10.2-51.8c-1.3-3.2-2.7-6.4-4.4-9.7c-1.1-2.2-1-4.7,0.3-6.8   c0.7-1.2,1.4-2.3,2.1-3.3c0.6-0.9,1.3-1.8,1.9-2.7c0.2-0.2,0.6-0.8,1-1.3l0.4-0.6c0.1-0.1,0.1-0.2,0.2-0.2c3-3.6,6.2-7.1,9.5-10.2   c1.7-1.6,3.5-3.1,4.9-4.4l0.7-0.6c0.1-0.1,0.2-0.2,0.3-0.3c0.9-0.7,1.9-1.4,3-2.2c4.1-2.9,8.4-5.4,12.9-7.7c1-0.5,2-1,3.1-1.5   l0.6-0.3c0.2-0.1,0.6-0.3,1-0.4c0,0,0.1,0,0.1,0c0.1,0,0.1,0,0.2-0.1c0,0,0,0,0.1,0c0,0,0.1,0,0.1,0l0.4-0.2l0,0   c1.8-0.7,3.4-1.2,4.8-1.7c4.5-1.5,9.2-2.4,13.3-3.3l0.5-0.1c0.3-0.1,0.5-0.1,0.8-0.1c0,0,0.1,0,0.1,0c0.4,0,0.8-0.1,1.2-0.1   c0.5-0.1,1.1-0.1,1.6-0.2c2.3-0.2,4.6-0.3,6.9-0.3c3.8-0.1,7.9,0.1,12.5,0.6c0.4,0,0.8,0.1,1.1,0.2c0.3,0,0.7,0.1,1,0.2   c1,0.1,1.9,0.3,2.4,0.4c2.2,0.4,4.5,1,6.7,1.6c2.2,0.6,4.4,1.3,6.6,2.1c0.7,0.2,1.3,0.5,2,0.7l0.8,0.3c0.2,0.1,0.3,0.1,0.5,0.2   c0.4,0.1,0.7,0.3,1,0.5c0.1,0.1,0.3,0.2,0.5,0.3l0.5,0.2c3.3,1.7,6.7,3.4,10.1,5.6c0.9,0.6,1.7,1.1,2.5,1.7   c0.1,0.1,0.2,0.2,0.3,0.3c0.2,0.2,1.4,1,1.8,1.4c0.1,0.1,0.3,0.2,0.4,0.3l0.8,0.7c1.2,1,2.3,2.1,3.4,3.1c1.7,1.7,3.4,3.4,4.8,5.1   c0.5,0.6,1,1.2,1.5,1.7c0.1,0.2,0.3,0.4,0.4,0.6l0.3,0.4c2.5,3.8,4.7,7.5,6.6,11.5l0.2,0.3c0.1,0.2,0.2,0.4,0.2,0.6   c0.4,1,0.8,2,1.1,3c0.7,1.9,1.2,3.8,1.8,5.7c0.6,2.2,1.1,4.4,1.5,6.6c0.1,0.6,0.2,1.3,0.3,1.9l0.1,0.9c0.1,0.5,0.1,1,0.1,1.5   c0,0.1,0,0.1,0,0.2c0.4,4.8,0.2,9.5-0.1,13.6c0,0.6,0,1.1-0.1,1.7l0,0.1c-0.1,0.4-0.2,1.1-0.3,1.7c-0.1,0.7-0.3,1.5-0.4,2.2   c-0.5,2.4-1.2,4.9-1.9,7.2c-0.3,0.9-0.6,1.9-1,2.8c-0.1,0.2-0.3,0.8-0.6,1.5c-0.2,0.4-0.3,0.8-0.4,1c-0.1,0.2-0.1,0.3-0.2,0.5   l-0.7,1.4c-0.5,1-1.1,2.1-1.8,3.2c-0.7,1.1-1.3,2.2-2,3.2c-0.1,0.1-0.3,0.5-0.6,0.9l-0.2,0.3c-0.1,0.2-0.3,0.4-0.5,0.6   c-0.3,0.3-1,1.2-1.2,1.6c-0.2,0.2-0.3,0.4-0.4,0.5l0,0c-1.1,1.2-2.2,2.4-3.1,3.3c-1.8,1.8-2.8,4.6-2.7,7.4c0,1.4,0.4,4,2.5,5.9   c3.6,3.3,9.7,4.3,13.6,0.3c27.2-27.7,28.2-76.3,2.3-108.2c-23.9-29.5-70.5-40.5-108.4-25.7c-17.6,6.9-33.2,18.1-45.1,32.3   c-1.4,1.7-3.5,2.6-5.6,2.5c-2.2-0.1-4.2-1.1-5.4-2.9l-0.5-0.7c-3.8-5.3-7.8-10.7-11.4-16.4c-2.1-3.4-3.9-6.5-5.5-9.5   c-0.8-1.5-1.6-3.1-2.2-4.5c0,0,0,0,0,0c-0.2-0.5-0.4-1-0.5-1.5c0-0.1,0-0.1-0.1-0.2c-0.6-1.4-0.8-2-1-2.5c-0.6-1.9-1.2-3.9-1.7-5.9   c-0.1-0.4-0.2-0.9-0.3-1.3c-0.1-0.3-0.1-0.7-0.2-1c-0.1-0.4-0.1-0.6-0.2-0.7c-0.1-0.5-0.2-1-0.3-1.6c-0.4-4-0.5-8.2-0.1-12.9l0-0.3   c0-0.3,0.1-0.5,0.1-0.8c0,0,0-0.1,0-0.1c0.3-1.5,0.5-2.6,0.7-3.6c0.5-2.1,1.1-4.2,1.7-6.2c0.3-0.9,0.6-1.7,0.9-2.6c0,0,0-0.1,0-0.1   c0.1-0.2,0.2-0.4,0.2-0.5l0.6-1.3c0-0.1,0.1-0.2,0.1-0.3c1.1-2.1,2.2-4.1,3.5-6.2c1.2-1.9,1.5-4.6,0.8-7.1c-0.7-2.5-2.1-4.5-4-5.5   c-5-2.6-10.5-1.2-13.4,3.4C227.5,38.2,223.7,54.1,225.3,68.6z"></path><path d="M339.2,396.8h61.6h41.7c-3.4-25.2-25-44.9-51.1-45.1c0,0,0,0,0,0c0,0,0,0,0,0c0,0,0,0,0,0c0,0,0,0,0,0c-0.2,0-0.3,0-0.5,0   C364.5,351.7,342.6,371.4,339.2,396.8z"></path><path d="M138.4,154c-0.1,0-0.2,0-0.3,0C138.2,154,138.3,154,138.4,154z"></path><path d="M423.9,410.8c-3.2,15.3-16.8,26.7-33,26.7c-16.2,0-29.8-11.5-33-26.7h-18.7c3.1,23.8,22.1,42.5,46.6,44.9c0,0,0,0,0,0   c1.7,0.2,3.4,0.2,5.1,0.2c26.4,0,48.2-19.7,51.7-45.2H423.9z"></path><path d="M123.7,65.1c0.1,0,0.3-0.1,0.4-0.1C124.1,65,123.9,65.1,123.7,65.1z"></path><path d="M75.4,265.2c2.6,0.7,5.4,0.4,7.2-0.7c4.7-3,6.1-8.4,3.5-13.5c-0.6-1.2-1.2-2.4-1.7-3.5c-0.1-0.2-0.2-0.4-0.3-0.6l-0.3-0.8   c-0.8-2.2-1.5-4.5-2.2-6.9c-0.6-2.1-1-4.3-1.4-6.6c-0.1-0.4-0.2-0.8-0.2-1.2l-0.1-1.1c-0.1-1.1-0.2-2.2-0.3-3.4   c-0.3-4.4,0-8.6,0.2-12.7l0.1-1.5c0-0.3,0.1-0.7,0.1-1l0.2-1.3c0.1-0.6,0.2-1.3,0.4-1.9c0.6-3,1.4-6,2.3-8.9   c0.6-1.8,1.2-3.5,1.8-5.2l0.4-1.1c0.1-0.3,0.2-0.5,0.3-0.8l0.3-0.5c0.2-0.3,0.3-0.7,0.5-1c0.3-0.5,0.5-1,0.8-1.6   c1.2-2.3,2.5-4.5,3.8-6.6c0.5-0.9,1.1-1.7,1.7-2.6c0.4-0.6,0.8-1.2,1.3-1.7l0.1-0.1c0.1-0.1,0.1-0.2,0.2-0.3c0,0,0.1-0.1,0.1-0.1   c0.1-0.1,0.1-0.2,0.2-0.3l0.4-0.5c3-3.2,6-6.5,9.6-9.6c0,0,0.1-0.1,0.2-0.1c0,0,0,0,0,0c0.2-0.2,0.5-0.4,0.8-0.7c0,0,0,0,0,0   c0,0,0,0,0,0c0.4-0.3,1-0.7,1.5-1c0.6-0.4,1.2-0.8,1.8-1.2c2.2-1.4,4.5-2.7,6.9-3.9c1.2-0.6,2.4-1.2,3.7-1.7   c0.2-0.1,0.4-0.1,0.5-0.2l0.6-0.2c2.2-0.8,4.7-1.6,7.3-2.4c2.2-0.6,4.5-1.1,6.9-1.6c0.7-0.1,1.5-0.3,2.2-0.4c0.3,0,0.6-0.1,0.9-0.1   c0.3,0,1-0.1,1.6-0.1c0.5,0,0.9-0.1,1-0.1c4.9-0.4,9.9-0.3,14.9,0.2c0,0,0,0,0.1,0c0.4,0,0.8,0,1.1,0.1h0l1,0.2   c0.7,0.1,1.3,0.2,2,0.4c3.1,0.6,6.2,1.4,9.1,2.3c1,0.3,2,0.6,3,1c0.1,0,0.2,0.1,0.3,0.1c0.2,0.1,1.1,0.4,1.8,0.7   c0.2,0.1,0.3,0.1,0.5,0.2c0.6,0.3,1.6,0.7,1.9,0.9c0.1,0.1,0.2,0.1,0.3,0.2c0.9,0.5,1.9,0.9,2.8,1.4c2.3,1.3,4.6,2.7,6.8,4.1   c0.3,0.2,0.7,0.5,1,0.7l0.3,0.2c0.3,0.2,0.5,0.4,0.8,0.7c0.2,0.2,0.6,0.5,0.9,0.8c0.6,0.5,1.2,1,1.5,1.2c1.7,1.5,3.3,3.1,4.9,4.8   c0.6,0.6,1.2,1.3,1.8,2c0.4,0.4,0.7,0.8,1.1,1.2c0.2,0.2,0.5,0.6,0.8,1c0.1,0.1,0.1,0.1,0.2,0.2c2.8,3.9,5.3,7.9,7.4,12   c0.5,0.9,0.9,1.9,1.4,2.9c0.1,0.2,0.2,0.4,0.2,0.5l0.1,0.2c0.2,0.6,0.6,1.5,0.8,2.1c0.9,2.4,1.6,4.8,2.3,7.2   c0.2,0.9,0.5,1.8,0.7,2.6h19.4c-1.1-6-2.8-11.8-5.1-17.4c-9.2-22.4-25.5-38.9-46.9-47.7c-19.6-8-43.3-8.3-63.3-0.8   c-2.6,1-5.5,0.3-7.4-1.6l-0.3-0.3c-0.3-0.3-0.6-0.6-0.9-0.9c-0.6-0.7-1.2-1.3-1.8-2l-0.7-0.8c0,0,0,0,0,0c-0.4-0.5-0.7-1-1-1.5   c-0.1-0.2-0.2-0.3-0.3-0.5c-1.5-2.2-2.7-4.5-3.8-6.6l-0.1-0.1c-0.1-0.2-0.2-0.4-0.3-0.5c-0.2-0.4-0.4-0.8-0.5-1.2l-0.3-0.8   c-0.4-1.1-0.8-2.2-1.1-3.4c-0.7-2.2-1.2-4.5-1.8-7.4c0-0.1,0-0.3-0.1-0.4c-0.1-0.4-0.1-1.1-0.2-1.9c-0.1-1.4-0.2-2.7-0.2-4   c0-1.2,0-2.2,0.1-3.3c0-0.4,0-0.8,0.1-1.2l0-0.4c0-0.5,0.1-1,0.2-1.4l0.3-1.2c0.5-2.3,1-4.6,1.8-7.1c0.1-0.2,0.3-0.8,0.6-1.5   c0.2-0.4,0.3-0.8,0.4-1.1c0.1-0.2,0.2-0.5,0.3-0.7l0.4-0.8c0.2-0.5,0.4-0.8,0.5-1c0.7-1.4,1.6-2.8,2.4-4.1c0.1-0.1,0.4-0.5,0.7-1   l0.5-0.8c0.1-0.2,0.3-0.3,0.4-0.5l0.7-0.9c0.4-0.5,0.8-1,0.9-1.1c1.1-1.2,2.2-2.3,3.3-3.4c0.5-0.5,1-0.9,1.5-1.3   c0.4-0.3,0.8-0.7,1-0.9c0.4-0.4,0.8-0.8,1.3-1.1l0.3-0.2c1.9-1.3,4.5-3,7.3-4.5c0.6-0.3,1.1-0.6,1.7-0.8l0.5-0.2   c0.3-0.1,0.6-0.3,1-0.4c0.3-0.1,0.8-0.3,1.2-0.4c0.6-0.2,1.1-0.4,1.3-0.5c2.6-0.8,5.2-1.4,7.6-1.9l0.4-0.1c0.5-0.1,1-0.2,1.5-0.2   c0.1,0,0.3,0,0.5,0l1.1,0c1.1,0,2.2-0.1,3.4-0.1c2.5,0,5.1-1.2,7-3.2c1-1,2.6-3.2,2.5-6c-0.2-4.8-3.6-9.8-9.5-9.8   C113.2,42.8,88,61,79.3,87.1c-6.5,19.4-2.2,41.4,11.5,58.9c2.3,2.9,1.9,7.1-0.9,9.6c-10.1,8.9-18,20.1-23.3,33.3   c-9.2,22.8-7.9,49.9,3.4,72.4C70.9,263,72.9,264.5,75.4,265.2z"></path><path d="M189.5,168.8c-0.3-0.5-0.6-1-1-1.5C188.8,167.8,189.2,168.3,189.5,168.8z"></path><path d="M283.4,336.3c22.5,0,41.3-16.6,44.7-38.2h-15.7c-3.1,13.1-14.9,22.8-28.9,22.8s-25.8-9.7-28.9-22.8h-15.7   C242.1,319.7,260.8,336.3,283.4,336.3z"></path><path d="M323.1,269.5C323.1,269.5,323.1,269.5,323.1,269.5c-0.7-1.3-1.5-2.5-2.3-3.7c0,0,0,0,0,0c0,0,0,0,0,0   c-0.4-0.6-0.8-1.2-1.3-1.8c-1.7-2.3-3.7-4.5-5.8-6.4c-2.7-2.4-5.7-4.6-8.8-6.3c0,0,0,0,0,0c-1.3-0.7-2.6-1.3-3.9-1.9c0,0,0,0,0,0   c-1.7-0.7-3.5-1.3-5.3-1.8c-4-1.1-8.1-1.7-12.3-1.7c-2.6,0-5.2,0.2-7.8,0.7c-0.9,0.2-1.7,0.3-2.6,0.5c0,0,0,0,0,0   c-3.9,0.9-7.6,2.3-11.1,4.2c0,0,0,0,0,0c-3.2,1.7-6.2,3.8-8.9,6.3c-2.1,1.9-4.1,4.1-5.8,6.4c0,0,0,0,0,0c-0.4,0.6-0.9,1.2-1.3,1.8   c-0.8,1.2-1.6,2.5-2.3,3.7c-2.5,4.5-4.1,9.5-4.9,14.5H328C327.2,279,325.6,274,323.1,269.5z"></path><path d="M335.2,491.6c14.8,0,28.4-7.4,36.5-19.7c0.9-1.3,1.7-2.7,2.6-4.1c-12.3-3.2-23.5-9.9-32.2-19.4   c-11.2-12.2-17.3-28.1-17.3-44.6c0-33.2,24.6-60.8,56.6-65.5c-14.6-35.5-22-72-22-108.6v-2c0-4.5-3.6-8.1-8.1-8.1h-43.5h-32.9   h-35.2h0c0,0,0,0,0,0h-33.1h-0.1c0,0,0,0,0,0h-45.4c-4.5,0-8.1,3.6-8.1,8.1v2c0,28.3-4.5,56.9-13.4,84.9c2.5-0.2,4.9-0.4,7.4-0.4   c17.9,0,35.4,6.3,49.2,17.7c8.6,7.1,15.7,16.1,20.5,26.1c0,0,0,0,0,0c1.1,2.3,2.1,4.6,2.9,6.9c0,0,0,0,0,0   c3.1,8.5,4.7,17.5,4.7,26.6c0,42.6-34.7,77.3-77.3,77.3c-2.9,0-5.7-0.2-8.5-0.5c0.7,1.1,1.4,2.3,2.1,3.4   c8,12.3,21.7,19.7,36.5,19.7H335.2z M231.3,262.8c0.9-1.7,1.9-3.3,3-4.9c0,0,0,0,0,0c0,0,0,0,0,0c0.5-0.8,1.1-1.6,1.6-2.3   c0,0,0,0,0,0c2.3-3,4.8-5.9,7.6-8.4c3.5-3.2,7.4-6,11.6-8.2c4.6-2.5,9.4-4.3,14.6-5.5c0,0,0,0,0,0c0.1,0,0.1,0,0.2,0c0,0,0,0,0,0   c0,0,0,0,0,0c4.4-1,8.9-1.5,13.4-1.5c5,0,9.9,0.6,14.7,1.8c2.9,0.7,5.7,1.7,8.4,2.8c0,0,0,0,0,0c1.8,0.7,3.5,1.6,5.2,2.5   c0,0,0,0,0,0c4.2,2.3,8.1,5,11.6,8.2c2.8,2.5,5.4,5.4,7.6,8.4c0,0,0,0,0,0c0,0,0,0,0,0c0.6,0.8,1.1,1.5,1.6,2.3c0,0,0,0,0,0   c0,0,0,0,0,0c0,0,0,0,0,0c0,0,0,0,0,0c1.1,1.6,2.1,3.2,3,4.9c0,0,0,0,0,0c4.7,8.6,7.2,18.4,7.2,28.2c0,32.6-26.6,59.2-59.2,59.2   s-59.2-26.6-59.2-59.2C224.1,281.2,226.6,271.4,231.3,262.8z"></path><path d="M190,173.9c0.2-0.8,0.3-1.6,0.2-2.4C190.3,172.3,190.3,173.1,190,173.9z"></path><path d="M89.7,364.3c-0.9,1.8-1.7,3.8-2.4,5.7c-1.7,4.8-2.9,9.7-3.4,14.8h27.3h98.6c-0.6-5.1-1.7-10-3.4-14.8c0,0,0,0,0,0   c0,0,0,0,0,0c-0.7-1.9-1.5-3.8-2.4-5.7c0,0,0,0,0,0c-3.9-8.2-9.8-15.6-16.8-21.4c-11.3-9.3-25.6-14.5-40.3-14.5   c-4.2,0-8.5,0.4-12.6,1.3c-1.2,0.2-2.3,0.5-3.5,0.8c0,0,0,0,0,0c-8.9,2.3-17.1,6.5-24.2,12.4C99.4,348.7,93.6,356.1,89.7,364.3   C89.7,364.3,89.7,364.3,89.7,364.3z"></path><path d="M127.1,451.9c6.4,2.1,13,3.1,19.7,3.1c32.6,0,59.4-24.7,62.9-56.3h-23.5c-3.3,18.8-19.7,33.1-39.5,33.1   c-19.8,0-36.2-14.3-39.5-33.1H83.8C86.5,423.2,103.2,444.1,127.1,451.9z"></path></g></svg>