<svg height='100px' width='100px'  fill="#ffffff" xmlns="http://www.w3.org/2000/svg" xmlns:xlink="http://www.w3.org/1999/xlink" version="1.1" x="0px" y="0px" viewBox="200 200 100 100" enable-background="new 200 200 100 100" xml:space="preserve"><g><path fill="none" d="M279.225,251.155c3.525,0,6.438-3.829,6.895-8.794c-0.31,0.077-0.69,0.228-1.105,0.517   c0,0,0.787-4.673-0.874-5.328c0,0-2.293,1.113-4.915,1.185c-2.621-0.071-4.915-1.185-4.915-1.185   c-1.662,0.655-0.874,5.329-0.874,5.329c-0.415-0.29-0.796-0.44-1.106-0.518C272.788,247.325,275.7,251.155,279.225,251.155z"></path><path fill="none" d="M256.09,254.012c-0.975,0.085-1.72,0.3-1.979,0.728l1.158-2.41c-1.57,1.522-3.453,2.41-5.478,2.41   c-2.073,0-3.997-0.93-5.587-2.52l1.567,3.495l0.094,0.209c-0.067-0.11-0.178-0.207-0.307-0.3c-0.176-0.126-0.404-0.236-0.678-0.332   c-0.683-0.238-1.625-0.391-2.667-0.481c0.683,1.262,2.375,2.283,4.565,2.779l3.015,4.899l3.013-4.899   c0.25-0.056,0.49-0.121,0.725-0.19c0.041-0.013,0.082-0.023,0.122-0.036c0.228-0.07,0.448-0.146,0.661-0.228   c0.031-0.012,0.06-0.023,0.09-0.036c0.441-0.174,0.85-0.373,1.218-0.594c0.02-0.012,0.04-0.023,0.061-0.036   c0.183-0.112,0.356-0.229,0.518-0.352c0.007-0.005,0.014-0.011,0.021-0.017c0.33-0.253,0.611-0.526,0.838-0.815   c0.007-0.01,0.016-0.02,0.023-0.029c0.11-0.146,0.21-0.295,0.292-0.447c0.146-0.27,0.247-0.55,0.296-0.838   C257.103,253.957,256.571,253.97,256.09,254.012z"></path><path fill="none" d="M226.701,242.643l-2.292-0.292c1.258-0.726,0.593-2.313,0.283-2.846c-0.092-0.157-0.156-0.25-0.156-0.25   c-0.018,0.014-0.036,0.025-0.053,0.039c-3.58,2.578-6.511,3.557-6.511,3.557c-1.618,0.639-4.327,1.088-4.327,1.088   c0.445,4.834,3.281,8.562,6.711,8.562c2.251,0,4.245-1.604,5.476-4.072c0.677-1.356,1.124-2.974,1.255-4.729   c0.047-0.32,0.072-0.647,0.076-0.979l-0.419-0.078H226.701z"></path><path fill="none" d="M223.716,253.687l0.901-1.875c-1.221,1.184-2.686,1.875-4.261,1.875c-1.612,0-3.108-0.724-4.346-1.96   l1.292,2.881c-0.302-0.495-1.466-0.747-2.841-0.866c0.531,0.98,1.847,1.776,3.551,2.162l2.345,3.811l2.344-3.811   c2.069-0.469,3.571-1.539,3.782-2.814C225.152,253.055,224.017,253.19,223.716,253.687z"></path><path fill="none" d="M257.949,240.54l-2.947-0.375c1.618-0.933,0.763-2.974,0.363-3.659c-0.118-0.202-0.201-0.32-0.201-0.32   c-0.022,0.017-0.045,0.032-0.067,0.049c-4.603,3.314-8.372,4.573-8.372,4.573c-2.08,0.821-5.563,1.398-5.563,1.398   c0.572,6.214,4.218,11.007,8.629,11.007c2.895,0,5.458-2.062,7.041-5.235c0.87-1.744,1.444-3.823,1.613-6.08   c0.06-0.412,0.093-0.832,0.098-1.258l-0.539-0.1L257.949,240.54L257.949,240.54z"></path><path d="M233.063,256.091c-1.19-1.305-2.712-2.301-4.438-2.845c1.739,0.194,3.265,0.495,3.265,0.495   c-3.47-1.908-3.38-8.755-3.38-8.755c0.606-13.262-8.146-12.569-8.146-12.569l-0.007,0.021l-0.006-0.021   c0,0-8.752-0.693-8.146,12.569c0,0,0.089,6.847-3.381,8.755c0,0,0.935-0.063,2.184-0.088c-3.539,1.581-6.006,5.132-6.006,9.259   c0,5.598,4.538,4.608,10.137,4.608h10.438c1.047,0,2.056,0.034,3.006,0.054c-0.024-0.311-0.041-0.632-0.041-0.973   C228.541,262.583,230.235,258.796,233.063,256.091z M222.701,255.904l-2.345,3.811l-2.345-3.811   c-1.703-0.386-3.02-1.181-3.55-2.162c1.375,0.12,2.54,0.371,2.841,0.866l-1.292-2.88c1.237,1.235,2.733,1.959,4.346,1.959   c1.575,0,3.04-0.691,4.261-1.875l-0.901,1.875c0.302-0.497,1.437-0.631,2.768-0.598   C226.272,254.365,224.77,255.435,222.701,255.904z M227.087,243.699c-0.132,1.755-0.578,3.373-1.255,4.729   c-1.231,2.468-3.225,4.072-5.477,4.072c-3.43,0-6.266-3.728-6.711-8.562c0,0,2.71-0.449,4.327-1.088c0,0,2.931-0.979,6.512-3.557   c0.018-0.013,0.035-0.025,0.053-0.039c0,0,0.064,0.092,0.156,0.25c0.311,0.533,0.976,2.12-0.282,2.846l2.292,0.292h0.042   l0.419,0.078C227.159,243.052,227.134,243.379,227.087,243.699z"></path><path d="M285.547,251.482c-0.042,1.899-2.855,3.431-6.321,3.431s-6.278-1.531-6.319-3.431c-2.913,0.267-5.473,1.735-7.193,3.9   c3.311,2.727,5.328,6.834,5.329,11.219c0,0.336-0.016,0.651-0.039,0.958c0.908,0.028,1.867,0.029,2.861,0.029h10.724   c5.751,0,10.413,0.015,10.413-5.737C295.001,256.424,290.848,251.967,285.547,251.482z"></path><path d="M271.348,242.071c0.006,0.076,0.012,0.15,0.02,0.225c0.502,5.685,3.828,10.077,7.857,10.077s7.355-4.392,7.858-10.077   c0.007-0.075,0.013-0.149,0.019-0.225c0.036-0.246,0.06-0.497,0.074-0.75c0.01-0.173,0.017-0.347,0.017-0.523   c0-0.432-0.03-0.857-0.091-1.272c-0.582-4.028-3.887-7.115-7.877-7.115c-3.989,0-7.295,3.086-7.877,7.115   c-0.06,0.416-0.091,0.84-0.091,1.272c0,0.176,0.007,0.35,0.017,0.523C271.289,241.574,271.312,241.824,271.348,242.071z    M274.31,237.549c0,0,2.293,1.113,4.915,1.185c2.622-0.072,4.915-1.185,4.915-1.185c1.661,0.656,0.874,5.328,0.874,5.328   c0.415-0.289,0.796-0.439,1.105-0.517c-0.457,4.966-3.369,8.795-6.895,8.795s-6.438-3.829-6.896-8.795   c0.311,0.078,0.691,0.229,1.106,0.518C273.436,242.877,272.648,238.204,274.31,237.549z"></path><polygon points="262.027,254.81 262.026,254.81 262.03,254.812  "></polygon><path d="M255.62,256.506c-0.368,0.221-0.776,0.419-1.219,0.594C254.844,256.925,255.252,256.727,255.62,256.506z"></path><path d="M256.219,256.102c0.33-0.253,0.611-0.526,0.837-0.815C256.831,255.575,256.55,255.849,256.219,256.102z"></path><path d="M242.211,254.811L242.211,254.811c0.683,1.262,2.375,2.284,4.565,2.779C244.586,257.094,242.893,256.073,242.211,254.811z"></path><path d="M230.049,266.601L230.049,266.601c0-0.328,0.012-0.654,0.036-0.977C230.06,265.947,230.049,266.273,230.049,266.601z"></path><path d="M269.534,266.602L269.534,266.602c0-0.347-0.016-0.689-0.042-1.029C269.518,265.912,269.534,266.255,269.534,266.602z"></path><path d="M269.453,265.231c-0.023-0.223-0.047-0.444-0.081-0.663c-0.021-0.137-0.05-0.271-0.075-0.406   c-0.037-0.191-0.074-0.383-0.119-0.571c-0.035-0.146-0.074-0.289-0.113-0.433c-0.047-0.172-0.096-0.344-0.149-0.512   c-0.049-0.151-0.101-0.301-0.153-0.449c-0.057-0.154-0.115-0.309-0.176-0.46c-0.063-0.155-0.127-0.309-0.195-0.462   c-0.061-0.135-0.127-0.269-0.191-0.401c-0.08-0.162-0.159-0.323-0.246-0.48c-0.059-0.109-0.122-0.215-0.186-0.321   c-0.102-0.176-0.202-0.351-0.312-0.521c-0.035-0.054-0.075-0.105-0.11-0.159c-0.637-0.955-1.396-1.821-2.256-2.576   c-0.009-0.008-0.017-0.016-0.025-0.023c-0.212-0.185-0.432-0.361-0.655-0.532c-0.022-0.018-0.045-0.035-0.067-0.052   c-0.221-0.167-0.447-0.326-0.68-0.479c-0.025-0.017-0.05-0.033-0.075-0.05c-0.235-0.152-0.476-0.298-0.72-0.436   c-0.021-0.012-0.041-0.021-0.062-0.033c-0.254-0.141-0.512-0.273-0.775-0.398c-0.001,0-0.002-0.001-0.002-0.001   c-0.521-0.244-1.053-0.462-1.606-0.637c2.235,0.251,4.197,0.637,4.197,0.637c-0.499-0.274-0.938-0.633-1.331-1.045   c-3.104-3.273-3.015-10.212-3.015-10.212c0.779-17.052-10.474-16.16-10.474-16.16l-0.008,0.027l-0.008-0.027   c0,0-11.253-0.891-10.473,16.16c0,0,0.087,6.921-3.004,10.198c-0.395,0.419-0.838,0.781-1.343,1.059c0,0,1.201-0.081,2.807-0.111   c-0.077,0.034-0.151,0.075-0.228,0.111c0,0.001-0.001,0.001-0.002,0.001c-1.382,0.651-2.631,1.535-3.696,2.604   c-0.003,0.003-0.005,0.006-0.008,0.009c-0.209,0.21-0.411,0.427-0.605,0.651c-0.01,0.012-0.019,0.023-0.028,0.035   c-0.187,0.216-0.367,0.438-0.539,0.667c-0.017,0.021-0.032,0.045-0.049,0.067c-0.162,0.219-0.32,0.442-0.469,0.672   c-0.024,0.038-0.047,0.078-0.071,0.115c-0.137,0.218-0.272,0.437-0.397,0.662c-0.031,0.057-0.059,0.115-0.089,0.172   c-0.113,0.211-0.224,0.424-0.326,0.642c-0.036,0.077-0.067,0.157-0.102,0.235c-0.089,0.202-0.178,0.403-0.257,0.61   c-0.039,0.102-0.07,0.206-0.107,0.309c-0.066,0.188-0.135,0.376-0.192,0.567c-0.039,0.128-0.068,0.26-0.103,0.389   c-0.047,0.173-0.096,0.343-0.136,0.518c-0.035,0.158-0.06,0.319-0.089,0.479c-0.029,0.151-0.062,0.3-0.084,0.453   c-0.03,0.2-0.047,0.404-0.068,0.607c-0.012,0.116-0.03,0.23-0.039,0.349c-0.024,0.322-0.036,0.648-0.036,0.978   c0,0.297,0.013,0.572,0.032,0.841c0.005,0.067,0.011,0.135,0.017,0.201c0.023,0.246,0.052,0.482,0.091,0.706   c0.003,0.014,0.004,0.03,0.007,0.044c0.043,0.235,0.098,0.454,0.159,0.664c0.015,0.051,0.031,0.102,0.047,0.151   c0.059,0.186,0.125,0.362,0.198,0.528c0.008,0.02,0.015,0.04,0.024,0.059c0.083,0.181,0.176,0.348,0.275,0.506   c0.024,0.038,0.048,0.073,0.072,0.109c0.092,0.137,0.188,0.265,0.292,0.385c0.016,0.019,0.03,0.039,0.046,0.057   c0.12,0.134,0.249,0.255,0.383,0.37c0.03,0.025,0.063,0.051,0.093,0.075c0.12,0.096,0.245,0.186,0.376,0.268   c0.024,0.016,0.048,0.032,0.073,0.048c0.152,0.093,0.313,0.176,0.479,0.253c0.036,0.017,0.074,0.032,0.111,0.048   c0.145,0.063,0.295,0.121,0.449,0.174c0.034,0.012,0.067,0.024,0.102,0.035c0.182,0.059,0.371,0.111,0.565,0.156   c0.041,0.01,0.083,0.019,0.125,0.027c0.167,0.037,0.338,0.07,0.514,0.1c0.044,0.007,0.088,0.015,0.133,0.021   c0.207,0.032,0.42,0.06,0.638,0.082c0.047,0.005,0.095,0.009,0.142,0.013c0.185,0.018,0.373,0.032,0.564,0.044   c0.057,0.003,0.112,0.007,0.169,0.01c0.229,0.013,0.462,0.021,0.7,0.027c0.05,0.001,0.101,0.002,0.151,0.003   c0.201,0.004,0.406,0.006,0.613,0.007c0.062,0,0.123,0,0.185,0c0.359-0.001,0.728-0.005,1.103-0.013   c0.048-0.001,0.096-0.001,0.144-0.002c0.387-0.008,0.783-0.018,1.185-0.027c0.434-0.011,0.876-0.021,1.325-0.029   c0.024-0.001,0.047-0.001,0.071-0.002c0.453-0.008,0.913-0.014,1.379-0.014h13.421c0.467,0,0.926,0.006,1.379,0.014   c0.024,0.001,0.048,0.001,0.072,0.002c0.447,0.008,0.888,0.019,1.321,0.029c0.403,0.01,0.799,0.02,1.188,0.027   c0.048,0.001,0.095,0.001,0.144,0.002c0.374,0.007,0.742,0.012,1.102,0.013c0.063,0,0.124,0,0.186,0   c0.207-0.001,0.412-0.004,0.613-0.007c0.051-0.001,0.102-0.002,0.151-0.003c0.237-0.006,0.471-0.015,0.698-0.026   c0.059-0.004,0.115-0.008,0.174-0.012c0.189-0.011,0.375-0.025,0.558-0.042c0.049-0.005,0.099-0.009,0.147-0.014   c0.216-0.022,0.427-0.05,0.633-0.081c0.048-0.007,0.094-0.016,0.143-0.023c0.171-0.028,0.339-0.061,0.501-0.097   c0.044-0.01,0.091-0.02,0.134-0.029c0.192-0.046,0.379-0.097,0.56-0.155c0.038-0.012,0.074-0.026,0.111-0.039   c0.15-0.051,0.296-0.107,0.438-0.168c0.039-0.018,0.079-0.034,0.118-0.052c0.165-0.076,0.323-0.158,0.475-0.25   c0.027-0.017,0.054-0.036,0.081-0.054c0.127-0.08,0.248-0.167,0.365-0.26c0.033-0.027,0.067-0.053,0.101-0.081   c0.132-0.112,0.26-0.233,0.378-0.365c0.019-0.021,0.035-0.043,0.053-0.064c0.101-0.117,0.196-0.243,0.285-0.376   c0.025-0.038,0.052-0.076,0.076-0.114c0.099-0.158,0.191-0.324,0.273-0.503c0.009-0.021,0.017-0.044,0.026-0.064   c0.073-0.164,0.137-0.339,0.195-0.521c0.017-0.052,0.032-0.103,0.049-0.155c0.061-0.209,0.115-0.427,0.157-0.661   c0.003-0.016,0.005-0.033,0.008-0.049c0.039-0.222,0.068-0.457,0.091-0.702c0.006-0.066,0.012-0.134,0.017-0.202   c0.02-0.268,0.033-0.544,0.033-0.84c0-0.347-0.016-0.69-0.042-1.029C269.483,265.457,269.466,265.344,269.453,265.231z    M257.373,254.81c-0.083,0.152-0.182,0.302-0.293,0.447c-0.008,0.01-0.016,0.02-0.023,0.029c-0.226,0.289-0.507,0.563-0.837,0.815   c-0.008,0.006-0.015,0.012-0.021,0.017c-0.161,0.123-0.335,0.239-0.518,0.352c-0.021,0.013-0.041,0.024-0.061,0.037   c-0.368,0.22-0.775,0.419-1.219,0.594c-0.03,0.012-0.059,0.023-0.089,0.035c-0.213,0.082-0.434,0.158-0.661,0.229   c-0.041,0.012-0.082,0.022-0.122,0.035c-0.234,0.069-0.475,0.135-0.725,0.191l-3.014,4.898l-3.015-4.898   c-2.19-0.496-3.883-1.519-4.565-2.78l0,0c1.043,0.091,1.985,0.243,2.667,0.481c0.274,0.096,0.502,0.206,0.679,0.332   c0.129,0.093,0.239,0.189,0.307,0.3l-0.094-0.209l-1.567-3.494c1.59,1.589,3.514,2.52,5.587,2.52c2.025,0,3.908-0.889,5.478-2.411   l-1.158,2.411c0.259-0.429,1.005-0.644,1.979-0.729c0.48-0.042,1.013-0.055,1.578-0.04   C257.62,254.26,257.518,254.54,257.373,254.81z M258.444,241.898c-0.169,2.257-0.743,4.336-1.613,6.08   c-1.583,3.173-4.146,5.236-7.041,5.236c-4.411,0-8.057-4.793-8.628-11.007c0,0,3.483-0.577,5.563-1.398   c0,0,3.769-1.259,8.372-4.573c0.022-0.017,0.046-0.032,0.068-0.049c0,0,0.082,0.118,0.2,0.32c0.399,0.685,1.255,2.726-0.363,3.659   l2.947,0.375h0.054l0.539,0.1C258.537,241.066,258.505,241.487,258.444,241.898z"></path></g></svg>