<svg height='100px' width='100px'  fill="#e7fbfb" xmlns="http://www.w3.org/2000/svg" xmlns:xlink="http://www.w3.org/1999/xlink" viewBox="0 0 100 100" version="1.1" x="0px" y="0px"><title>Download s4.3</title><desc>Created with Sketch.</desc><g stroke="none" stroke-width="1" fill="none" fill-rule="evenodd"><g fill="#e7fbfb"><path d="M32.6208633,44.5435822 C30.7386324,46.4297372 33.5609808,49.2579696 35.4432117,47.3718146 L47.292744,35.4985218 C47.6855924,35.1048857 48.004059,35.2291597 48.004059,35.7800967 L48.004059,71.9598348 C48.004059,73.0649255 48.8972704,73.9599991 50.0000621,73.9599991 C51.1018558,73.9599991 51.9960652,73.0649255 51.9960652,71.9598348 L51.9960652,35.7800967 C51.9960652,35.230951 52.3065597,35.0968977 52.7073801,35.4985218 L64.5569125,47.3718146 C66.4381454,49.2579696 69.2614917,46.4297372 67.3792608,44.5435822 L54.384639,31.4209801 C53.6075071,30.6361945 53.8687528,30 54.9802686,30 L70,30 C71.1045695,30 72,29.1045695 72,28 C72,26.8954305 71.1045695,26 70,26 L30,26 C28.8954305,26 28,26.8954305 28,28 C28,29.1045695 28.8954305,30 30,30 L44.9671189,30 C46.0693334,30 46.3280918,30.6436852 45.5615711,31.4209801 L32.6208633,44.5435822 Z" transform="translate(50.000000, 49.980000) rotate(-180.000000) translate(-50.000000, -49.980000) "></path></g></g></svg>