<svg height='100px' width='100px'  fill="#ffffff" xmlns="http://www.w3.org/2000/svg" xmlns:xlink="http://www.w3.org/1999/xlink" version="1.1" x="0px" y="0px" viewBox="0 0 20 20" enable-background="new 0 0 20 20" xml:space="preserve"><g><path fill="#ffffff" d="M16,0c-2.2,0-4,1.8-4,4c0,0.2,0,0.3,0,0.4L5.3,7.1C4.7,6.4,3.9,6,3,6C1.3,6,0,7.3,0,9s1.3,3,3,3   c0.5,0,1-0.2,1.5-0.4l3.1,2.7c-0.2,0.5-0.4,1.1-0.4,1.7c0,2.2,1.8,4,4,4s4-1.8,4-4c0-1.4-0.7-2.6-1.7-3.3l2-4.8C15.6,8,15.8,8,16,8   c2.2,0,4-1.8,4-4S18.2,0,16,0z M3,10c-0.6,0-1-0.4-1-1s0.4-1,1-1c0.4,0,0.8,0.3,0.9,0.6c0,0,0,0,0,0l0,0C4,8.8,4,8.9,4,9   C4,9.6,3.6,10,3,10z M11.2,18c-1.1,0-2-0.9-2-2s0.9-2,2-2s2,0.9,2,2S12.3,18,11.2,18z M11.6,12c-0.1,0-0.3,0-0.4,0   c-0.9,0-1.7,0.3-2.3,0.8l-3.1-2.7C5.9,9.8,6,9.4,6,9c0,0,0-0.1,0-0.1l6.8-2.6c0.2,0.3,0.5,0.6,0.8,0.9L11.6,12z M16,6   c-0.8,0-1.5-0.5-1.8-1.2c0,0,0,0,0,0c0,0,0,0,0,0C14.1,4.5,14,4.2,14,4c0-1.1,0.9-2,2-2s2,0.9,2,2S17.1,6,16,6z"></path></g></svg>