<?xml version="1.0" encoding="utf-8"?>
<!-- Generator: Adobe Illustrator 25.1.0, SVG Export Plug-In . SVG Version: 6.00 Build 0)  -->
<svg version="1.1" id="Layer_1" xmlns="http://www.w3.org/2000/svg" xmlns:xlink="http://www.w3.org/1999/xlink" x="0px" y="0px"
	 viewBox="0 0 100 100" style="enable-background:new 0 0 100 100;" xml:space="preserve">
<style type="text/css">
	.st0{fill-rule:evenodd;clip-rule:evenodd;fill:#FFFFFF;}
</style>
<desc>Created with Sketch.</desc>
<path class="st0" d="M30.9,16.9c1.2-0.5,2.2,0.1,2.2,1.5v53.1c0,1.3-1,2.8-2.2,3.3l-19.7,8.3C10,83.6,9,82.9,9,81.6V28.5
	c0-1.3,1-2.8,2.2-3.3L30.9,16.9z M88.8,16.9c1.2-0.5,2.2,0.1,2.2,1.5v53.1c0,1.3-1,2.8-2.2,3.3l-19.7,8.3c-1.2,0.5-2.2-0.1-2.2-1.5
	V28.5c0-1.3,1-2.8,2.2-3.3L88.8,16.9z M38,18.6v52.8c0,1.3,1,2.8,2.2,3.3l19.5,8.2c1.2,0.5,2.2-0.2,2.2-1.5V28.6
	c0-1.3-1-2.8-2.2-3.3l-19.5-8.2C39,16.6,38,17.2,38,18.6z"/>
</svg>
