<?xml version="1.0" encoding="utf-8"?>
<!-- Generator: Adobe Illustrator 24.3.0, SVG Export Plug-In . SVG Version: 6.00 Build 0)  -->
<svg version="1.1" id="Layer_1" xmlns="http://www.w3.org/2000/svg" xmlns:xlink="http://www.w3.org/1999/xlink" x="0px" y="0px"
	 viewBox="0 0 44 44" style="enable-background:new 0 0 44 44;" xml:space="preserve">
<style type="text/css">
	.st0{fill:none;stroke:#0271BA;stroke-width:5;stroke-miterlimit:10;enable-background:new    ;}
	.st1{fill:#FFFFFF;}
</style>
<circle class="st0" cx="22" cy="22" r="10.9"/>
<g>
	<polygon class="st1" points="22,44 5.4,18.4 7.3,18.2 19.6,38 21.1,36.1 21.1,27.5 22,24.7 22.9,27.5 22.9,36.1 24.7,37.3 
		36.4,18.2 38.6,18.4 	"/>
	<polygon class="st1" points="7.3,18.2 16.3,16.9 20.4,22.8 16.3,9.8 14.2,10.3 10.7,0 5.4,18.4 	"/>
	<polygon class="st1" points="36.7,18.2 27.7,17.6 23.6,22.8 27.7,9.8 29.8,10.3 33.3,0 38.6,18.4 	"/>
	<polyline class="st1" points="22,24.1 28.7,2.4 23.4,14.4 22,8.7 20.5,15.4 15.2,2.4 	"/>
	<ellipse class="st1" cx="15.6" cy="24.2" rx="1.4" ry="1.6"/>
	<ellipse class="st1" cx="28.5" cy="24.2" rx="1.4" ry="1.6"/>
</g>
</svg>
