<svg height='100px' width='100px'  fill="#002337" xmlns="http://www.w3.org/2000/svg" xmlns:xlink="http://www.w3.org/1999/xlink" xmlns:serif="http://www.serif.com/" viewBox="0 0 101 101" version="1.1" xml:space="preserve" style="" x="0px" y="0px" fill-rule="evenodd" clip-rule="evenodd" stroke-linejoin="round" stroke-miterlimit="1.41421"><rect serif:id="Page 71" x="0.5" y="0.5" width="100" height="100" style="" fill="none"></rect><path d="M89.211,82.974l-77.422,0c-1.446,-0.09 -2.41,-1.64 -1.732,-3l38.711,-67.05c0.619,-0.934 0.666,-0.996 1.855,-0.996c1.036,0.128 1.08,0.198 1.609,0.996l38.711,67.05c0.641,1.287 -0.242,2.908 -1.732,3Zm-38.711,-35.525c-7.815,0 -14.633,4.248 -18.284,10.558c3.651,6.31 10.469,10.558 18.284,10.558c7.815,0 14.633,-4.248 18.284,-10.558c-3.651,-6.31 -10.469,-10.558 -18.284,-10.558Zm0,17.701c-3.945,0 -7.143,-3.198 -7.143,-7.143c0,-3.945 3.198,-7.143 7.143,-7.143c3.945,0 7.143,3.198 7.143,7.143c0,3.945 -3.198,7.143 -7.143,7.143Zm2.479,-7.143c0,-1.369 -1.11,-2.479 -2.479,-2.479c-1.369,0 -2.479,1.11 -2.479,2.479c0,1.369 1.11,2.479 2.479,2.479c1.369,0 2.479,-1.11 2.479,-2.479Z" style="" fill-rule="nonzero"></path></svg>