<svg height='100px' width='100px'  fill="#000000" xmlns="http://www.w3.org/2000/svg" xmlns:xlink="http://www.w3.org/1999/xlink" version="1.1" x="0px" y="0px" viewBox="0 0 512 512" style="enable-background:new 0 0 512 512;" xml:space="preserve"><g><g><g><path d="M78.3,318c-33.9,0-61.6-27.6-61.6-61.5c0-33.9,27.6-61.5,61.6-61.5c33.9,0,61.5,27.6,61.5,61.5     C139.9,290.4,112.3,318,78.3,318z M78.3,214.2c-23.4,0-42.4,19-42.4,42.3c0,23.4,19,42.3,42.4,42.3c23.3,0,42.3-19,42.3-42.3     C120.7,233.1,101.7,214.2,78.3,214.2z"></path></g><g><path d="M256.5,318c-33.9,0-61.6-27.6-61.6-61.5c0-33.9,27.6-61.5,61.6-61.5s61.6,27.6,61.6,61.5     C318.1,290.4,290.4,318,256.5,318z M256.5,214.2c-23.4,0-42.4,19-42.4,42.3c0,23.4,19,42.3,42.4,42.3s42.4-19,42.4-42.3     C298.9,233.1,279.9,214.2,256.5,214.2z"></path></g><g><path d="M434.6,318c-33.9,0-61.5-27.6-61.5-61.5c0-33.9,27.6-61.5,61.5-61.5c33.9,0,61.6,27.6,61.6,61.5     C496.2,290.4,468.6,318,434.6,318z M434.6,214.2c-23.3,0-42.3,19-42.3,42.3c0,23.4,19,42.3,42.3,42.3c23.4,0,42.4-19,42.4-42.3     C477,233.1,458,214.2,434.6,214.2z"></path></g></g></g></svg>