<?xml version="1.0" encoding="utf-8"?>
<!-- Generator: Adobe Illustrator 25.2.1, SVG Export Plug-In . SVG Version: 6.00 Build 0)  -->
<svg version="1.1" id="Layer_1" xmlns="http://www.w3.org/2000/svg" xmlns:xlink="http://www.w3.org/1999/xlink" x="0px" y="0px"
	 viewBox="0 0 100 100" style="enable-background:new 0 0 100 100;" xml:space="preserve"  fill="#004D62">
<g transform="translate(0 -956.36218)">
	<path d="M16,974.5c-2.7,0-4.9,2.1-4.9,4.9v53.8c0,2.7,2.2,4.9,4.9,4.9h14.7v12.2c0,0.2,0,0.2,0.1,0.4c0,0.1,0,0.1,0,0.2
		c0.1,0.1,0.1,0.2,0.1,0.3c0,0,0,0,0.1,0c0,0.2,0.1,0.3,0.2,0.4l0,0c0.1,0.2,0.2,0.2,0.3,0.4c0.1,0.1,0.2,0.2,0.3,0.3l0,0
		c0.2,0.1,0.3,0.1,0.4,0.2c0.2,0.1,0.2,0.1,0.4,0.1c0,0.1,0.1,0.1,0.1,0.1c0.4,0.1,0.7,0.1,1.1-0.1c0.2,0,0.3-0.1,0.5-0.2
		c0.2-0.1,0.4-0.2,0.6-0.4l14-13.9h35.6c2.7,0,4.9-2.2,4.9-4.9v-53.8c0-2.8-2.2-4.9-4.9-4.9H16z M18.4,979.4H82
		c1.4,0,2.4,1.1,2.4,2.4v48.9c0,1.3-1.1,2.4-2.4,2.4H47.8c-0.7,0-1.2,0.2-1.7,0.7l-10.5,10.5v-8.7c0-1.4-1.1-2.4-2.4-2.4H18.4
		c-1.4,0-2.4-1.1-2.4-2.4v-48.9C16,980.5,17,979.4,18.4,979.4z"/>
	<rect x="47.8" y="989.2" width="4.9" height="34.3"/>
	<rect x="33.1" y="1003.9" width="34.3" height="4.9"/>
</g>
</svg>
