<svg height='100px' width='100px'  fill="#002337" xmlns="http://www.w3.org/2000/svg" data-name="Layer 1" viewBox="0 0 100 100" x="0px" y="0px"><title>06</title><g data-name="Group"><path data-name="Compound Path" d="M92.2,7.2H25a3,3,0,0,0-3,3V24.3H7.8a3,3,0,0,0-3,3V75.6a3,3,0,0,0,3,3h9.1V89.8a2.9,2.9,0,0,0,1.7,2.7,2.8,2.8,0,0,0,1.3.3,3,3,0,0,0,1.8-.6L39.1,78.6H75a3,3,0,0,0,3-3V61.5H92.2a3,3,0,0,0,3-3V10.2A3,3,0,0,0,92.2,7.2ZM72,72.6H38.1a2.8,2.8,0,0,0-1.8.6L22.9,83.7V75.6a3,3,0,0,0-3-3H10.8V30.3H72Z"></path><rect data-name="Path" x="18.5" y="40.3" width="24.1" height="6"></rect><rect data-name="Path" x="18.5" y="55.9" width="45.3" height="6"></rect></g></svg>