<?xml version="1.0" encoding="utf-8"?>
<!-- Generator: Adobe Illustrator 25.2.1, SVG Export Plug-In . SVG Version: 6.00 Build 0)  -->
<svg version="1.1" id="Layer_1" xmlns:serif="http://www.serif.com/"
	 xmlns="http://www.w3.org/2000/svg" xmlns:xlink="http://www.w3.org/1999/xlink" x="0px" y="0px" viewBox="0 0 100 100"
	 style="enable-background:new 0 0 100 100;" xml:space="preserve">
<style type="text/css">
	.st0{fill:#002337;}
	.st1{fill:none;}
	.st2{fill:#FFFFFF;}
</style>
<circle class="st0" cx="50" cy="50.1" r="50"/>
<rect x="0.5" y="0.5" serif:id="Page 71" class="st1" width="99" height="99">
</rect>
<path class="st2" d="M88.3,74.5H11.7c-1.4-0.1-2.4-1.6-1.7-3L48.3,5.1c0.6-0.9,0.7-1,1.8-1c1,0.1,1.1,0.2,1.6,1l38.3,66.4
	C90.7,72.8,89.8,74.4,88.3,74.5z M50,39.3c-7.7,0-14.5,4.2-18.1,10.5C35.5,56,42.3,60.2,50,60.2S64.5,56,68.1,49.8
	C64.5,43.5,57.7,39.3,50,39.3z M50,56.8c-3.9,0-7.1-3.2-7.1-7.1s3.2-7.1,7.1-7.1s7.1,3.2,7.1,7.1C57.1,53.7,53.9,56.8,50,56.8z
	 M52.5,49.8c0-1.4-1.1-2.5-2.5-2.5s-2.5,1.1-2.5,2.5c0,1.4,1.1,2.5,2.5,2.5S52.5,51.1,52.5,49.8z"/>
</svg>
