<?xml version="1.0" encoding="utf-8"?>
<!-- Generator: Adobe Illustrator 25.4.1, SVG Export Plug-In . SVG Version: 6.00 Build 0)  -->
<svg version="1.1" id="Layer_1" xmlns="http://www.w3.org/2000/svg" xmlns:xlink="http://www.w3.org/1999/xlink" x="0px" y="0px"
	 viewBox="0 0 256 256" style="enable-background:new 0 0 256 256;" xml:space="preserve">
<style type="text/css">
	.st0{fill:#002338;}
	.st1{display:none;}
	.st2{display:inline;}
	.st3{fill:#FFFFFF;}
</style>
<path class="st0" d="M120.8,21.8L13.7,207.3c-3.2,5.6,0.8,12.5,7.2,12.5h214.2c6.4,0,10.5-7,7.2-12.5L135.2,21.8
	C132,16.2,124,16.2,120.8,21.8z"/>
<g id="Layer_1_copy" class="st1">
	<g class="st2">
		<path d="M122.7,178.8v-60.5H61.8v60.5H37.9V39.5h23.9v56.3h60.9V39.5h23.7v139.3H122.7z"/>
		<path d="M184.6,208v-65.5h-0.4l-14.3,7l-2.2-10.3l18.7-8.8h12.1V208H184.6z"/>
	</g>
</g>
<g>
	<path class="st3" d="M109.2,187.3c0-0.4,0.2-0.7,0.5-0.9c0.3-0.2,0.4-0.7,0.2-1.4c0.7,0.3,1.2,0.9,1.4,1.8c0.5-0.2,0.7-0.7,0.6-1.4
		c-0.1-0.7,0.3-1.3,1.1-1.7c0.8-0.2,1.1-0.2,1,0.1c-0.2,0.3-0.1,0.4,0.1,0.5c0.6,0.2,0.9,0.1,0.9-0.3c0-0.4,0-0.8,0.2-1.1
		c0.4-0.4,0.6-0.9,0.6-1.4c-0.1-0.3-0.2-0.4-0.3-0.2c-0.1,0.2-0.2,0.1-0.3-0.2c-0.1-0.3,0-0.6,0.4-0.8c0.4-0.2,0.6-0.4,0.7-0.6
		c0.2-0.5,0.5-0.9,0.9-1.2c0.4-0.4,1.1-0.7,2.1-0.9c1-0.2,2-0.2,3,0.2c0,0.1,0.2,0.3,0.5,0.5c0.4,0.3,0.7,0.5,1.1,0.7
		c1,0.7,2.1,1.4,3.2,2.1c0.1,0.1,0.2,0.2,0.3,0.4c0.1,0.2,0.2,0.3,0.3,0.4c0.6,0.3,1.3,0.8,2,1.4c0.7,0.6,1.3,1.2,1.8,1.7
		c0.3,0.1,0.7,0.3,1.1,0.5c0.1,0.2,0.1,0.4,0,0.5c-0.1,0.2-0.1,0.2,0,0.2h0.8c0.6,0.5,1.1,1.2,1.5,2.2c0.4,1,0.5,2.2,0.3,3.7
		c-0.3-0.1-0.5-0.1-0.5,0.1c-0.1,0.2-0.1,0.3-0.1,0.5c0,0.2,0,0.4-0.1,0.5c-0.1,0.1-0.2,0-0.5-0.3c-0.2,0.3-0.3,0.7-0.3,1.1
		c0,0.4-0.1,0.8-0.3,1.1c0,0.1-0.1,0.2-0.4,0.2c-0.3,0-0.4,0-0.4,0.2v0.3v0.5c-0.3,0.3-0.7,0.7-1.3,1.3c-0.6,0.6-0.9,0.8-1.1,0.8
		c-0.6,0.3-1.7,0.5-3.4,0.5c-1.7,0-3.1,0-4.2-0.2c-0.2-0.1-0.5-0.2-0.8-0.4c-0.4-0.2-0.6-0.3-0.8-0.5c-0.2-0.1-0.5-0.2-0.8-0.2
		s-0.6,0-0.8,0c-0.1-0.1-0.2-0.3-0.4-0.5c-0.2-0.2-0.3-0.4-0.5-0.5c-0.2,0-0.4,0-0.5,0.1c-0.2,0.1-0.3,0-0.4-0.1
		c-0.1,0-0.2-0.1-0.2-0.2c0-0.2-0.1-0.2-0.3-0.2c-0.4-0.4-0.8-0.7-1.3-0.8c-0.5-0.2-0.8-0.3-1-0.5c-0.2-0.1-0.3-0.3-0.3-0.5
		c0-0.2-0.2-0.5-0.5-0.9l-0.5-0.2c-0.2-0.2-0.6-0.6-1.1-1.1c-0.5-0.5-0.9-0.9-1.2-1.1c-0.3-0.4-0.6-1-0.8-1.7
		C110.1,188.6,109.7,187.9,109.2,187.3z M116.1,180.4c-0.3,0.1-0.4,0.2-0.2,0.2C116,180.7,116.1,180.6,116.1,180.4
		c0.2-0.1,0.3-0.2,0.2-0.2C116.1,180.1,116.1,180.2,116.1,180.4z M118,187.3c0.1,0.6,0.2,1.1,0.3,1.6c0.1,0.5,0.1,1.1,0,1.9
		c0.9,0.2,1.5,0.1,1.8-0.4c0.3-0.5,0.7-0.8,1.2-1c-0.1-0.8-0.6-1.2-1.4-1.3C119.2,188,118.5,187.8,118,187.3
		c-0.4-0.2-0.7-0.6-0.8-1.3c-0.2-0.7-0.5-0.8-1.1-0.5c0,0.5,0.2,0.8,0.5,0.9c0.4,0.1,0.4,0.4,0.1,0.9H118z M142.5,84.6
		c-0.2,1.4-0.5,2.9-0.9,4.4c-0.4,1.5-0.9,3-1.4,4.4c-0.2,0.8-0.4,1.6-0.6,2.4c-0.2,0.8-0.4,1.5-0.6,2.4c-0.2,0.7-0.4,1.4-0.5,2.2
		c-0.1,0.8-0.3,1.5-0.5,2.4c-0.8,3.1-1.6,6.2-2.5,9.2c-0.9,3-1.6,6.1-2.4,9.3c-0.8,3.5-1.5,7.1-2.2,10.6c-0.7,3.5-1,7.2-1.1,11
		c0,0.1-0.1,0.2-0.2,0.3c-0.2,0.2-0.3,0.3-0.2,0.3c0.2,0.1,0.3,0.4,0.3,1c0,0.6-0.1,1.2-0.2,2c-0.1,0.8-0.2,1.5-0.3,2.2
		c-0.1,0.7-0.2,1.3-0.2,1.7c0,1,0.1,2,0.2,2.8c0.2,0.9,0.2,1.8,0.1,2.8c-0.1,0.5-0.2,1-0.4,1.6c-0.2,0.6-0.2,1.2-0.2,1.9
		c-0.6-0.5-0.9-0.5-1-0.1c-0.1,0.5-0.2,0.9-0.4,1.4c-0.2-0.4-0.6-0.7-1.2-0.9c-0.6-0.2-0.8,0.2-0.6,1.2c-0.8-0.1-1.3-0.4-1.6-0.8
		c-0.3-0.5-0.5-1-0.7-1.7c-0.6,0.5-0.9,0.6-0.9,0.3c0-0.3-0.2-0.6-0.6-0.8c-0.3,0.1-0.4,0.2-0.2,0.3c0.2,0.1,0.2,0.3,0.2,0.6
		c-0.7,0-1.1-0.3-1.1-0.8c-0.1-0.5-0.2-1-0.5-1.4c-0.1-0.2-0.2-0.3-0.4-0.3c-0.2,0-0.2-0.1-0.2-0.2c-0.6-0.9-1-1.9-1.3-3
		c-0.3-1.1-0.5-2.4-0.7-3.8c-0.2-1.8-0.3-3.5-0.4-5.1c-0.1-1.6,0-3.2,0.1-4.8c0.1-1.4,0.2-3,0.2-4.8c0-1.8,0.2-3.4,0.5-4.9
		c0.1-0.2,0.3-0.5,0.5-0.8c0.2-0.3,0.3-0.6,0.3-0.9c0.1-0.2,0-0.4-0.2-0.5c-0.2-0.2-0.3-0.3-0.3-0.5c0-0.1,0.1-0.3,0.2-0.5
		c0.2-0.3,0.2-0.5,0.2-0.7c0-0.2-0.1-0.5-0.2-1c-0.2-0.5-0.2-0.8-0.2-1c0.1-0.4,0.2-0.7,0.4-1c0.2-0.3,0.3-0.6,0.4-1
		c0.2-0.8,0.3-1.6,0.3-2.4c0-0.8,0.1-1.7,0.3-2.6c0.1-0.7,0.2-1.3,0.4-1.8c0.2-0.5,0.1-1.1-0.1-1.8c0.5-0.7,0.8-1.7,0.9-3.1
		c0.1-1.4,0.4-2.8,0.8-4.2c0.2-1.4,0.5-2.7,0.9-3.8c0.4-1.1,0.6-2.5,0.6-4.1c0-0.2,0-0.3,0.2-0.4c0.1,0,0.2-0.2,0.2-0.4
		c-0.1,0-0.2,0-0.2-0.2c-0.1-0.1-0.2-0.2-0.2-0.3c0.1-1,0.3-2,0.7-3c0.4-1,0.7-2,1-3c0.2-0.9,0.4-1.7,0.6-2.4
		c0.2-0.7,0.6-1.3,1.1-1.8c0-0.1,0-0.3-0.1-0.5c-0.1-0.2,0-0.4,0.1-0.5c0.1,0.2,0.2,0.3,0.3,0.3c0.2,0.2,0.3,0.1,0.3-0.5
		c0.2-0.2,0.3-0.4,0.4-0.5c0-0.2,0.2-0.3,0.4-0.5c0.7,0.1,1.3,0,1.9-0.4c0.6-0.4,1.1-0.6,1.7-0.7c0.2-0.1,0.3-0.1,0.4,0.1
		c0,0.2,0.2,0.2,0.4,0.1l0.3-0.2c0.1,0,0.2,0.1,0.2,0.2c0.1,0.1,0.2,0.1,0.4,0c0.2,0,0.6,0,1.1-0.1c0.5,0,1-0.1,1.4-0.1
		c0.1,0,0.2,0,0.3-0.1c0.1,0,0.2-0.1,0.3-0.1c0.1,0,0.2,0,0.2-0.2c0.6,0.1,1.2,0.2,1.7,0.2c0.5,0,0.9,0,1.3,0.1
		c0.4,0.1,0.6,0.1,0.8,0.1c0.5,0.1,0.9,0.3,1.1,0.6C141.6,84.3,142,84.5,142.5,84.6z M122.1,96c-0.1-0.2-0.1-0.4,0.1-0.5
		c0.2-0.1,0.2-0.1,0.2,0c0.1,0.1,0.1,0.2,0,0.3C122.3,95.9,122.2,96,122.1,96z M122.7,93.7c0.3-0.3,0.5-0.3,0.5,0
		c0,0.2-0.1,0.3-0.2,0.3C122.8,94,122.7,93.9,122.7,93.7z M123.2,92.6c0.1-0.3,0.2-0.4,0.3-0.2c0.1,0.2,0.1,0.3,0,0.5
		c0,0.2-0.1,0.3-0.2,0.2C123.3,93,123.2,92.8,123.2,92.6z M123.8,91.3c0,0.2-0.1,0.3-0.2,0.2C123.6,91.5,123.6,91.4,123.8,91.3z
		 M123.8,91.3c0-0.2,0-0.3,0.2-0.2C124.1,91.1,124,91.2,123.8,91.3z M124.1,89.5c0.1-0.2,0.2-0.3,0.3-0.2c0.1,0.1,0.2,0.2,0.2,0.3
		c0,0.4-0.1,0.5-0.2,0.4C124.2,89.8,124.1,89.7,124.1,89.5z M124.9,87.8c0,0.3-0.1,0.4-0.2,0.4C124.5,88.1,124.6,88,124.9,87.8z
		 M124.9,87.8c-0.2-0.5-0.1-0.6,0.2-0.4C125.5,87.7,125.4,87.8,124.9,87.8z M125.2,86.6c0-0.4,0-0.5,0.2-0.3
		c0.1,0.2,0.2,0.4,0.2,0.5c-0.1,0.2-0.2,0.3-0.2,0.2C125.2,86.9,125.2,86.8,125.2,86.6z M136.1,117.9c-0.2-0.1-0.2-0.2-0.1-0.2
		c0.2,0,0.3,0,0.4,0.1c0.1,0.1,0.1,0.2-0.1,0.2C136.2,118,136.1,118,136.1,117.9z M139.3,103.9c0.1-0.2,0.2-0.3,0.2-0.3
		c0.1,0,0.1,0.1,0.1,0.3c0,0.2-0.1,0.3-0.2,0.2C139.4,104.1,139.3,104,139.3,103.9z M141.6,95.2c-0.2-0.2-0.1-0.3,0.3-0.3
		c0.1,0.1,0.1,0.2-0.1,0.3C141.7,95.3,141.6,95.3,141.6,95.2z M142.2,92.6c0-0.2,0.1-0.3,0.2-0.2c0.1,0.1,0.2,0.1,0.2,0.2
		C142.3,93.1,142.2,93.1,142.2,92.6z M142.8,86.7c0.3,0.2,0.4,0.4,0.2,0.5c-0.2,0.1-0.2,0.3-0.2,0.5c-0.3-0.2-0.4-0.4-0.3-0.5
		C142.6,87.1,142.7,86.9,142.8,86.7z M144.3,86.3c0,0.9-0.1,1.7-0.4,2.4c-0.3,0.7-0.5,1.5-0.7,2.3c-0.4-0.7-0.4-1.5-0.1-2.4
		c0.4-0.9,0.6-1.7,0.8-2.3H144.3z M144.3,86.3c0-0.3,0-0.5,0.1-0.5c0.1,0,0.1,0,0.2,0c0.1,0.1,0.2,0.2,0.2,0.3
		C144.8,86.2,144.6,86.3,144.3,86.3z"/>
</g>
</svg>
