<?xml version="1.0" encoding="utf-8"?>
<!-- Generator: Adobe Illustrator 24.3.0, SVG Export Plug-In . SVG Version: 6.00 Build 0)  -->
<svg version="1.1" id="Layer_1" xmlns="http://www.w3.org/2000/svg" xmlns:xlink="http://www.w3.org/1999/xlink" x="0px" y="0px"
	 viewBox="0 0 100 100" style="enable-background:new 0 0 100 100;" xml:space="preserve">
<style type="text/css">
	.st0{opacity:0.37;fill:#FFFFFF;}
</style>
<circle class="st0" cx="50" cy="50" r="46.9"/>
<g>
	<path d="M50,56.9c5.3,0,10-3.8,13-9.6c1.6-3.2,2.7-7,3-11.2c0.1-0.8,0.2-1.5,0.2-2.3l-1-0.2H65l-5.4-0.7c3-1.7,1.4-5.5,0.7-6.7
		c-0.2-0.4-0.4-0.6-0.4-0.6c0,0-0.1,0.1-0.1,0.1c-8.5,6.1-15.4,8.4-15.4,8.4c-3.8,1.5-10.2,2.6-10.2,2.6
		C35.2,48.1,41.9,56.9,50,56.9z"/>
	<path d="M21.7,63.6c1.8-1.6,3.9-3,6.1-4c-3,0.1-5.2,0.2-5.2,0.2c8.2-4.5,8-20.7,8-20.7C29.4,10.7,46.3,9.4,49.5,9.4
		c0.3,0,0.5,0,0.5,0l0,0l0,0c0,0,0.2,0,0.5,0c3.2,0,20.1,1.3,18.8,29.8c0,0-0.2,16.2,8,20.7c0,0-3.6-0.7-7.7-1.2
		c3.2,1,6.2,2.7,8.7,4.9c4.5,4,7.5,9.6,8,16c6.6-8.1,10.6-18.4,10.6-29.7c0-25.9-21-46.9-46.9-46.9S3.1,24.1,3.1,50
		c0,11.3,4,21.6,10.6,29.7C14.2,73.3,17.2,67.6,21.7,63.6z"/>
</g>
</svg>
