<?xml version="1.0" encoding="utf-8"?>
<!-- Generator: Adobe Illustrator 25.2.1, SVG Export Plug-In . SVG Version: 6.00 Build 0)  -->
<svg version="1.1" id="Layer_1" xmlns="http://www.w3.org/2000/svg" xmlns:xlink="http://www.w3.org/1999/xlink" x="0px" y="0px"
	 viewBox="0 0 100 100" style="enable-background:new 0 0 100 100;" xml:space="preserve">
<style type="text/css">
	.st0{fill:#002337;}
</style>
<g>
	<path class="st0" d="M50,0C22.4,0,0,22.4,0,50s22.4,50,50,50s50-22.4,50-50S77.6,0,50,0z M50,94.1c-8.9,0-17.2-2.7-24.2-7.2
		c-4.5-2.9-8.4-6.7-11.5-11c0-0.2,0.1-0.4,0.1-0.6C16,70,18,66.7,20,64.5c3.3-3.5,6.6-3.8,7.6-4c0.2,0,0.4-0.1,0.6-0.1
		c0.6-0.6,1.1-1.4,1.5-2.3c0.9-2.4,1.2-5.8,1.2-9.1c-0.1-6-1.1-12-1.1-12l0,0c0-0.8,0-1.6,0.1-2.4c0-0.3,0-0.5,0-0.7
		c0-0.5,0.1-1.1,0.1-1.6c0-0.3,0-0.5,0.1-0.8c0-0.5,0.1-0.9,0.2-1.4c0-0.2,0.1-0.5,0.1-0.7c0.1-0.5,0.1-0.9,0.2-1.3
		c0-0.2,0.1-0.4,0.1-0.6c0.1-0.6,0.2-1.2,0.4-1.7c0,0,0,0,0-0.1c0.1-0.6,0.3-1.1,0.5-1.7c0-0.2,0.1-0.3,0.2-0.5
		c0.1-0.4,0.3-0.7,0.4-1.1c0.1-0.2,0.1-0.3,0.2-0.5c0.1-0.3,0.3-0.6,0.4-0.9c0.1-0.2,0.1-0.3,0.2-0.5c0.1-0.3,0.3-0.6,0.5-0.9
		c0.1-0.1,0.1-0.3,0.2-0.4c0.2-0.4,0.4-0.7,0.7-1.1c0,0,0-0.1,0-0.1c0.2-0.4,0.5-0.7,0.8-1c0.1-0.1,0.1-0.2,0.2-0.3
		c0.2-0.2,0.4-0.5,0.6-0.7c0.1-0.1,0.2-0.2,0.3-0.3c0.2-0.2,0.4-0.4,0.5-0.6c0.1-0.1,0.2-0.2,0.3-0.3c0.2-0.2,0.4-0.3,0.6-0.5
		c0.1-0.1,0.2-0.1,0.3-0.2c0.3-0.2,0.5-0.4,0.8-0.6c0,0,0.1,0,0.1-0.1c0.3-0.2,0.6-0.4,0.9-0.6c0.1,0,0.1-0.1,0.2-0.1
		c0.2-0.1,0.4-0.2,0.6-0.4c0.1-0.1,0.2-0.1,0.3-0.1c0.2-0.1,0.4-0.2,0.6-0.3c0.1,0,0.2-0.1,0.3-0.1c0.2-0.1,0.4-0.2,0.6-0.2
		c0.1,0,0.2-0.1,0.3-0.1c0.2-0.1,0.5-0.2,0.7-0.2c0,0,0.1,0,0.1,0c0.3-0.1,0.5-0.2,0.8-0.2c0.1,0,0.1,0,0.2,0c0.2,0,0.4-0.1,0.6-0.1
		c0.1,0,0.2,0,0.3,0c0.2,0,0.3-0.1,0.5-0.1c0.1,0,0.2,0,0.3,0c0.1,0,0.3,0,0.4-0.1c0.1,0,0.2,0,0.2,0c0.2,0,0.3,0,0.4,0
		c0.1,0,0.1,0,0.2,0c0.2,0,0.4,0,0.5,0c0.1,0,0.1,0,0.2,0c0.1,0,0.2,0,0.3,0c0.4,0,0.7,0,1,0c0,0,0.1,0,0.1,0c0.1,0,0.2,0,0.2,0
		c0,0,0,0,0.1,0c0,0,0.1,0,0.1,0c0.2,0,0.5,0,0.7,0c0.2,0,0.5,0,0.7,0c0,0,0,0,0.1,0c0,0,0,0,0.1,0c0,0,0.1,0,0.2,0c0,0,0,0,0.1,0
		c0.2,0,0.6,0,1,0c0.1,0,0.2,0,0.3,0c0.1,0,0.1,0,0.2,0c0.2,0,0.3,0,0.5,0c0.1,0,0.1,0,0.2,0c0.1,0,0.3,0,0.4,0c0.1,0,0.2,0,0.3,0
		c0.1,0,0.3,0,0.4,0c0.1,0,0.2,0,0.3,0c0.1,0,0.3,0,0.4,0.1c0.1,0,0.2,0,0.3,0.1c0.2,0,0.3,0.1,0.5,0.1c0.1,0,0.2,0,0.2,0.1
		c0.3,0.1,0.5,0.1,0.8,0.2c0.1,0,0.1,0,0.2,0.1c0.2,0.1,0.4,0.1,0.6,0.2c0.1,0,0.2,0.1,0.3,0.1c0.2,0.1,0.4,0.1,0.5,0.2
		c0.1,0,0.2,0.1,0.3,0.1c0.2,0.1,0.4,0.2,0.5,0.3c0.1,0.1,0.2,0.1,0.3,0.2c0.2,0.1,0.4,0.2,0.6,0.3c0.1,0,0.2,0.1,0.2,0.1
		c0.3,0.2,0.6,0.4,0.9,0.5c0,0,0.1,0.1,0.1,0.1c0.2,0.2,0.5,0.3,0.7,0.5c0.1,0.1,0.2,0.1,0.3,0.2c0.2,0.2,0.4,0.3,0.6,0.5
		c0.1,0.1,0.2,0.2,0.3,0.3c0.2,0.2,0.4,0.3,0.5,0.5c0.1,0.1,0.2,0.2,0.3,0.3c0.2,0.2,0.4,0.4,0.6,0.7c0.1,0.1,0.2,0.2,0.2,0.3
		c0.3,0.3,0.5,0.7,0.8,1c0,0,0,0.1,0.1,0.1c0.2,0.3,0.4,0.7,0.6,1c0.1,0.1,0.1,0.3,0.2,0.4c0.2,0.3,0.3,0.6,0.5,0.9
		c0.1,0.2,0.2,0.3,0.2,0.5c0.1,0.3,0.3,0.6,0.4,0.9c0.1,0.2,0.1,0.3,0.2,0.5c0.1,0.3,0.3,0.7,0.4,1.1c0.1,0.2,0.1,0.3,0.2,0.5
		c0.2,0.5,0.3,1.1,0.5,1.7c0,0,0,0,0,0.1c0.1,0.6,0.3,1.1,0.4,1.7c0,0.2,0.1,0.4,0.1,0.6c0.1,0.4,0.2,0.9,0.2,1.3
		c0,0.2,0.1,0.5,0.1,0.7c0.1,0.4,0.1,0.9,0.2,1.4c0,0.3,0.1,0.5,0.1,0.8c0,0.5,0.1,1,0.1,1.6c0,0.2,0,0.5,0,0.7c0,0.8,0,1.6,0,2.4
		c0,0,0,0,0,0s-1.1,6-1.1,12c0,3.4,0.3,6.7,1.2,9.1c0.4,0.9,0.9,1.7,1.5,2.3c0.2,0,0.4,0.1,0.6,0.1c1,0.2,4.3,0.5,7.6,4.1
		c2,2.2,4,5.5,5.6,10.8c0.1,0.2,0.1,0.4,0.1,0.6c-3.1,4.3-7,8-11.5,11C67.2,91.5,58.9,94.1,50,94.1z"/>
	<path class="st0" d="M60.1,56.6c-0.2-0.4-0.3-0.8-0.3-1.3c0,0,0,0,0,0c-1.7,1.7-3.5,3-5.5,3.7c-1.3,0.5-2.8,0.8-4.2,0.8
		c-1.4,0-2.9-0.3-4.2-0.8c-0.6-0.2-1.2-0.6-1.8-0.9c-0.8-0.4-1.5-1-2.2-1.5c-0.5-0.4-1-0.9-1.5-1.4c0,0,0,0,0,0
		c0,2.1-1.6,3.2-2.6,3.8c-0.1,0.1-0.2,0.1-0.4,0.2c-0.3,0.1-0.5,0.2-0.6,0.2c0,0,0,0,0,0c0.1,0.5,0.3,1,0.7,1.5
		c1.8,2.3,6.7,5.5,12.6,5.5c5.8,0,10.8-3.3,12.6-5.5c0.4-0.5,0.6-1,0.7-1.5c0,0,0,0,0,0c0,0,0,0,0,0c-0.4-0.2-1.6-0.7-2.5-1.6
		C60.5,57.4,60.3,57,60.1,56.6z"/>
	<path class="st0" d="M65.6,35.7c-0.1,0-0.1,0-0.2-0.1l-1.7,1.6L43.3,26.7c-6.7-0.6-7.8,8.4-7.9,9.2c0,0,0,0.1,0,0.1
		c-0.2-0.2-0.5-0.3-0.7-0.2c-0.1,0-0.2,0.1-0.3,0.1c-0.5,0.3-0.8,1.4-0.7,2.6c0,0.4,0.1,0.9,0.1,1.3c0.3,1.4,0.8,2.6,1.4,3.1
		c0.3,0.3,0.6,0.4,0.9,0.4c0.1,0,0.3-0.1,0.4-0.2c1.4,4.2,4,8.5,7.3,11c1.9,1.5,4.1,2.4,6.4,2.4c2.3,0,4.4-0.9,6.4-2.4
		c3.3-2.6,5.9-6.8,7.3-11.1c0.1,0.1,0.2,0.2,0.4,0.2c0.2,0,0.5-0.1,0.7-0.3c0.6-0.5,1.2-1.8,1.5-3.3c0.1-0.5,0.1-1,0.1-1.4
		c0-0.3,0-0.6,0-0.9C66.3,36.5,66,35.9,65.6,35.7z"/>
</g>
</svg>
