<?xml version="1.0" encoding="utf-8"?>
<!-- Generator: Adobe Illustrator 25.2.3, SVG Export Plug-In . SVG Version: 6.00 Build 0)  -->
<svg version="1.1" id="Layer_1" xmlns="http://www.w3.org/2000/svg" xmlns:xlink="http://www.w3.org/1999/xlink" x="0px" y="0px"
	 viewBox="0 0 256 256" style="enable-background:new 0 0 256 256;" xml:space="preserve">
<style type="text/css">
	.st0{fill:#002337;}
</style>
<g>
	<path class="st0" d="M37.1,38h69.5c16.8,0,29.2,3.8,37,11.5c7.8,7.7,11.7,17.2,11.7,28.5c0,15.2-5.5,25.3-16.6,30.5
		c7.2,2.7,12.5,7.1,16.1,13.3c3.6,6.2,5.4,12.6,5.4,19.4c0,12.2-4.1,22.6-12.4,31.3c-8.3,8.6-21.1,12.9-38.3,12.9H37.1V38z
		 M103.4,95.5c12.8,0,19.2-4.6,19.2-13.9c0-9.1-5.3-13.7-15.8-13.7H69.1v27.6H103.4z M110.8,155.3c5.9,0,10.2-1.5,12.8-4.4
		c2.7-3,4-6.4,4-10.3c0-10.8-7.5-16.2-22.5-16.2h-36v31H110.8z"/>
</g>
<rect x="37.1" y="204.8" class="st0" width="181" height="14"/>
</svg>
