<svg height='100px' width='100px'  fill="#000000" xmlns="http://www.w3.org/2000/svg" xmlns:xlink="http://www.w3.org/1999/xlink" xml:space="preserve" version="1.1" style="shape-rendering:geometricPrecision;text-rendering:geometricPrecision;image-rendering:optimizeQuality;" viewBox="0 0 847 847" x="0px" y="0px" fill-rule="evenodd" clip-rule="evenodd"><defs><style type="text/css">
   
    .fil0 {fill:#000000}
   
  </style></defs><g><path class="fil0" d="M137 201c22,-21 43,-42 64,-64 7,-7 19,-7 26,0 65,66 131,132 196,197 66,-65 131,-131 197,-197 7,-7 18,-7 25,0 22,22 43,43 64,64 7,7 7,19 0,26 -65,65 -131,131 -196,196 65,66 131,131 196,197 7,7 7,18 0,25 -21,22 -42,43 -64,64 -7,7 -18,7 -25,0 -66,-65 -131,-131 -197,-196 -65,65 -131,131 -196,196 -7,7 -19,7 -26,0 -21,-21 -42,-42 -64,-64 -7,-7 -7,-18 0,-25 66,-66 132,-131 197,-197 -65,-65 -131,-131 -197,-196 -7,-7 -7,-19 0,-26z"></path></g></svg>