<svg height='100px' width='100px'  fill="#002337" xmlns="http://www.w3.org/2000/svg" xmlns:xlink="http://www.w3.org/1999/xlink" version="1.1" x="0px" y="0px" viewBox="0 0 100 100" enable-background="new 0 0 100 100" xml:space="preserve"><g><path fill="none" stroke="#002337" stroke-width="3" stroke-miterlimit="10" d="M87.5,31.5c0-5.3-1.9-10.1-5.1-13.8   c1.7-1.6,3.5-2.9,5.5-4c-1.7-1.5-4.1-2.1-6.3-1.9c-1.5,0.2-3,0.7-4.4,1.4C74,11.2,70.2,10,66,10c-10.6,0-19.4,7.7-21.2,17.8   c-2.5-2.4-5.9-3.8-9.6-3.8c-1.7,0-3.3,0.3-4.9,0.9c-1.8-3.8-7.6-5.6-10.3-5.5c0.8,0.2,0.8,0.2,1.2,0.5c0.7,0.4,1.2,1.1,1.7,1.7   c1.3,1.8,2.4,3.7,3.2,5.7C23,29.9,21,33.8,21,38.2c0,3.8,1.5,7.3,4,9.9c-7.2,3.7-12,11.1-12,19.7c0,5.7,2.1,10.8,5.6,14.7   c-1.8,2.3-4.1,4.3-6.6,5.8c2,1.2,4.6,1.1,6.9,0.5c1.7-0.4,3.3-1,4.7-2.1c0,0,0,0,0,0C27,88.8,30.9,90,35.2,90   c10.6,0,19.4-7.4,21.6-17.3c2.6,2.4,6,3.9,9.8,3.9c2.1,0,4.1-0.5,5.9-1.3c0.4,2.1,1.7,4.1,3.4,5.3c2.3,1.7,5.3,2.2,8.1,1.6   c-3.4-2.5-5.9-6.2-7-10.2c2.3-2.5,3.7-5.9,3.7-9.6c0-4.7-2.3-8.8-5.8-11.4C82.4,47.6,87.5,40.2,87.5,31.5z M45.4,48.1   c1.2-1.3,2.2-2.7,2.9-4.4c2.3,3.4,5.6,6.1,9.4,7.7c-1.5,1.2-2.8,2.8-3.7,4.6C51.9,52.6,48.9,49.9,45.4,48.1z"></path><circle cx="25" cy="68.5" r="3.3"></circle><circle cx="34.5" cy="68.5" r="3.3"></circle><circle cx="44" cy="68.5" r="3.3"></circle><circle cx="57" cy="31.5" r="3.3"></circle><circle cx="66.5" cy="31.5" r="3.3"></circle><circle cx="75.9" cy="31.5" r="3.3"></circle><circle cx="28.9" cy="37.5" r="1.6"></circle><circle cx="34.5" cy="37.5" r="1.6"></circle><circle cx="40.1" cy="37.5" r="1.6"></circle><circle cx="60.8" cy="62.8" r="1.6"></circle><circle cx="66.5" cy="62.8" r="1.6"></circle><circle cx="72.1" cy="62.8" r="1.6"></circle></g></svg>