<svg height='100px' width='100px'  fill="#002337" xmlns="http://www.w3.org/2000/svg" xmlns:xlink="http://www.w3.org/1999/xlink" xml:space="preserve" version="1.1" style="shape-rendering:geometricPrecision;text-rendering:geometricPrecision;image-rendering:optimizeQuality;" viewBox="0 0 717 718" x="0px" y="0px" fill-rule="evenodd" clip-rule="evenodd"><defs><style type="text/css">
   
    .fil0 {fill:#002337}
   
  </style></defs><g><path class="fil0" d="M359 223c23,0 44,6 63,16 -17,8 -30,25 -30,46 0,28 23,50 51,50 18,0 34,-9 43,-24 5,15 8,31 8,48 0,75 -60,136 -135,136 -75,0 -136,-61 -136,-136 0,-75 61,-136 136,-136zm22 106c11,0 21,9 21,20 0,11 -10,20 -21,20 -11,0 -20,-9 -20,-20 0,-11 9,-20 20,-20z"></path><path class="fil0" d="M359 0c198,0 358,161 358,359 0,198 -160,359 -358,359 -199,0 -359,-161 -359,-359 0,-198 160,-359 359,-359zm0 127c126,0 229,103 229,230 0,126 -103,229 -229,229 -127,0 -229,-103 -229,-229 0,-127 102,-230 229,-230z"></path></g></svg>