<svg height='100px' width='100px'  fill="#002337" xmlns="http://www.w3.org/2000/svg" viewBox="0 0 64 64" x="0px" y="0px"><title>forum, conversation, chat, discussion</title><g><path d="M15.217,14.766a1,1,0,0,1,.753-1.2L18,13.106a1,1,0,1,1,.444,1.95l-2.033.462a.955.955,0,0,1-.223.026A1,1,0,0,1,15.217,14.766ZM8.451,17.309a.955.955,0,0,0,.223-.026l4.262-.972a1,1,0,0,0-.445-1.949l-4.262.972a1,1,0,0,0,.222,1.975ZM34.076,47.686H32.7a1,1,0,1,0,0,2h1.374a1,1,0,0,0,0-2Zm8.613,0H37.763a1,1,0,0,0,0,2h4.926a1,1,0,0,0,0-2ZM36.178,14.32a1,1,0,0,0-1.222-.975L8.381,19.4a1,1,0,0,0-.778.975V36.855a1,1,0,0,0,1,1h6.48a1,1,0,0,1,1,1v4.637l6.173-5.39a1,1,0,0,1,.659-.247h5.507V24.714a1,1,0,0,1,1.273-.962l6.483,1.836Zm-1,23.535a1,1,0,0,0,1-1V27.666l-5.756-1.63V37.855Zm20.643-4.627-17.643-5V38.855a1,1,0,0,1-1,1H30.422v5.831H43.486a1,1,0,0,1,.686.274l5.244,4.961.3-4.3a1,1,0,0,1,1-.932h4.839a1,1,0,0,0,1-1V34.191A1,1,0,0,0,55.821,33.228Z"></path></g></svg>