<?xml version="1.0" encoding="utf-8"?>
<!-- Generator: Adobe Illustrator 25.4.1, SVG Export Plug-In . SVG Version: 6.00 Build 0)  -->
<svg version="1.1" id="Layer_1" xmlns="http://www.w3.org/2000/svg" xmlns:xlink="http://www.w3.org/1999/xlink" x="0px" y="0px"
	 viewBox="0 0 512 512" style="enable-background:new 0 0 512 512;" xml:space="preserve">
<style type="text/css">
	.st0{fill:#004D62;}
</style>
<g>
	<polygon class="st0" points="249.5,512 55,212.8 77.8,211.5 221.1,442.5 239.3,421 239.3,320.1 249.6,287.2 259.8,320.1 259.8,421 
		281.4,433.9 416.8,211.5 444,213.2 	"/>
	<polygon class="st0" points="77.8,211.5 182.4,196 230.9,264.9 183.6,113.7 158.6,118.7 117.6,-0.3 55,212.8 	"/>
	<polygon class="st0" points="421.2,211.5 316.6,203.8 268.1,264.9 315.4,113.7 340.5,118.7 381.4,-0.3 444,212.8 	"/>
	<polyline class="st0" points="249.2,280.4 328.3,27.7 265.6,166.4 249.6,100.7 232.6,179.1 170,27.7 	"/>
	<ellipse class="st0" cx="175" cy="281" rx="16.5" ry="18.7"/>
	<ellipse class="st0" cx="329.8" cy="280.4" rx="16.5" ry="18.7"/>
</g>
</svg>
