<svg height='100px' width='100px'  fill="#002337" xmlns="http://www.w3.org/2000/svg" xmlns:xlink="http://www.w3.org/1999/xlink" version="1.1" x="0px" y="0px" viewBox="0 0 28 28" style="enable-background:new 0 0 28 28;" xml:space="preserve"><g id="false"><path d="M25.91,13.58c-0.58-1.26-1.36-2.42-2.31-3.43c-0.19-0.2-0.44-0.32-0.71-0.32c-0.28,0-0.54,0.1-0.73,0.29l-2.33,2.33   c0.14,0.49,0.21,1.02,0.21,1.56c0,0.41-0.04,0.82-0.12,1.2c-0.47,2.38-2.35,4.25-4.72,4.72c-0.38,0.08-0.79,0.12-1.2,0.12   c-0.54,0-1.07-0.07-1.56-0.21l-0.43,0.43c-0.27,0.27-0.36,0.67-0.23,1.05c0.12,0.36,0.44,0.62,0.83,0.66   c0.42,0.05,0.9,0.08,1.4,0.08c5.1,0,9.78-3,11.91-7.63C26.03,14.15,26.03,13.85,25.91,13.58z"></path><path d="M19.03,14c0-1.03-0.31-1.98-0.83-2.78l2.15-2.15l0.01-0.01l2.4-2.4c0.39-0.39,0.39-1.04,0-1.43   c-0.39-0.39-1.04-0.39-1.43,0l-1.9,1.9C17.74,6.35,15.88,5.95,14,5.95c-5.1,0-9.78,3-11.91,7.63c-0.12,0.27-0.12,0.57,0,0.85   c1.02,2.19,2.64,4.09,4.64,5.42l-1.5,1.5c-0.39,0.39-0.39,1.04,0,1.43c0.2,0.19,0.45,0.29,0.71,0.29s0.51-0.1,0.71-0.29l2.41-2.41   l0.01-0.01l2.14-2.14c0.8,0.51,1.75,0.83,2.78,0.83C16.78,19.03,19.03,16.78,19.03,14z M9.79,16.78c-0.51-0.8-0.83-1.75-0.83-2.78   c0-2.78,2.26-5.03,5.03-5.03c1.03,0,1.98,0.31,2.78,0.83V9.8l-1.48,1.48h-0.01c-0.39-0.2-0.83-0.3-1.29-0.3   c-1.66,0-3.02,1.36-3.02,3.02c0,0.46,0.1,0.9,0.3,1.29v0.01L9.79,16.78z M16.72,12.71c0.2,0.39,0.3,0.83,0.3,1.29   c0,1.66-1.36,3.02-3.02,3.02c-0.46,0-0.9-0.1-1.29-0.3L16.72,12.71z"></path></g></svg>