<?xml version="1.0" encoding="utf-8"?>
<!-- Generator: Adobe Illustrator 25.4.1, SVG Export Plug-In . SVG Version: 6.00 Build 0)  -->
<svg version="1.1" id="Layer_1" xmlns="http://www.w3.org/2000/svg" xmlns:xlink="http://www.w3.org/1999/xlink" x="0px" y="0px"
	 viewBox="0 0 100 100" style="enable-background:new 0 0 100 100;" xml:space="preserve">
<style type="text/css">
	.st0{fill:#002337;}
</style>
<g>
	<path class="st0" d="M58.3,16.8h-8.8c-1,0-1.8-0.8-1.8-1.8s0.8-1.8,1.8-1.8h8.8c1,0,1.8,0.8,1.8,1.8S59.3,16.8,58.3,16.8z"/>
</g>
<g>
	<path class="st0" d="M58.3,45.5h-3.6c-1,0-1.8-0.8-1.8-1.8s0.8-1.8,1.8-1.8h3.6c1,0,1.8,0.8,1.8,1.8S59.3,45.5,58.3,45.5z"/>
</g>
<g>
	<path class="st0" d="M66.9,95h-37c-5.1-0.2-9.2-2.4-11.4-6.1c-2.1-3.6-2.1-8.2,0-12.6l18.1-34.1V16.5c-0.3-0.6-0.9-1.4-1.4-2.2
		c-1.2-1.6-2.5-3.4-2-5.4c0.3-1.2,1.2-2.1,2.6-2.7C36.1,6.1,36.4,6,36.6,6h23c0.2,0,0.4,0,0.5,0.1c0.6,0.2,2.6,0.8,3.2,2.6
		c0.7,1.9-0.6,3.7-1.8,5.4c-0.6,0.8-1.2,1.6-1.4,2.3v25.7l18.1,34c2.3,4,2.6,8.1,0.8,11.6c-2,4-6.5,6.6-11.9,7.2
		C67,95,67,95,66.9,95z M37.1,9.6c-0.3,0.2-0.3,0.2-0.3,0.2c0,0.4,0.9,1.6,1.4,2.3c0.8,1.1,1.6,2.2,2,3.5c0.1,0.2,0.1,0.4,0.1,0.5
		v26.4c0,0.3-0.1,0.6-0.2,0.8L21.8,77.9c-1.6,3.3-1.7,6.5-0.2,9.1c1.6,2.6,4.6,4.2,8.4,4.4h36.8c4.1-0.4,7.5-2.4,9-5.2
		c1.2-2.4,1-5.3-0.7-8.2L56.8,43.5c-0.1-0.3-0.2-0.6-0.2-0.8V16.2c0-0.2,0-0.3,0.1-0.5c0.4-1.3,1.2-2.5,2-3.6
		c0.5-0.6,1.2-1.7,1.3-2.2c-0.1-0.1-0.3-0.2-0.6-0.3H37.1z"/>
</g>
<path class="st0" d="M70.8,79c-0.1-0.2-14.2-25.6-14.3-25.7c-1.8,0.4-4,1-9.1,0c-7.1-1.4-7.6,1-7.6,1c-0.6,1.1-13.5,24.4-13.5,24.5
	c-1.2,2.3-1.2,4.5,0,6.3c1.3,1.9,3.8,3,6.9,3.1h30.5c3.4-0.3,6.2-1.7,7.4-3.7C72,82.8,71.9,81,70.8,79z M41.6,56.3h6
	c1,0,1.8,0.8,1.8,1.8s-0.8,1.8-1.8,1.8h-6c-1,0-1.8-0.8-1.8-1.8S40.6,56.3,41.6,56.3z M41.8,62.8c0,0.4-0.3,0.8-0.8,0.8
	s-0.8-0.3-0.8-0.8c0-0.4,0.3-0.8,0.8-0.8S41.8,62.3,41.8,62.8z M36.1,67.1h11.7c1,0,1.8,0.8,1.8,1.8s-0.8,1.8-1.8,1.8H36.1
	c-1,0-1.8-0.8-1.8-1.8S35.1,67.1,36.1,67.1z M41,74.3c0,0.7-0.6,1.2-1.2,1.2c-0.7,0-1.2-0.6-1.2-1.2c0-0.7,0.6-1.2,1.2-1.2
	C40.5,73.1,41,73.6,41,74.3z M34.8,85.7c-0.4,0-0.7-0.3-0.7-0.7c0-0.4,0.3-0.7,0.7-0.7s0.7,0.3,0.7,0.7
	C35.5,85.4,35.2,85.7,34.8,85.7z M47.9,81.4H30.7c-1,0-1.8-0.8-1.8-1.8s0.8-1.8,1.8-1.8h17.1c1,0,1.8,0.8,1.8,1.8
	S48.9,81.4,47.9,81.4z M52.4,61.4c-0.9,0-1.6-0.7-1.6-1.6c0-0.9,0.7-1.6,1.6-1.6c0.9,0,1.6,0.7,1.6,1.6
	C53.9,60.8,53.2,61.4,52.4,61.4z M55.5,80c-0.9,0-1.6-0.7-1.6-1.6s0.7-1.6,1.6-1.6c0.9,0,1.6,0.7,1.6,1.6S56.4,80,55.5,80z
	 M60.1,72.2c-1.4,0-2.5-1.1-2.5-2.5s1.1-2.5,2.5-2.5s2.5,1.1,2.5,2.5S61.5,72.2,60.1,72.2z M63.9,84.7c-0.4,0-0.8-0.3-0.8-0.8
	c0-0.4,0.3-0.8,0.8-0.8s0.8,0.3,0.8,0.8C64.6,84.4,64.3,84.7,63.9,84.7z"/>
</svg>
