<svg height='100px' width='100px'  fill="#002337" xmlns="http://www.w3.org/2000/svg" xmlns:xlink="http://www.w3.org/1999/xlink" version="1.1" x="0px" y="0px" viewBox="0 0 100 100" style="enable-background:new 0 0 100 100;" xml:space="preserve"><g><path d="M49.323,58.615c0.01-0.793,0.003-1.588-0.005-2.383c-0.005-0.509-0.01-1.018-0.01-1.526V39.066   c0-0.69-0.56-1.214-1.25-1.214s-1.25,0.595-1.25,1.285v15.568c0,0.516,0.005,1.033,0.01,1.55c0.008,0.777,0.015,1.554,0.005,2.327   c-0.004,0.32,0.021,0.674,0.048,1.043c0.053,0.698,0.118,1.567-0.164,1.871c-0.346,0.371-1.332,0.592-2.035,0.45   c-0.531-0.105-1.047-0.417-1.311-0.763c-0.211-0.343-0.443-1.098-0.373-1.321c0.102-0.276,0.1-0.571,0.013-0.842   c0.114-0.541,0.284-1.065,0.559-1.549c0.305-0.532,0.696-1.008,1.166-1.417c0.291-0.254,0.322-0.696,0.068-0.988   c-0.255-0.292-0.696-0.322-0.988-0.069c-0.249,0.217-0.472,0.458-0.685,0.705c-0.074-0.262-0.08-0.495-0.069-0.645   c0.028-0.386-0.262-0.721-0.647-0.75c-0.362-0.022-0.721,0.261-0.749,0.647c-0.028,0.392,0.014,0.783,0.126,1.163   c0.095,0.324,0.253,0.619,0.442,0.898c-0.195,0.376-0.355,0.766-0.475,1.169c-0.058,0.005-0.116,0.002-0.175,0.015   c-0.305,0.036-2.361-0.229-3.7-2.268c-1.364-2.079-0.518-4.31-0.357-4.69c0.012,0.003,0.024,0.008,0.037,0.011   c0.16,0.039,0.313,0.071,0.462,0.097c0.041,0.007,0.082,0.011,0.122,0.011c0.333,0,0.629-0.239,0.688-0.58   c0.066-0.381-0.188-0.743-0.568-0.81c-0.119-0.021-0.243-0.046-0.372-0.078c-0.207-0.05-0.41-0.112-0.609-0.185   c-0.131-0.122-0.288-0.217-0.463-0.274c-1.628-0.531-2.725-1.949-2.729-3.527c-0.005-1.651,1.033-3.147,2.524-3.64   c0.113-0.038,0.217-0.093,0.313-0.159c0.127,0.097,0.24,0.21,0.372,0.3c0.81,0.553,1.635,0.916,2.421,1.162   c0.002,0.014,0.005,0.027,0.007,0.041c0.095,0.59,0.213,1.325,0.861,2.185c0.138,0.183,0.347,0.279,0.56,0.279   c0.146,0,0.294-0.046,0.421-0.141c0.309-0.233,0.37-0.672,0.137-0.98c-0.288-0.382-0.413-0.709-0.492-1.037   c0.46,0.068,0.888,0.103,1.262,0.112c0.006,0,0.012,0,0.017,0c0.379,0,0.69-0.303,0.7-0.684c0.009-0.387-0.297-0.707-0.684-0.716   c-1.136-0.027-2.824-0.288-4.42-1.376c-0.241-0.164-0.458-0.357-0.678-0.547c-0.06-0.19-0.162-0.367-0.308-0.512   c-1.13-1.12-1.873-3.085-1.106-4.674c0.614-1.271,2.075-2.047,3.667-1.963c0.213,0.015,0.418-0.027,0.611-0.098   c0.552,0.604,1.513,1.43,2.369,1.781c0.087,0.036,0.177,0.052,0.266,0.052c0.275,0,0.537-0.164,0.647-0.435   c0.146-0.358-0.024-0.767-0.382-0.913c-0.023-0.009-0.05-0.03-0.074-0.041c0.35-0.111,0.561-0.472,0.469-0.833   c-0.096-0.374-0.475-0.601-0.852-0.505c-0.335,0.085-0.646,0.229-0.941,0.406c-0.222-0.201-0.414-0.393-0.556-0.561   c0.072-0.282,0.071-0.582-0.027-0.867c-0.082-0.234-0.154-0.524-0.189-0.667c-0.003-0.009-0.027-0.104-0.029-0.112   c-0.193-0.699-0.223-1.347,0.262-2.24c0.194-0.359,0.463-0.667,0.777-0.888c1.242-0.874,2.358-0.521,2.915-0.231   c1.128,0.585,1.887,1.83,1.887,3.097v4.339c0,0.69,0.56,1.25,1.25,1.25s1.25-0.56,1.25-1.25V30.5c0-2.209-1.271-4.296-3.235-5.316   c-1.804-0.934-3.809-0.787-5.507,0.407c-0.628,0.443-1.159,1.045-1.535,1.741c-0.665,1.227-0.847,2.423-0.551,3.783   c-2.082,0.286-3.869,1.507-4.743,3.317c-0.922,1.913-0.673,4.298,0.552,6.234c-1.653,1.158-2.711,3.13-2.705,5.249   c0.007,2.248,1.286,4.288,3.284,5.39c-0.358,1.377-0.588,3.708,0.916,6c1.349,2.056,3.284,3.01,4.754,3.3   c0.167,0.992,0.654,1.852,0.794,2.036c0.672,0.89,1.711,1.53,2.851,1.757c0.297,0.06,0.621,0.09,0.958,0.09   c1.202,0,2.564-0.394,3.396-1.29c1.026-1.104,0.911-2.639,0.827-3.76C49.343,59.147,49.319,58.868,49.323,58.615z"></path><path d="M65.711,40.667c1.225-1.936,1.474-4.322,0.552-6.234c-0.874-1.81-2.66-3.031-4.742-3.317   c0.299-1.332,0.121-2.542-0.551-3.781c-0.377-0.697-0.908-1.299-1.537-1.743c-1.695-1.194-3.7-1.341-5.506-0.407   c-1.965,1.02-3.235,3.106-3.235,5.316v17.548c0,0.69,0.56,1.25,1.25,1.25s1.25-0.56,1.25-1.25V30.5   c0-1.267,0.759-2.511,1.887-3.097c0.557-0.289,1.675-0.643,2.914,0.231c0.315,0.222,0.584,0.529,0.779,0.89   c0.483,0.891,0.454,1.539,0.261,2.24c-0.003,0.008-0.027,0.102-0.029,0.11c-0.035,0.143-0.107,0.433-0.189,0.668   c-0.078,0.226-0.097,0.462-0.068,0.691c-0.139,0.159-0.312,0.332-0.516,0.516c-0.286-0.172-0.588-0.313-0.912-0.399   c-0.375-0.1-0.757,0.125-0.855,0.498c-0.094,0.355,0.108,0.711,0.448,0.831c-0.025,0.011-0.054,0.033-0.078,0.043   c-0.357,0.146-0.528,0.555-0.382,0.913c0.11,0.271,0.372,0.435,0.647,0.435c0.089,0,0.179-0.017,0.266-0.052   c0.783-0.321,1.653-1.04,2.218-1.622c0.229,0.111,0.487,0.168,0.762,0.158c1.596-0.085,3.052,0.691,3.666,1.962   c0.767,1.589,0.023,3.554-1.106,4.674c-0.146,0.145-0.248,0.322-0.308,0.512c-0.219,0.19-0.437,0.383-0.678,0.547   c-1.596,1.089-3.284,1.35-4.42,1.376c-0.387,0.009-0.692,0.33-0.684,0.716c0.01,0.381,0.321,0.684,0.7,0.684   c0.005,0,0.011,0,0.017,0c0.373-0.009,0.802-0.044,1.262-0.112c-0.08,0.328-0.205,0.655-0.492,1.037   c-0.233,0.309-0.172,0.748,0.137,0.98c0.127,0.095,0.274,0.141,0.421,0.141c0.213,0,0.422-0.096,0.56-0.279   c0.648-0.86,0.767-1.594,0.861-2.185c0.002-0.014,0.005-0.027,0.007-0.041c0.786-0.246,1.61-0.61,2.421-1.162   c0.132-0.09,0.245-0.203,0.372-0.3c0.096,0.066,0.199,0.122,0.313,0.159c1.491,0.493,2.529,1.989,2.524,3.64   c-0.005,1.579-1.102,2.997-2.729,3.528c-0.172,0.056-0.327,0.15-0.456,0.271c-0.201,0.074-0.407,0.138-0.618,0.189   c-0.127,0.031-0.251,0.056-0.37,0.077c-0.381,0.067-0.635,0.429-0.568,0.81c0.06,0.34,0.354,0.58,0.688,0.58   c0.04,0,0.081-0.003,0.122-0.011c0.148-0.026,0.302-0.058,0.46-0.096c0.013-0.003,0.025-0.008,0.038-0.011   c0.167,0.394,1.003,2.617-0.356,4.69c-1.336,2.036-3.367,2.314-3.662,2.275c-0.105-0.024-0.211-0.031-0.316-0.026   c-0.078-0.253-0.171-0.502-0.28-0.746c0.205-0.266,0.38-0.552,0.494-0.868c0.137-0.373,0.202-0.761,0.197-1.155   c-0.006-0.383-0.317-0.69-0.7-0.69c-0.003,0-0.006,0-0.01,0c-0.387,0.005-0.695,0.323-0.69,0.709   c0.003,0.216-0.034,0.43-0.107,0.639c-0.198-0.259-0.406-0.513-0.641-0.745c-0.276-0.271-0.72-0.268-0.99,0.008   c-0.271,0.275-0.268,0.719,0.008,0.99c0.443,0.436,0.806,0.936,1.077,1.484c0.242,0.492,0.378,1.015,0.46,1.55   c-0.014,0.168-0.006,0.338,0.044,0.5c0.071,0.225-0.161,0.98-0.337,1.273c-0.299,0.396-0.814,0.707-1.347,0.813   c-0.702,0.141-1.688-0.079-2.034-0.451c-0.282-0.304-0.217-1.173-0.164-1.871c0.027-0.369,0.052-0.723,0.048-1.042   c-0.01-0.76-0.003-1.981,0.005-2.744c0.007-0.69-0.547-1.256-1.237-1.263c-0.707,0.031-1.256,0.547-1.263,1.237   c-0.008,0.778-0.015,2.025-0.005,2.802c0.004,0.252-0.02,0.531-0.041,0.821c-0.084,1.121-0.199,2.657,0.827,3.76   c0.833,0.896,2.194,1.29,3.396,1.29c0.337,0,0.661-0.031,0.957-0.09c1.141-0.228,2.18-0.868,2.852-1.758   c0.139-0.184,0.626-1.043,0.794-2.036c1.47-0.29,3.405-1.244,4.754-3.3c1.504-2.292,1.274-4.622,0.916-6   c1.998-1.102,3.277-3.142,3.284-5.39C68.422,43.796,67.364,41.825,65.711,40.667z"></path><path d="M51.941,53.311c0.69,0,1.25-0.56,1.25-1.25v-0.252c0-0.69-0.56-1.25-1.25-1.25s-1.25,0.56-1.25,1.25v0.252   C50.691,52.751,51.251,53.311,51.941,53.311z"></path><path d="M86.896,41.896h-5.485c-0.69,0-1.25,0.56-1.25,1.25s0.56,1.25,1.25,1.25h5.485c0.69,0,1.25-0.56,1.25-1.25   S87.587,41.896,86.896,41.896z"></path><path d="M18.589,41.896h-5.485c-0.69,0-1.25,0.56-1.25,1.25s0.56,1.25,1.25,1.25h5.485c0.69,0,1.25-0.56,1.25-1.25   S19.279,41.896,18.589,41.896z"></path><path d="M73.095,64.473c-0.488-0.488-1.279-0.488-1.768,0s-0.488,1.279,0,1.768l3.879,3.879c0.244,0.244,0.563,0.366,0.884,0.366   s0.64-0.122,0.884-0.366c0.488-0.488,0.488-1.279,0-1.768L73.095,64.473z"></path><path d="M26.905,21.819c0.244,0.244,0.563,0.366,0.884,0.366s0.64-0.122,0.884-0.366c0.488-0.488,0.488-1.279,0-1.768l-3.879-3.879   c-0.488-0.488-1.279-0.488-1.768,0s-0.488,1.279,0,1.768L26.905,21.819z"></path><path d="M50,12.985c0.69,0,1.25-0.56,1.25-1.25V6.25C51.25,5.56,50.69,5,50,5s-1.25,0.56-1.25,1.25v5.485   C48.75,12.426,49.31,12.985,50,12.985z"></path><path d="M26.905,64.473l-3.879,3.879c-0.488,0.488-0.488,1.279,0,1.768c0.244,0.244,0.563,0.366,0.884,0.366   s0.64-0.122,0.884-0.366l3.879-3.879c0.488-0.488,0.488-1.279,0-1.768S27.394,63.985,26.905,64.473z"></path><path d="M75.206,16.173l-3.879,3.879c-0.488,0.488-0.488,1.279,0,1.768c0.244,0.244,0.563,0.366,0.884,0.366   s0.64-0.122,0.884-0.366l3.879-3.879c0.488-0.488,0.488-1.279,0-1.768S75.694,15.685,75.206,16.173z"></path><path d="M50,16.803c-0.999,0-2.014,0.056-3.016,0.167C34.803,18.321,25.02,28.153,23.724,40.347   c-0.979,9.207,2.787,18.082,10.077,23.74c2.568,1.993,4.041,5.005,4.041,8.262v0.163c0,1.775,0.634,3.445,1.799,4.771v4.641   c0,3.897,2.582,7.201,6.125,8.294v0.543c0,2.341,1.898,4.24,4.24,4.24c2.341,0,4.24-1.898,4.24-4.24v-0.546   c3.537-1.096,6.114-4.398,6.114-8.291v-4.641c1.165-1.326,1.799-2.996,1.799-4.771v-0.162c0-3.25,1.487-6.273,4.081-8.294   c6.477-5.046,10.191-12.635,10.191-20.822C76.431,28.659,64.574,16.803,50,16.803z M64.396,61.689   c-3.328,2.593-5.237,6.479-5.237,10.66v0.162c0,1.102-0.434,2.128-1.202,2.93h-10.2c-0.69,0-1.25,0.56-1.25,1.25   s0.56,1.25,1.25,1.25h9.604v3.982c0,3.131-2.547,5.678-5.678,5.678h-3.363c-3.131,0-5.678-2.547-5.678-5.678v-3.982h1.376   c0.69,0,1.25-0.56,1.25-1.25s-0.56-1.25-1.25-1.25h-1.973c-0.768-0.801-1.202-1.828-1.202-2.93v-0.163   c0-4.19-1.896-8.066-5.201-10.632c-6.463-5.016-9.803-12.886-8.935-21.052c1.149-10.805,9.816-19.516,20.608-20.713   c0.894-0.099,1.797-0.149,2.686-0.149c12.92,0,23.431,10.511,23.431,23.431C73.431,50.488,70.138,57.215,64.396,61.689z"></path></g></svg>