<svg height='100px' width='100px'  fill="#002337" xmlns="http://www.w3.org/2000/svg" xmlns:xlink="http://www.w3.org/1999/xlink" version="1.1" x="0px" y="0px" viewBox="0 0 100 100" style="enable-background:new 0 0 100 100;" xml:space="preserve"><path d="M35.211,67.958c1.329,0.942,2.092,2.358,2.093,3.924c0.001,1.818,0.906,3.499,2.352,4.526v5.983  c0,4.571,3.002,8.45,7.137,9.78C46.831,93.739,48.249,95,50,95c1.751,0,3.169-1.261,3.208-2.828c4.135-1.33,7.137-5.209,7.137-9.78  v-5.988c1.441-1.027,2.345-2.708,2.347-4.524c0-1.546,0.71-2.959,1.902-3.783c6.925-4.8,11.059-12.686,11.059-21.095  c0-14.146-11.512-25.654-25.661-25.654c-0.963,0-1.941,0.054-2.911,0.161c-11.998,1.335-21.512,11.035-22.621,23.065  C23.604,53.867,27.626,62.609,35.211,67.958z M55.911,76.878l-12.255,4.184v-4.184H55.911z M44.926,86.161  c-0.648-0.858-1.081-1.884-1.219-3.003l12.638-4.315v3.42L44.926,86.161z M50.07,88.666H49.93c-1.223,0-2.361-0.357-3.327-0.964  l9.368-3.197C55.101,86.926,52.788,88.666,50.07,88.666z M28.441,44.939c0.937-10.147,8.961-18.33,19.079-19.456  c0.822-0.09,1.653-0.136,2.471-0.136c11.944,0,21.661,9.714,21.661,21.654c0,7.098-3.49,13.755-9.335,17.806  c-2.271,1.568-3.626,4.212-3.626,7.07c-0.001,0.615-0.364,1.145-0.923,1.402H42.227c-0.56-0.256-0.923-0.787-0.924-1.436  c0-2.799-1.413-5.472-3.783-7.152C31.114,60.175,27.721,52.791,28.441,44.939z"></path><path d="M9.879,48.121h8.282c0.828,0,1.5-0.671,1.5-1.5s-0.672-1.5-1.5-1.5H9.879c-0.828,0-1.5,0.671-1.5,1.5  S9.051,48.121,9.879,48.121z"></path><path d="M81.839,48.121h8.282c0.828,0,1.5-0.671,1.5-1.5s-0.672-1.5-1.5-1.5h-8.282c-0.828,0-1.5,0.671-1.5,1.5  S81.011,48.121,81.839,48.121z"></path><path d="M21.63,76.491c0.384,0,0.768-0.146,1.061-0.439l5.856-5.856c0.586-0.585,0.586-1.535,0-2.121s-1.535-0.586-2.121,0  l-5.856,5.856c-0.586,0.585-0.586,1.535,0,2.121C20.862,76.344,21.246,76.491,21.63,76.491z"></path><path d="M72.514,25.607c0.384,0,0.768-0.146,1.061-0.439l5.856-5.856c0.586-0.585,0.586-1.536,0-2.121  c-0.586-0.586-1.535-0.586-2.121,0l-5.856,5.856c-0.586,0.585-0.586,1.536,0,2.121C71.746,25.461,72.13,25.607,72.514,25.607z"></path><path d="M50,16.282c0.828,0,1.5-0.671,1.5-1.5V6.5C51.5,5.671,50.828,5,50,5s-1.5,0.671-1.5,1.5v8.282  C48.5,15.61,49.172,16.282,50,16.282z"></path><path d="M78.37,76.491c0.384,0,0.768-0.146,1.061-0.439c0.586-0.586,0.586-1.536,0-2.121l-5.856-5.856  c-0.586-0.586-1.535-0.586-2.121,0s-0.586,1.536,0,2.121l5.856,5.856C77.603,76.344,77.986,76.491,78.37,76.491z"></path><path d="M26.426,25.168c0.293,0.293,0.677,0.439,1.061,0.439s0.768-0.146,1.061-0.439c0.586-0.585,0.586-1.536,0-2.121L22.69,17.19  c-0.586-0.586-1.535-0.586-2.121,0c-0.586,0.585-0.586,1.536,0,2.121L26.426,25.168z"></path></svg>