<svg height='100px' width='100px'  fill="#002337" xmlns:x="http://ns.adobe.com/Extensibility/1.0/" xmlns:i="http://ns.adobe.com/AdobeIllustrator/10.0/" xmlns:graph="http://ns.adobe.com/Graphs/1.0/" xmlns="http://www.w3.org/2000/svg" xmlns:xlink="http://www.w3.org/1999/xlink" version="1.1" x="0px" y="0px" viewBox="0 0 100 100" style="enable-background:new 0 0 100 100;" xml:space="preserve"><g><g i:extraneous="self"><g><path d="M95.7,24.2L80.4,8.9c-1.1-1.1-2.6-1.8-4.2-1.8l-25.8,0c0,0,0,0,0,0c-1.6,0-3.1,0.6-4.2,1.8c-1.1,1.1-1.8,2.6-1.8,4.2v0.6     l-18.9,5C24,19,22.7,20,21.9,21.4c-0.8,1.4-1,3-0.6,4.5l0.1,0.4L5.5,35.5c-1.4,0.8-2.4,2.1-2.8,3.6c-0.4,1.5-0.2,3.2,0.6,4.5     L30,89.9c0.8,1.4,2.1,2.4,3.6,2.8c0.5,0.2,1,0.2,1.6,0.2c1,0,2.1-0.3,3-0.8L67.8,75l9.5-2.5h14.2c3.3,0,6-2.7,6-6V28.4     C97.5,26.9,96.9,25.3,95.7,24.2z M80.1,15.9l8.6,8.6h-8c-0.3,0-0.5-0.2-0.5-0.5V15.9z M26.3,24c0.1-0.1,0.2-0.3,0.5-0.4l17.6-4.7     v47.6c0,3.3,2.7,6,6,6h7.1l-16.4,4.4c-0.3,0.1-0.5,0-0.6-0.1c-0.1-0.1-0.3-0.2-0.4-0.5L26.3,24.6C26.2,24.3,26.3,24.1,26.3,24z      M35.6,87.7c-0.4,0.2-0.9,0.1-1.2-0.3L7.8,41.1c-0.2-0.3-0.1-0.5-0.1-0.6c0-0.1,0.1-0.4,0.4-0.5l14.7-8.5l12.4,46.1     c0.4,1.6,1.4,2.8,2.8,3.6c0.9,0.5,1.9,0.8,3,0.8c0.5,0,1-0.1,1.6-0.2l6.2-1.7L35.6,87.7z M91.5,67.4H50.4c-0.5,0-0.9-0.4-0.9-0.9     V13c0-0.3,0.2-0.5,0.3-0.6c0.1-0.1,0.3-0.3,0.6-0.3c0,0,0,0,0,0l24.6,0v11.7c0,3.1,2.5,5.7,5.7,5.7h11.7v36.9     C92.4,67,92,67.4,91.5,67.4z"></path></g></g></g></svg>