<svg height='100px' width='100px'  fill="#000000" xmlns:dc="http://purl.org/dc/elements/1.1/" xmlns:cc="http://creativecommons.org/ns#" xmlns:rdf="http://www.w3.org/1999/02/22-rdf-syntax-ns#" xmlns:svg="http://www.w3.org/2000/svg" xmlns="http://www.w3.org/2000/svg" xmlns:sodipodi="http://sodipodi.sourceforge.net/DTD/sodipodi-0.dtd" xmlns:inkscape="http://www.inkscape.org/namespaces/inkscape" version="1.1" x="0px" y="0px" viewBox="0 0 100 100"><g transform="translate(0,-952.36218)"><path d="m 50,979.36218 c -2.2092,0 -4,1.7909 -4,4 l 0,15 -15,0 c -2.2091,0 -4,1.79082 -4,4.00002 0,2.2092 1.7909,4 4,4 l 15,0 0,15 c 0,2.2091 1.7908,4 4,4 2.2092,0 4,-1.7909 4,-4 l 0,-15 15,0 c 2.2091,0 4,-1.7908 4,-4 0,-2.2092 -1.7909,-4.00002 -4,-4.00002 l -15,0 0,-15 c 0,-2.2091 -1.7908,-4 -4,-4 z" style="text-indent:0;text-transform:none;direction:ltr;block-progression:tb;baseline-shift:baseline;color:#000000;enable-background:accumulate;" fill="#000000" fill-opacity="1" stroke="none" marker="none" visibility="visible" display="inline" overflow="visible"></path></g></svg>