<svg height='100px' width='100px'  fill="#002337" xmlns:dc="http://purl.org/dc/elements/1.1/" xmlns:cc="http://creativecommons.org/ns#" xmlns:rdf="http://www.w3.org/1999/02/22-rdf-syntax-ns#" xmlns:svg="http://www.w3.org/2000/svg" xmlns="http://www.w3.org/2000/svg" xmlns:sodipodi="http://sodipodi.sourceforge.net/DTD/sodipodi-0.dtd" xmlns:inkscape="http://www.inkscape.org/namespaces/inkscape" version="1.1" x="0px" y="0px" viewBox="0 0 100 100"><g transform="translate(0,-952.36218)"><path d="m 41.476532,969.44799 41.806079,13.94896 c 0.56452,0.21216 0.7126,0.48258 0.93931,0.77825 0.999617,3.10502 1.123127,7.07208 0.18789,10.30604 -0.18965,0.78826 -0.34683,0.80599 -0.84526,1.08931 l -0.75157,0.31136 -6.2944,11.14669 12.870637,4.2968 c 0.54871,0.1032 0.66045,0.3976 0.84536,0.7471 1.00776,3.1329 1.01192,7.0304 0.0626,10.2438 -0.11624,0.6175 -0.36139,0.7279 -0.93906,1.0273 -0.087,0.048 -29.123337,12.0186 -29.123337,12.0186 -14.3842,-5.9839 -29.080169,-12.1407 -43.559739,-18.1835 -0.44786,-0.1627 -0.72415,-0.6881 -0.62631,-1.152 0.0978,-0.464 0.55757,-0.8084 1.03341,-0.7784 0.0643,-2.5294 0.0313,-5.2275 0.0313,-7.8152 l -7.2025495,-1.0586 c -0.5247,-0.041 -0.94914,-0.537 -0.90815,-1.0587 0.041,-0.5217 0.54003,-0.9748 1.0647295,-0.934 l 0.0313,-5.6668 c -0.4603995,0.0132 -0.7670895,-0.27538 -0.9313195,-0.58101 -0.15775,-0.46624 -0.17248,-0.83369 0.11712,-1.13143 l 5.7620395,-5.88472 -4.38416,-1.83702 c -0.44786,-0.16266 -0.7348495,-0.67648 -0.63701,-1.14046 0.0978,-0.46398 0.56827,-0.8199 1.04411,-0.78998 0.0643,-2.52933 0.0313,-5.22749 0.0313,-7.81515 -0.61061,-0.13472 -0.90395,-0.51299 -0.92,-0.99873 -0.0164,-0.44039 0.20413,-0.89958 0.63816,-1.02512 l 30.0628,-8.09538 c 0.26944,-0.0996 0.39046,-0.0444 0.59479,0.032 z m -6.95202,3.73632 -20.35502,5.47995 39.958469,16.6578 20.63686,-8.46901 z m -21.41975,7.19244 0,7.75288 40.115049,16.75117 -0.0313,-7.78398 -40.083729,-16.72007 z m 69.520229,5.38654 -27.43231,11.27125 0.0313,7.87746 27.27572,-11.05333 c 0.67687,-2.66734 0.6565,-5.67586 0.12532,-8.09538 z m -65.605799,6.16494 -4.91652,5.07518 25.70996,3.61179 z m 62.850039,5.13745 -3.00628,1.21431 -4.85389,8.21991 0,4.4213 z m -67.766559,1.93044 -0.0313,5.69788 57.933519,8.469 0,-6.0404 -11.08565,-1.5568 c -1.56533,0.6342 -3.1265,1.2789 -4.69732,1.8993 -3.09045,-1.2853 -6.17968,-2.5736 -9.26936,-3.8608 l -32.849869,-4.60818 z m 61.722679,0.52931 -11.24223,4.54587 7.86017,1.1209 z m -54.708029,8.74927 0,7.7529 40.083729,16.7512 -0.0626,-7.8152 z m 5.91862,0.3113 35.104579,14.634 20.85606,-8.5624 -7.35912,-2.522 c -0.62501,1.0905 -1.24727,2.1825 -1.87892,3.2692 -16.24212,-2.3667 -32.810019,-4.7871 -46.722599,-6.8188 z m 63.570286,5.1064 -27.463617,11.2712 0.0626,7.8774 27.244407,-11.2712 c 0.6629,-2.4099 0.71653,-5.4165 0.15658,-7.8774 z" style="text-indent:0;text-transform:none;direction:ltr;block-progression:tb;baseline-shift:baseline;color:#002337;enable-background:accumulate;" fill="#002337" fill-opacity="1" stroke="none" marker="none" visibility="visible" display="inline" overflow="visible"></path></g></svg>