<svg height='100px' width='100px'  xmlns:dc="http://purl.org/dc/elements/1.1/" xmlns:cc="http://creativecommons.org/ns#" xmlns:rdf="http://www.w3.org/1999/02/22-rdf-syntax-ns#" xmlns:svg="http://www.w3.org/2000/svg" xmlns="http://www.w3.org/2000/svg" xmlns:sodipodi="http://sodipodi.sourceforge.net/DTD/sodipodi-0.dtd" xmlns:inkscape="http://www.inkscape.org/namespaces/inkscape" fill="#002337" version="1.1" x="0px" y="0px" viewBox="0 0 100 100"><path style="font-size:medium;font-style:normal;font-variant:normal;font-weight:normal;font-stretch:normal;text-indent:0;text-align:start;text-decoration:none;line-height:normal;letter-spacing:normal;word-spacing:normal;text-transform:none;direction:ltr;block-progression:tb;writing-mode:lr-tb;text-anchor:start;baseline-shift:baseline;opacity:1;color:#002337;fill:#002337;fill-opacity:1;stroke:none;stroke-width:6;marker:none;visibility:visible;display:inline;overflow:visible;enable-background:accumulate;font-family:Sans;-inkscape-font-specification:Sans" d="M 43.71875 5 A 3.0003 3.0003 0 0 0 41.09375 7.375 L 38.78125 18.0625 C 37.611363 18.47288 36.483989 18.937479 35.375 19.46875 L 26.15625 13.5625 A 3.0003 3.0003 0 0 0 22.40625 13.96875 L 13.96875 22.40625 A 3.0003 3.0003 0 0 0 13.5625 26.15625 L 19.46875 35.375 C 18.937479 36.483989 18.47288 37.611363 18.0625 38.78125 L 7.375 41.09375 A 3.0003 3.0003 0 0 0 5 44.03125 L 5 55.96875 A 3.0003 3.0003 0 0 0 7.375 58.90625 L 18.0625 61.21875 C 18.47288 62.388637 18.937479 63.516011 19.46875 64.625 L 13.5625 73.84375 A 3.0003 3.0003 0 0 0 13.96875 77.59375 L 22.40625 86.03125 A 3.0003 3.0003 0 0 0 26.15625 86.4375 L 35.375 80.53125 C 36.483989 81.062521 37.611363 81.52712 38.78125 81.9375 L 41.09375 92.625 A 3.0003 3.0003 0 0 0 44.03125 95 L 55.96875 95 A 3.0003 3.0003 0 0 0 58.90625 92.625 L 61.21875 81.9375 C 62.388637 81.52712 63.516011 81.062521 64.625 80.53125 L 73.84375 86.4375 A 3.0003 3.0003 0 0 0 77.59375 86.03125 L 86.03125 77.59375 A 3.0003 3.0003 0 0 0 86.4375 73.84375 L 80.53125 64.625 C 81.062521 63.516011 81.52712 62.388637 81.9375 61.21875 L 92.625 58.90625 A 3.0003 3.0003 0 0 0 95 55.96875 L 95 44.03125 A 3.0003 3.0003 0 0 0 92.625 41.09375 L 81.9375 38.78125 C 81.52712 37.611363 81.062521 36.483989 80.53125 35.375 L 86.4375 26.15625 A 3.0003 3.0003 0 0 0 86.03125 22.40625 L 77.59375 13.96875 A 3.0003 3.0003 0 0 0 73.84375 13.5625 L 64.625 19.46875 C 63.516011 18.937479 62.388637 18.47288 61.21875 18.0625 L 58.90625 7.375 A 3.0003 3.0003 0 0 0 55.96875 5 L 44.03125 5 A 3.0003 3.0003 0 0 0 43.71875 5 z M 46.4375 11 L 53.5625 11 L 55.6875 20.84375 A 3.0003 3.0003 0 0 0 57.78125 23.09375 C 59.793261 23.675324 61.739144 24.479311 63.53125 25.46875 A 3.0003 3.0003 0 0 0 66.59375 25.375 L 75.0625 19.9375 L 80.0625 24.9375 L 74.625 33.40625 A 3.0003 3.0003 0 0 0 74.53125 36.46875 C 75.520689 38.260856 76.324676 40.206739 76.90625 42.21875 A 3.0003 3.0003 0 0 0 79.15625 44.3125 L 89 46.4375 L 89 53.5625 L 79.15625 55.6875 A 3.0003 3.0003 0 0 0 76.90625 57.78125 C 76.324676 59.793261 75.520689 61.739144 74.53125 63.53125 A 3.0003 3.0003 0 0 0 74.625 66.59375 L 80.0625 75.0625 L 75.0625 80.0625 L 66.59375 74.625 A 3.0003 3.0003 0 0 0 63.53125 74.53125 C 61.739144 75.520689 59.793261 76.324676 57.78125 76.90625 A 3.0003 3.0003 0 0 0 55.6875 79.15625 L 53.5625 89 L 46.4375 89 L 44.3125 79.15625 A 3.0003 3.0003 0 0 0 42.21875 76.90625 C 40.20674 76.324676 38.260856 75.520689 36.46875 74.53125 A 3.0003 3.0003 0 0 0 33.40625 74.625 L 24.9375 80.0625 L 19.9375 75.0625 L 25.375 66.59375 A 3.0003 3.0003 0 0 0 25.46875 63.53125 C 24.479311 61.739144 23.675324 59.793261 23.09375 57.78125 A 3.0003 3.0003 0 0 0 20.84375 55.6875 L 11 53.5625 L 11 46.4375 L 20.84375 44.3125 A 3.0003 3.0003 0 0 0 23.09375 42.21875 C 23.675324 40.206739 24.479311 38.260856 25.46875 36.46875 A 3.0003 3.0003 0 0 0 25.375 33.40625 L 19.9375 24.9375 L 24.9375 19.9375 L 33.40625 25.375 A 3.0003 3.0003 0 0 0 36.46875 25.46875 C 38.260856 24.479311 40.20674 23.675324 42.21875 23.09375 A 3.0003 3.0003 0 0 0 44.3125 20.84375 L 46.4375 11 z M 50 29 C 38.437556 29 29 38.437554 29 50 C 29 61.562446 38.437556 71 50 71 C 61.562445 71 71 61.562446 71 50 C 71 38.437554 61.562446 29 50 29 z M 50 35 C 58.319804 35 65 41.680196 65 50 C 65 58.319806 58.319805 65 50 65 C 41.680198 65 35 58.319804 35 50 C 35 41.680196 41.680198 35 50 35 z "></path></svg>