<svg height='100px' width='100px'  fill="#002337" xmlns="http://www.w3.org/2000/svg" xmlns:xlink="http://www.w3.org/1999/xlink" version="1.1" x="0px" y="0px" viewBox="0 0 100 100" enable-background="new 0 0 100 100" xml:space="preserve"><g><polygon points="92.846,57.274 92.844,57.274 92.84,57.274  "></polygon><path d="M74,21.5H26c-2.48,0-4.5,2.018-4.5,4.5v48c0,2.48,2.02,4.5,4.5,4.5h48c2.482,0,4.5-2.02,4.5-4.5V26   C78.5,23.518,76.482,21.5,74,21.5z M42.498,68c0,0.826-0.67,1.5-1.5,1.5h-6c-0.826,0-1.5-0.674-1.5-1.5V41   c0-0.828,0.674-1.5,1.5-1.5h6c0.83,0,1.5,0.672,1.5,1.5V68z M54.498,68c0,0.826-0.67,1.5-1.5,1.5h-6c-0.826,0-1.5-0.674-1.5-1.5V32   c0-0.828,0.674-1.5,1.5-1.5h6c0.83,0,1.5,0.672,1.5,1.5V68z M66.498,68c0,0.826-0.67,1.5-1.5,1.5h-6c-0.826,0-1.5-0.674-1.5-1.5V53   c0-0.828,0.674-1.5,1.5-1.5h6c0.83,0,1.5,0.672,1.5,1.5V68z"></path></g></svg>