<svg height='100px' width='100px'  fill="#002337" xmlns="http://www.w3.org/2000/svg" xmlns:xlink="http://www.w3.org/1999/xlink" xml:space="preserve" version="1.1" style="shape-rendering:geometricPrecision;text-rendering:geometricPrecision;image-rendering:optimizeQuality;" viewBox="0 0 847 847" x="0px" y="0px" fill-rule="evenodd" clip-rule="evenodd"><defs><style type="text/css">
   
    .fil2 {fill:#002337}
    .fil0 {fill:#002337}
    .fil1 {fill:#002337}
   
  </style></defs><g><path class="fil0" d="M-3047 1175l66 0 0 0 246 0c21,0 38,17 38,38l0 178c0,21 -17,38 -38,38l-276 0c-25,7 -58,4 -91,-1 -21,-4 -61,8 -66,6 -96,-41 10,-5 9,-19 0,-40 66,-17 40,-39 -1,0 -12,-9 -38,6 -20,11 -66,0 -67,1 -10,1 -69,14 -9,-7 9,-3 17,-7 24,-9 74,-14 20,-25 -16,-16 -4,1 -13,11 -22,6 -1,-1 -36,18 -49,-2 -18,-26 -68,-2 -74,-4 -28,-12 -70,-39 -79,-38 -53,5 10,-12 26,-8 5,2 53,37 83,14 28,-21 75,0 76,-2 4,-15 38,-11 52,-14 28,-4 -2,-22 -35,-4 -9,5 -21,-4 -32,-3 -12,2 -22,12 -39,-4 -15,-15 -51,-24 -51,-24 64,-15 59,4 95,-16 6,-3 40,-22 66,-2 50,37 95,-30 25,-10 -42,12 10,-24 44,-11 25,8 33,0 33,0 31,0 -16,-15 -16,-15 -18,-19 -85,11 -111,-3 -26,-14 56,-14 65,-22 25,-22 67,-17 110,-12 4,-1 7,-2 11,-2zm121 43l127 79 -123 83 -4 -1 0 -161z"></path><path class="fil0" d="M-3381 -912c-4,1 -9,2 -14,2 -12,3 -31,7 -36,-10 -2,-4 -1,-8 0,-11 -13,1 -25,-2 -34,-16 -10,-14 -51,8 -65,2 -17,-7 -59,-33 -70,-36 -13,1 -35,5 -38,-14 -4,-26 52,-30 67,-26 16,5 47,32 67,16 4,-3 8,-5 12,-7 -2,-1 -4,-1 -5,-2 -7,-4 -13,-6 -20,-9 -3,0 -5,-1 -7,-2 -17,-5 -21,-29 -2,-33 28,-6 41,-5 67,-6 8,0 15,-4 22,-8 11,-6 24,-11 37,-12 -7,-5 -12,-11 -11,-20 3,-27 58,-21 74,-27 31,-27 80,-21 118,-17 4,-1 8,-1 12,-1l305 0c30,0 54,24 54,54l0 174c0,30 -24,54 -54,54l-268 0c-29,8 -65,3 -94,-2 -19,-3 -55,11 -68,5 -13,-5 -57,-18 -49,-40 1,-3 3,-6 5,-7 -1,-1 -3,-1 -5,-1zm167 -215l62 0 0 0 234 0c19,0 36,16 36,36l0 169c0,20 -17,36 -36,36l-263 0c-23,7 -54,4 -86,-2 -20,-3 -58,8 -62,6 -92,-38 9,-4 9,-18 -1,-37 62,-15 37,-36 -1,-1 -12,-9 -36,5 -19,11 -63,1 -64,1 -9,1 -65,13 -8,-6 9,-4 16,-7 22,-9 70,-13 19,-23 -15,-15 -3,0 -12,10 -21,5 -1,0 -34,17 -46,-1 -17,-25 -65,-2 -71,-5 -26,-11 -65,-37 -75,-36 -50,5 10,-11 25,-7 5,2 51,35 80,13 26,-20 71,1 71,-2 4,-13 36,-10 50,-12 26,-5 -2,-22 -34,-5 -8,5 -19,-4 -30,-2 -11,2 -21,11 -36,-4 -15,-14 -49,-23 -49,-23 61,-14 56,4 90,-15 6,-3 38,-21 63,-2 47,35 90,-29 23,-10 -40,12 10,-22 42,-10 23,8 32,0 32,0 29,0 -16,-14 -16,-14 -17,-18 -80,10 -106,-3 -24,-13 54,-14 62,-21 24,-20 64,-16 105,-12 3,-1 7,-1 11,-1zm114 41l121 75 -117 78 -4 0 0 -153zm28 26l0 100 77 -52 -77 -48z"></path><path class="fil0" d="M-3075 745c0,-1 0,-2 0,-3 -5,0 -10,0 -16,0 6,1 11,2 16,3zm227 -263c81,0 147,67 147,149 0,81 -66,148 -147,148 -15,0 -30,-3 -44,-7 -28,7 -65,4 -102,-3 -23,-4 -69,10 -74,7 -110,-46 10,-5 10,-21 0,-45 75,-19 45,-44 -1,-1 -14,-10 -43,6 -22,13 -75,1 -77,1 -10,2 -78,16 -10,-7 11,-4 20,-9 27,-10 84,-16 23,-28 -18,-19 -4,1 -14,12 -24,7 -2,-1 -41,20 -56,-2 -20,-30 -78,-2 -84,-5 -32,-14 -79,-45 -90,-43 -60,6 11,-14 29,-9 7,2 61,42 95,16 32,-24 85,0 86,-3 4,-16 44,-12 59,-15 32,-5 -2,-25 -39,-5 -10,6 -24,-5 -37,-3 -13,3 -25,14 -43,-4 -18,-18 -59,-28 -59,-29 73,-16 67,5 108,-18 7,-3 45,-24 75,-2 57,43 108,-34 28,-11 -47,14 12,-27 51,-13 27,10 37,1 37,1 35,0 -18,-17 -18,-17 -20,-22 -96,12 -127,-4 -29,-15 64,-16 74,-25 39,-33 113,-12 178,-9 11,-4 23,-6 35,-6 -1,-1 0,-1 3,-1l5 0zm-23 223l0 -132 103 64 -101 68 -2 0zm-245 35c-6,-1 -11,-2 -16,-3 -6,1 -13,2 -19,3 -13,2 -34,8 -40,-10 -1,-6 0,-11 4,-15 -16,2 -32,0 -43,-17 -13,-19 -61,8 -77,1 -18,-8 -70,-39 -82,-42 -86,9 -25,-58 33,-40 20,6 56,37 80,18 6,-5 12,-8 18,-10 -3,-2 -7,-4 -10,-6 -8,-4 -16,-7 -24,-10 -3,-1 -5,-2 -8,-3 -16,-5 -22,-28 -2,-32 32,-8 46,-6 77,-7 9,-1 18,-5 26,-10 17,-9 36,-15 54,-14 -3,-1 -5,-2 -8,-3 -8,-5 -15,-12 -14,-23 4,-29 68,-22 85,-29 45,-39 131,-17 187,-14 12,-3 24,-5 36,-6 2,0 3,0 4,0l5 0c91,0 164,74 164,165 0,90 -73,164 -164,164 -15,0 -30,-2 -45,-6 -32,7 -72,2 -104,-3 -21,-4 -64,12 -78,6 -13,-6 -63,-20 -55,-43 3,-8 9,-11 16,-11zm-11 -195c3,1 5,2 8,3 1,-1 2,-1 3,-2 -4,0 -8,0 -11,-1zm270 132l57 -38 -57 -35 0 73z"></path><path class="fil0" d="M-3408 -437c-8,5 -17,7 -26,6 -14,6 -40,3 -48,3 -11,0 -56,5 -56,-15 0,-9 9,-13 20,-14 2,-5 6,-7 12,-8 1,-4 4,-6 7,-8 -21,1 -44,-2 -63,-5 -17,-3 -53,9 -64,5 -11,-5 -52,-17 -45,-35 2,-7 8,-9 15,-9 -5,-1 -11,-2 -16,-3 -5,1 -10,2 -15,3 -10,1 -28,6 -32,-8 -2,-5 0,-10 3,-13 -13,2 -27,0 -36,-14 -10,-15 -50,7 -63,1 -15,-6 -58,-33 -67,-35 -11,2 -32,5 -34,-11 -3,-21 48,-25 61,-21 16,5 45,30 66,15 5,-4 10,-7 15,-9 -3,-2 -6,-3 -9,-5 -6,-3 -13,-6 -20,-8 -2,-1 -4,-1 -7,-2 -13,-4 -17,-24 -1,-27 27,-6 38,-4 63,-5 8,-1 15,-4 22,-8 20,-11 45,-17 66,-7 1,-2 3,-4 6,-6 -14,4 -31,-2 -45,-5 -10,-2 -23,-6 -23,-19 1,-20 43,-20 57,-18 12,3 10,-4 22,-6 13,-2 12,-1 24,1 3,1 11,2 16,3 3,-5 7,-8 13,-10 24,-4 46,-7 71,-5 3,-1 7,-1 11,-1l291 0c27,0 49,22 49,49l0 166c0,27 -22,49 -49,49l-27 0c-1,4 -2,8 -4,11 -10,23 -35,44 -60,34 -15,5 -37,3 -45,3 -9,0 -46,4 -55,-9zm137 -83c-15,-7 -35,5 -45,26 -10,22 -6,45 10,52 15,7 35,-5 45,-27 10,-21 6,-44 -10,-51zm-76 68c-15,0 -27,1 -27,2 0,1 12,2 27,2 14,0 26,-1 26,-2 0,-1 -12,-2 -26,-2zm6 -6c-11,0 -20,0 -20,1 0,1 9,2 20,2 11,0 20,-1 20,-2 0,-1 -9,-1 -20,-1zm-13 15c-24,0 -43,1 -43,1 0,1 19,2 43,2 24,0 44,-1 44,-2 0,0 -20,-1 -44,-1zm-121 -18c-11,0 -19,1 -19,2 0,1 8,1 19,1 10,0 19,0 19,-1 0,-1 -9,-2 -19,-2zm-6 9c-14,0 -26,1 -26,2 0,1 12,2 26,2 15,0 27,-1 27,-2 0,-1 -12,-2 -27,-2zm-2 9c-24,0 -43,1 -43,2 0,1 19,1 43,1 24,0 44,0 44,-1 0,-1 -20,-2 -44,-2zm-26 -282l61 0 0 0 230 0c19,0 35,16 35,35l0 166c0,20 -16,36 -35,36l-29 0c1,-16 -4,-31 -19,-38 -23,-11 -47,10 -56,30 -1,3 -2,5 -3,8l-56 0c2,-17 -3,-35 -19,-43 -23,-10 -47,11 -56,31 -2,3 -3,8 -4,12l-16 0c-23,6 -54,3 -85,-2 -19,-3 -56,8 -61,6 -90,-38 9,-4 9,-18 -1,-36 136,-26 37,-35 -1,-1 -12,-9 -36,5 -18,10 -62,0 -63,0 -9,2 -64,13 -8,-6 9,-3 16,-7 22,-8 69,-13 19,-23 -15,-15 -3,0 -12,10 -20,5 -1,-1 -33,17 -46,-1 -16,-25 -63,-2 -69,-5 -25,-11 -65,-36 -74,-35 -49,5 10,-11 25,-7 5,2 50,34 78,13 26,-20 69,0 70,-2 4,-14 36,-8 49,-13 4,-1 6,-5 8,-4 74,17 -13,-16 -41,0 -8,5 -19,-4 -30,-2 -11,2 -20,11 -36,-4 -14,-14 -48,-23 -47,-23 59,-14 54,4 88,-15 6,-3 37,-20 62,-2 23,18 42,-3 53,2 30,11 22,8 30,11 46,17 100,12 22,2 -4,-1 -7,-4 -11,-6 -24,-10 -57,-22 -71,-18 -39,11 9,-22 41,-10 23,8 31,0 31,0 104,12 104,-1 59,-6 0,0 -3,5 -17,-8 -20,-16 -52,1 -57,0 -24,-3 -56,-23 -74,-6 -10,9 -28,3 -45,-1 -33,-7 12,-14 29,-11 18,3 19,-5 27,-6 12,-2 8,-2 20,1 40,8 22,-5 34,-7 21,-4 43,-8 69,-5 3,-1 6,-1 10,-1zm150 41l111 68 -107 72 -4 0 0 -140zm-45 161c-15,-7 -36,5 -46,27 -9,21 -5,44 10,51 16,7 36,-5 46,-26 10,-22 5,-45 -10,-52zm-9 19c-8,-3 -18,3 -23,14 -5,11 -3,23 5,26 8,4 18,-2 23,-13 5,-11 3,-23 -5,-27zm134 3c-8,-4 -19,2 -24,13 -5,11 -2,23 5,27 8,3 18,-3 24,-14 5,-11 2,-22 -5,-26z"></path><path class="fil1" d="M-3025 121c77,0 140,62 140,139 0,77 -63,139 -140,139 -78,0 -140,-62 -140,-139 0,-77 62,-139 140,-139zm7 101l19 0 0 0 71 0c7,0 12,5 12,11l0 52c0,6 -5,11 -12,11l-80 0c-7,2 -16,1 -26,-1 -6,-1 -18,2 -19,2 -28,-12 3,-1 3,-6 0,-11 19,-4 11,-11 0,0 -3,-2 -11,2 -6,3 -19,0 -19,0 -3,0 -20,4 -3,-2 3,-1 5,-2 7,-2 21,-4 6,-8 -5,-5 -1,0 -3,3 -6,1 0,0 -10,6 -14,0 -5,-8 -20,-1 -22,-1 -8,-4 -20,-12 -23,-11 -15,1 3,-4 8,-2 1,0 15,10 24,4 8,-7 22,0 22,-1 1,-4 11,-3 15,-4 8,-1 0,-6 -10,-1 -3,1 -6,-1 -9,-1 -4,1 -7,4 -11,-1 -5,-5 -15,-7 -15,-7 18,-5 17,1 27,-5 2,-1 12,-6 19,-1 15,11 28,-8 8,-2 -13,3 2,-7 12,-4 7,3 10,1 10,1 9,0 -5,-5 -5,-5 -5,-5 -24,3 -32,-1 -7,-4 16,-4 19,-6 7,-6 19,-5 32,-4 1,0 2,0 3,0zm35 12l37 23 -36 24 -1 0 0 -47z"></path><path class="fil2" d="M-3035 978c-6,0 -15,1 -18,1 -13,3 -36,17 -47,1 -8,-13 -31,0 -40,-1 -8,0 -16,-4 -23,-8 -4,-2 -21,-14 -24,-14 -4,0 -16,2 -17,-4 -1,-10 28,-11 34,-10 8,3 15,9 26,12 7,1 14,1 19,-3 5,-3 9,-5 14,-6 0,-1 -1,-2 -2,-4 -1,-3 -8,-6 -11,-7 -4,-2 -20,-4 -20,-10 0,-2 2,-4 4,-4 11,-3 21,-4 33,-2 3,1 12,3 16,1 2,0 3,-4 4,-6 2,-5 13,-8 18,-9 9,-2 18,-1 26,4 0,-8 24,-13 30,-13 4,0 8,0 12,2 3,1 8,2 12,2 -3,-1 -5,-2 -6,-3l-1 0 0 0c-7,-8 -48,7 -65,-1 -3,-2 -6,-4 -5,-8 1,-11 36,-9 43,-13 17,-15 47,-11 68,-9 3,0 5,0 7,0l186 0c15,0 27,12 27,27l0 106c0,15 -12,27 -27,27l-164 0c-19,0 -37,1 -55,-1 -10,-1 -35,5 -40,4 -6,-2 -12,-4 -18,-8 -3,-2 -11,-5 -8,-11 3,-7 21,1 28,0 1,-4 3,-8 6,-12 1,0 1,0 1,0 -12,6 -29,2 -41,0 -3,1 -6,2 -10,2 -4,1 -14,4 -16,-2 -2,-7 15,-11 19,-13 5,-1 10,-4 15,-5 1,0 6,-1 10,-2zm87 -108l39 0 1 0 146 0c12,0 22,10 22,23l0 106c0,12 -10,23 -22,23l-164 0c-16,0 -34,0 -55,-2 -12,-1 -36,5 -39,4 -7,-2 -13,-5 -16,-7 -24,-13 22,3 22,-4 0,-24 39,-10 23,-23 0,0 -7,-5 -22,3 -12,7 -40,1 -40,1 -6,1 -41,8 -6,-4 6,-2 11,-5 15,-5 44,-9 12,-15 -10,-10 -11,2 -33,16 -42,2 -10,-15 -39,-2 -44,-2 -18,-2 -41,-24 -47,-23 -31,3 6,-7 15,-4 4,1 32,22 50,8 17,-13 45,0 45,-1 2,-9 23,-7 31,-8 16,-3 -3,-17 -20,-4 -2,2 -1,0 0,-2 1,-5 1,-13 -20,1 -6,5 -17,11 -23,-2 -4,-11 -34,-14 -30,-15 35,-9 48,12 56,-9 2,-4 24,-13 40,-1 29,22 56,-18 14,-6 -25,7 6,-14 27,-7 14,5 19,1 19,1 18,0 -9,-9 -10,-9 -10,-12 -50,6 -66,-3 -15,-8 34,-8 39,-12 15,-13 40,-11 66,-8 2,0 4,-1 6,-1zm72 26l76 47 -74 49 -2 0 0 -96zm-210 52c2,1 4,1 6,2 2,-3 5,-5 9,-6 -1,-1 0,-2 0,-4 0,0 0,-1 0,-1 -4,2 -10,6 -12,7 -1,1 -2,2 -3,2zm33 -5c2,-1 4,-1 5,-1 -1,0 -3,0 -5,1zm19 -28c5,2 9,2 14,1 2,0 7,-2 8,-4 -3,-2 -13,1 -15,1 -2,1 -4,2 -7,2zm163 -11l0 81 62 -42 -62 -39z"></path><path class="fil1" d="M-3090 -1900c67,0 121,53 121,117 0,65 -54,118 -121,118 -66,0 -120,-53 -120,-118 0,-64 54,-117 120,-117zm56 72c24,0 44,20 44,44 0,24 -20,44 -44,44 -12,0 -32,-1 -43,-3 -7,-1 -20,3 -22,2 -1,0 0,0 -7,-3 -20,-9 10,-1 11,-3 4,-13 21,-6 12,-13 0,0 -4,-3 -12,2 -7,3 -23,0 -23,0 -3,0 -23,5 -3,-2 3,-1 6,-3 8,-3 22,-6 11,-10 -5,-6 -6,2 -19,9 -24,2 -6,-9 -21,-1 -25,-2 -11,-2 -21,-13 -27,-13 -17,2 7,-5 9,-2 2,0 18,12 28,5 10,-8 25,0 26,-1 1,-5 13,-4 17,-5 9,-1 4,-8 -15,-2 0,0 -7,3 -1,-1 7,-4 3,-7 0,-6 -4,0 -14,11 -19,6 -6,-6 -18,-9 -17,-9 21,-5 20,10 32,-5 1,-2 13,-7 22,-1 16,13 32,-10 8,-3 -14,4 7,-10 15,-5 8,2 11,1 11,1 10,0 -6,-4 -6,-4 -6,-6 -27,0 -37,-2 -16,-3 22,-5 22,-7 9,-8 48,-4 65,-5zm-7 66l0 -39 31 19 -31 20z"></path><path class="fil1" d="M-3069 1612l62 0 0 0 232 0c20,0 36,16 36,36l0 165c0,20 -16,35 -36,35l-37 0c3,-17 0,-36 -17,-44 -22,-10 -45,11 -54,30 -2,4 -3,9 -4,14l-86 0c3,-17 -1,-36 -17,-43 -23,-11 -45,10 -54,29 -2,5 -4,11 -5,17 -21,3 -46,0 -72,-4 -20,-4 -58,8 -62,6 -91,-38 9,-5 8,-18 0,-37 62,-15 38,-36 -1,0 -12,-8 -36,5 -18,11 -63,1 -64,1 -9,1 -64,13 -8,-6 9,-3 16,-7 22,-8 70,-13 19,-23 -15,-16 -17,5 -52,25 -66,4 -17,-24 -65,-1 -70,-4 -26,-11 -66,-36 -75,-35 -50,5 9,-11 25,-7 5,2 50,34 78,13 27,-20 71,0 72,-2 3,-14 36,-10 49,-13 26,-4 -7,-19 -42,-5 -18,7 15,-20 -2,-21 -12,0 -40,31 -56,16 -15,-14 -48,-23 -48,-23 60,-13 55,4 90,-14 5,-3 37,-21 62,-2 47,34 71,-6 23,-9 -54,-4 10,-22 42,-11 26,2 32,1 32,1 31,0 -16,-14 -16,-14 -17,-18 -80,10 -105,-3 -24,-13 53,-13 61,-21 24,-20 64,-16 105,-11 3,-1 6,-2 10,-2zm166 260c-11,0 -19,1 -19,2 0,1 8,1 19,1 10,0 19,0 19,-1 0,-1 -9,-2 -19,-2zm-161 0c-11,0 -20,1 -20,2 0,1 9,1 20,1 10,0 19,0 19,-1 0,-1 -9,-2 -19,-2zm-6 9c-14,0 -26,1 -26,2 0,1 12,2 26,2 15,0 27,-1 27,-2 0,-1 -12,-2 -27,-2zm-2 9c-24,0 -44,1 -44,2 0,1 20,2 44,2 24,0 44,-1 44,-2 0,-1 -20,-2 -44,-2zm79 -80c-15,-7 -36,5 -46,26 -9,22 -5,45 10,52 16,7 36,-4 46,-26 10,-22 5,-45 -10,-52zm-9 19c-7,-3 -18,3 -23,14 -5,11 -3,23 5,26 8,4 18,-2 23,-13 5,-11 3,-23 -5,-27zm94 52c-15,0 -27,1 -27,2 0,1 12,2 27,2 14,0 26,-1 26,-2 0,-1 -12,-2 -26,-2zm-2 9c-25,0 -44,1 -44,2 0,1 19,2 44,2 24,0 43,-1 43,-2 0,-1 -19,-2 -43,-2zm78 -80c-15,-7 -35,5 -45,26 -10,22 -6,45 10,52 15,7 35,-5 45,-26 10,-22 6,-45 -10,-52zm-8 19c-8,-3 -19,3 -24,14 -5,11 -2,22 5,26 8,4 19,-2 24,-13 5,-11 2,-23 -5,-27zm-115 -177l120 74 -120 76 0 -150z"></path><path class="fil2" d="M-2820 2301c-1,5 -2,9 -4,12 -9,20 -33,43 -57,32 -17,-8 -21,-26 -19,-44l-99 0c-1,5 -2,9 -4,12 -9,21 -33,43 -57,32 -16,-7 -20,-24 -19,-41l-1 0c-26,3 -56,0 -82,-5 -17,-3 -63,9 -70,6 -5,-2 -48,-16 -44,-26 3,-10 44,6 51,2 0,-34 34,-27 47,-32 -1,-1 -3,-3 -3,-3 -8,-7 -27,2 -35,6 -20,11 -51,3 -72,1 -6,1 -12,2 -18,3 -5,1 -22,6 -24,-2 -3,-8 26,-15 30,-17 8,-3 18,-8 26,-9 4,-1 25,-5 33,-9 -10,-4 -39,-1 -48,1 -22,5 -61,29 -79,3 -17,-25 -65,1 -76,-3 -12,-5 -74,-40 -80,-39 -5,0 -26,4 -27,-4 -2,-12 47,-15 55,-13 14,4 26,16 47,20 12,3 26,3 36,-5 15,-11 33,-12 51,-10 8,1 20,5 28,7 9,-15 43,-12 57,-14 1,0 3,-1 4,-1 -10,-5 -39,1 -47,4 -27,11 -3,-21 -3,-23 -1,0 -2,0 -2,0 -12,0 -44,37 -65,17 -5,-5 -11,-9 -17,-12 -8,-4 -16,-7 -24,-9 -2,-1 -5,-2 -8,-3 -6,-2 -9,-9 -2,-10 29,-7 42,-5 69,-6 11,-1 20,-5 29,-10 23,-12 52,-18 74,-2 44,33 68,2 23,-1 -6,0 -28,-1 -28,-11 0,-18 61,-15 76,-10 9,0 24,2 34,1 -8,-3 -18,-6 -21,-8 -16,-16 -86,12 -116,-3 -38,-20 64,-27 68,-30 30,-25 82,-18 118,-14 4,-1 8,-1 12,-1l327 0c25,0 45,19 45,44l0 183c0,25 -20,44 -45,44l-44 0zm-283 -267l69 0 0 0 258 0c22,0 40,18 40,40l0 183c0,22 -18,40 -40,40l-41 0c3,-20 -1,-41 -19,-49 -25,-12 -50,11 -60,32 -2,5 -4,11 -5,17l-95 0c3,-19 -1,-41 -19,-49 -25,-11 -50,11 -60,33 -2,5 -4,12 -5,18 -24,3 -52,0 -81,-4 -22,-4 -63,8 -69,6 -100,-42 10,-4 10,-20 0,-40 69,-17 42,-39 -1,-1 -13,-9 -40,6 -21,11 -70,0 -71,0 -10,2 -72,15 -9,-7 10,-3 18,-7 25,-8 77,-15 21,-26 -17,-18 -19,5 -59,28 -74,5 -19,-27 -72,-2 -78,-5 -29,-12 -73,-40 -83,-39 -55,6 11,-12 28,-7 5,1 56,37 87,14 29,-22 79,0 79,-3 4,-15 40,-11 55,-13 29,-5 -8,-22 -46,-6 -21,8 17,-22 -3,-24 -13,0 -44,35 -62,18 -16,-15 -54,-25 -53,-25 67,-15 61,4 100,-17 5,-3 41,-22 68,-2 53,39 79,-6 27,-10 -61,-4 10,-24 46,-11 29,1 35,0 35,0 35,0 -18,-15 -18,-15 -18,-20 -88,11 -116,-4 -27,-14 59,-14 68,-22 26,-23 70,-18 116,-13 3,-1 7,-2 11,-2zm85 220c-17,-8 -40,5 -51,29 -11,24 -6,50 11,58 17,8 40,-6 51,-30 11,-24 6,-49 -11,-57zm-10 21c-9,-4 -20,3 -26,15 -5,12 -3,26 6,30 9,3 20,-3 26,-16 5,-12 3,-25 -6,-29zm189 -21c-17,-8 -40,5 -51,29 -11,24 -6,50 11,58 17,8 40,-6 51,-30 11,-24 6,-50 -11,-57zm-10 21c-8,-4 -20,3 -26,15 -5,12 -3,25 6,29 9,4 20,-2 26,-15 5,-12 3,-25 -6,-29zm-127 -196l134 81 -134 85 0 -166zm4 8l0 149 121 -76 -121 -73zm-58 192c-8,-3 -16,7 -19,13 -3,6 -5,20 3,23 8,4 16,-6 19,-12 3,-7 5,-20 -3,-24zm179 0c-8,-3 -16,7 -19,13 -3,6 -5,19 3,23 8,4 17,-6 19,-13 3,-6 5,-19 -3,-23z"></path><path class="fil1" d="M-3816 1240l239 0c22,0 41,18 41,41l0 119c0,23 -19,41 -41,41l-239 0c-22,0 -41,-18 -41,-41l0 -119c0,-23 19,-41 41,-41zm129 54l22 0 1 0 84 0c8,0 13,6 13,13l0 61c0,7 -5,13 -13,13l-13 0c1,-7 0,-14 -7,-16 -8,-4 -16,3 -19,10 -1,2 -1,4 -2,6l-31 0c1,-7 0,-14 -7,-16 -8,-4 -16,3 -19,10 -1,2 -2,4 -2,7 -8,1 -17,0 -26,-2 -8,-1 -21,3 -23,2 -33,-14 3,-1 3,-6 0,-14 23,-6 14,-13 0,-1 -4,-3 -13,2 -7,3 -23,0 -24,0 -3,0 -23,5 -3,-2 4,-2 6,-3 9,-3 25,-5 7,-9 -6,-6 -6,1 -19,9 -24,1 -6,-9 -24,0 -26,-1 -9,-4 -24,-13 -27,-13 -18,2 3,-4 9,-2 2,0 18,12 29,4 9,-7 25,0 26,-1 1,-5 13,-3 18,-4 9,-2 -3,-7 -16,-2 -6,3 6,-7 0,-8 -5,0 -15,12 -21,6 -5,-5 -17,-8 -17,-8 22,-5 20,1 33,-6 1,-1 13,-7 22,0 17,12 26,-3 9,-4 -20,-1 3,-8 15,-3 10,0 12,0 12,0 11,0 -6,-5 -6,-5 -6,-7 -29,3 -39,-2 -8,-4 20,-4 23,-7 9,-7 23,-6 38,-4 1,0 2,-1 4,-1zm60 95c-4,0 -7,0 -7,1 0,0 3,0 7,0 4,0 7,0 7,0 0,-1 -3,-1 -7,-1zm-59 0c-3,0 -7,1 -7,1 0,0 4,0 7,0 4,0 7,0 7,0 0,0 -3,-1 -7,-1zm-2 4c-5,0 -9,0 -9,0 0,1 4,1 9,1 6,0 10,0 10,-1 0,0 -4,0 -10,0zm0 3c-9,0 -16,0 -16,1 0,0 7,0 16,0 9,0 16,0 16,0 0,-1 -7,-1 -16,-1zm29 -29c-6,-3 -13,1 -17,9 -4,8 -2,17 3,19 6,3 14,-2 17,-9 4,-8 2,-17 -3,-19zm-4 7c-2,-2 -6,0 -8,5 -2,4 -1,8 2,9 3,1 6,-1 8,-5 2,-4 1,-8 -2,-9zm34 19c-5,0 -9,0 -9,0 0,1 4,1 9,1 6,0 10,0 10,-1 0,0 -4,0 -10,0zm0 3c-9,0 -16,0 -16,0 0,1 7,1 16,1 9,0 16,0 16,-1 0,0 -7,0 -16,0zm29 -29c-6,-3 -14,1 -17,9 -4,8 -2,17 3,19 6,3 13,-2 17,-10 4,-7 2,-16 -3,-18zm-4 7c-3,-2 -6,0 -8,4 -2,5 -1,9 2,10 2,1 6,-1 8,-5 2,-4 1,-8 -2,-9zm-42 -65l44 27 -44 28 0 -55z"></path><path class="fil1" d="M-3240 -130c23,0 42,18 42,42 0,23 -19,42 -42,42 -11,0 -31,-1 -41,-3 -7,-1 -20,3 -22,2 -1,0 0,0 -6,-2 -19,-9 9,-2 10,-4 4,-12 21,-5 12,-12 0,-1 -4,-3 -12,2 -6,3 -22,0 -22,0 -3,0 -22,4 -3,-2 3,-1 6,-3 8,-3 21,-5 10,-10 -5,-6 -6,2 -18,9 -23,2 -6,-9 -20,0 -24,-2 -10,-2 -20,-12 -26,-12 -17,1 6,-5 9,-2 1,0 17,12 27,4 9,-7 24,0 24,-1 1,-4 13,-3 17,-4 9,-1 3,-8 -14,-2 0,0 -7,3 -1,-1 6,-4 2,-6 -1,-6 -3,1 -13,11 -18,6 -5,-5 -17,-8 -17,-9 21,-4 20,10 31,-5 1,-1 13,-7 21,0 17,12 31,-10 8,-3 -13,3 7,-10 15,-5 8,1 11,1 11,1 9,0 -6,-4 -6,-4 -6,-6 -26,0 -36,-2 -16,-3 21,-5 21,-7 9,-7 47,-4 63,-4zm-6 63l0 -38 29 18 -29 20z"></path><path class="fil1" d="M-3631 740c128,23 213,64 213,111 0,47 -85,88 -212,110 11,-9 18,-23 18,-39l0 -142c0,-16 -7,-30 -19,-40zm-401 156c-81,-4 -185,-41 -185,-46 0,-5 104,-43 184,-46l1 1c8,10 10,32 10,45 0,13 -2,35 -10,46zm122 154c83,-9 150,-42 185,-84l61 0c25,0 44,-20 44,-44l0 -142c0,-24 -19,-44 -44,-44l-62 0c-34,-36 -101,-65 -184,-73 -79,-8 -155,5 -205,32 16,0 33,0 50,2 55,5 103,20 139,39 -24,0 -44,20 -44,44l0 142c0,24 20,44 44,44l1 0c-37,23 -85,39 -140,45 -17,2 -34,3 -50,3 51,30 126,45 205,36zm-116 -250l49 0 0 101 -49 0 0 -1c7,-9 11,-28 11,-50 0,-21 -4,-40 -11,-50l0 0zm100 -49l262 0c16,0 29,13 29,29l0 142c0,16 -13,29 -29,29l-262 0c-16,0 -29,-13 -29,-29l0 -142c0,-16 13,-29 29,-29zm102 135l0 34 95 -68 -95 -69 0 35 0 68zm15 5l55 -39 -55 -40 0 79z"></path><path class="fil2" d="M-3888 1757l-26 0 0 -2c-8,0 -16,-1 -24,-3 -7,-1 -64,-13 -64,-22 0,-10 57,-21 64,-23 8,-1 16,-2 24,-3l0 -1 26 0 0 -6c0,-9 6,-17 13,-21 -16,-7 -35,-11 -53,-13 -8,-1 -15,-1 -23,-1l-17 0 15 -8c29,-14 66,-18 98,-15 28,3 65,13 86,34l27 0c1,0 1,0 2,0l-1 -1 15 3c25,4 102,21 102,55 0,35 -77,51 -102,55l-14 3 0 -1c0,0 -1,0 -2,0l-27 0c-20,24 -56,36 -86,40 -32,3 -70,-1 -98,-18l-13 -8 15 1c8,0 15,-1 23,-1 18,-3 37,-7 54,-16 -8,-4 -14,-12 -14,-22l0 -6zm161 -78c59,10 99,29 99,51 0,22 -40,41 -98,51 5,-4 8,-11 8,-18l0 -66c0,-7 -3,-14 -9,-18zm-185 72c-38,-2 -86,-19 -86,-21 0,-2 48,-20 85,-22l1 1c3,5 4,15 4,21 0,6 -1,16 -4,21zm56 72c39,-5 70,-20 86,-40l28 0c11,0 20,-9 20,-20l0 -66c0,-11 -9,-20 -20,-20l-29 0c-16,-17 -47,-30 -85,-34 -37,-3 -71,3 -95,15 8,0 16,0 23,1 26,2 48,9 65,18 -12,0 -21,9 -21,20l0 66c0,11 9,20 21,20l0 0c-17,11 -39,19 -65,22 -7,0 -15,1 -23,1 24,14 59,21 95,17zm-54 -116l23 0 0 46 -23 0 0 0c4,-4 6,-13 6,-23 0,-10 -2,-19 -6,-23l0 0zm47 -23l121 0c8,0 14,6 14,13l0 66c0,8 -6,14 -14,14l-121 0c-8,0 -14,-6 -14,-14l0 -66c0,-7 6,-13 14,-13zm47 63l0 15 44 -31 -44 -32 0 16 0 32zm7 2l25 -18 -25 -19 0 37zm-54 -61c-6,0 -10,4 -10,9l0 66c0,5 5,10 10,10l121 0c5,0 10,-5 10,-10l0 -66c0,-5 -5,-9 -10,-9l-121 0zm43 82l0 -79 55 40 -55 39zm15 -29l14 -10 -14 -11 0 21z"></path><path class="fil1" d="M-4154 2135c79,0 143,62 143,139 0,77 -64,139 -143,139 -79,0 -142,-62 -142,-139 0,-77 63,-139 142,-139zm55 110c39,7 65,20 65,34 0,15 -26,28 -65,35 3,-3 5,-8 5,-13l0 -44c0,-5 -2,-9 -5,-12zm-124 48c-24,-1 -56,-12 -56,-14 0,-2 32,-13 56,-15l0 1c3,3 4,10 4,14 0,4 -1,11 -4,14zm38 48c25,-2 46,-13 57,-26l19 0c7,0 13,-6 13,-14l0 -44c0,-8 -6,-14 -13,-14l-20 0c-10,-11 -31,-20 -56,-22 -24,-3 -48,1 -63,9 5,0 10,1 15,1 17,2 32,6 43,12 -7,0 -14,6 -14,14l0 44c0,8 7,14 14,14l0 0c-11,7 -26,12 -43,14 -5,1 -10,1 -15,1 15,10 39,14 63,11zm-36 -78l15 0 0 32 -15 0 0 0c2,-3 4,-9 4,-16 0,-7 -2,-13 -4,-16l0 0zm31 -15l81 0c5,0 8,4 8,9l0 44c0,5 -3,9 -8,9l-81 0c-5,0 -9,-4 -9,-9l0 -44c0,-5 4,-9 9,-9zm31 42l0 11 30 -22 -30 -21 0 11 0 21zm5 2l17 -13 -17 -12 0 25z"></path><path class="fil1" d="M-2879 -652l211 0c19,0 35,15 35,35l0 114c0,19 -16,35 -35,35l-211 0c-19,0 -35,-16 -35,-35l0 -114c0,-20 16,-35 35,-35zm0 12l211 0c12,0 23,10 23,23l0 114c0,12 -11,23 -23,23l-211 0c-13,0 -23,-11 -23,-23l0 -114c0,-13 10,-23 23,-23zm82 108l0 27 76 -55 -76 -55 0 28 0 55zm12 4l44 -32 -44 -31 0 63z"></path><path class="fil2" d="M-4003 -316c1,-3 2,-8 2,-11 0,0 0,0 0,0 0,4 -22,3 -25,3 -2,0 -24,1 -24,-3 0,-4 22,-4 24,-4 3,0 25,0 25,4 0,-4 -1,-10 -3,-14l-1 0 0 -1 16 0 0 30 -16 0 0 -1 1 -1c0,0 1,-1 1,-2 -1,3 -15,3 -17,3 -3,0 -18,0 -18,-3 0,-4 15,-4 18,-4 2,0 17,0 17,4 0,0 0,0 0,0zm109 -42c33,7 55,18 55,31 0,12 -22,23 -55,30 3,-2 5,-5 5,-9l0 -42c0,-4 -2,-8 -5,-10zm-126 39c9,0 16,1 16,3 0,1 -7,2 -16,2 -10,0 -17,-1 -17,-2 0,-2 7,-3 17,-3zm0 -21c9,0 16,1 16,3 0,1 -7,2 -16,2 -9,0 -17,-1 -17,-2 0,-2 8,-3 17,-3zm-6 11c13,0 24,1 24,2 0,1 -11,2 -24,2 -12,0 -23,-1 -23,-2 0,-1 11,-2 23,-2zm23 -12l13 0 0 28 -13 0 0 0c1,-3 3,-8 3,-14 0,-6 -2,-12 -3,-14l0 0zm29 71c24,-3 43,-13 52,-25l-56 0c-10,7 -24,12 -40,14 -5,0 -10,0 -14,0 14,9 35,13 58,11zm0 -110c23,2 42,10 52,20l-56 0c0,0 -1,0 -1,0 -10,-5 -24,-9 -39,-11 -5,0 -10,0 -14,0 14,-8 35,-11 58,-9zm-4 23l77 0c5,0 9,4 9,9l0 42c0,4 -4,8 -9,8l-77 0c-5,0 -9,-4 -9,-8l0 -42c0,-5 4,-9 9,-9zm30 38l0 8 21 -16 -21 -15 0 8 0 15zm54 -40c13,3 57,13 57,32 0,19 -43,28 -57,31l-5 1 4 -3c3,-2 5,-5 5,-8l0 -42c0,-4 -2,-7 -5,-9l-5 -3 6 1zm-126 18c2,0 17,0 17,4 0,3 -15,3 -17,3 -3,0 -18,0 -18,-3 0,-4 15,-4 18,-4zm46 72c-19,2 -42,-1 -59,-11l-3 -2 4 0c4,0 9,0 14,-1 13,-1 28,-5 39,-13l1 0 59 0 -2 2c-12,15 -34,23 -53,25zm0 -112c17,1 40,7 53,21l1 1 -58 0c0,0 -1,0 -1,0l0 0 -1 0c-11,-6 -25,-9 -38,-11 -5,0 -10,0 -14,0l-5 0 4 -2c17,-9 40,-11 59,-9zm-4 23l77 0c6,0 10,5 10,10l0 42c0,5 -4,9 -10,9l-77 0c-5,0 -10,-4 -10,-9l0 -42c0,-5 5,-10 10,-10zm31 45l18 -14 -18 -13 0 27z"></path><path class="fil1" d="M-3633 2570c37,6 61,18 61,31 0,14 -24,25 -60,32 3,-3 5,-7 5,-11l0 -41c0,-4 -2,-9 -6,-11zm-130 40c10,0 17,1 17,2 0,1 -7,2 -17,2 -9,0 -16,-1 -16,-2 0,-1 7,-2 16,-2zm1 -21c9,0 16,1 16,2 0,1 -7,2 -16,2 -10,0 -17,-1 -17,-2 0,-1 7,-2 17,-2zm-6 10c13,0 24,1 24,2 0,2 -11,3 -24,3 -13,0 -23,-1 -23,-3 0,-1 10,-2 23,-2zm56 59c23,-2 43,-12 53,-24l17 0c7,0 13,-5 13,-12l0 -41c0,-7 -6,-12 -13,-12l-18 0c-9,-11 -29,-19 -52,-21 -23,-2 -44,1 -59,9 5,0 10,0 14,0 16,2 30,6 40,12 -7,0 -12,5 -12,12l0 41c0,7 5,12 12,12l0 0c-10,7 -24,12 -39,13 -5,1 -10,1 -15,1 15,9 36,13 59,10zm-33 -71l13 0 0 29 -13 0 0 0c2,-3 3,-9 3,-15 0,-6 -1,-11 -3,-14l0 0zm28 -14l75 0c5,0 8,4 8,8l0 41c0,4 -3,8 -8,8l-75 0c-4,0 -8,-4 -8,-8l0 -41c0,-4 4,-8 8,-8zm29 38l0 10 28 -19 -28 -20 0 10 0 19zm4 2l16 -11 -16 -12 0 23z"></path><path class="fil1" d="M-3780 2886c54,0 98,43 98,96 0,54 -44,97 -98,97 -55,0 -98,-43 -98,-97 0,-53 43,-96 98,-96zm39 70c29,5 48,14 48,25 0,11 -19,20 -48,25 2,-2 4,-5 4,-9l0 -32c0,-4 -2,-7 -4,-9zm-104 32c7,0 13,0 13,1 0,2 -6,2 -13,2 -7,0 -13,0 -13,-2 0,-1 6,-1 13,-1zm0 -17c7,0 13,1 13,2 0,1 -6,2 -13,2 -7,0 -13,-1 -13,-2 0,-1 6,-2 13,-2zm-4 8c10,0 19,1 19,2 0,1 -9,2 -19,2 -10,0 -19,-1 -19,-2 0,-1 9,-2 19,-2zm44 47c19,-2 34,-9 42,-19l14 0c6,0 10,-4 10,-10l0 -32c0,-6 -4,-10 -10,-10l-14 0c-8,-8 -23,-15 -42,-17 -18,-1 -35,2 -47,8 4,-1 8,0 12,0 12,1 23,4 31,9 -5,0 -10,4 -10,10l0 32c0,6 5,10 10,10l1 0c-9,5 -20,9 -32,11 -4,0 -8,0 -12,0 12,7 29,11 47,8zm-26 -57l11 0 0 23 -11 0 0 0c1,-2 2,-6 2,-11 0,-5 -1,-9 -2,-11l0 -1zm22 -11l60 0c4,0 7,3 7,7l0 32c0,4 -3,7 -7,7l-60 0c-3,0 -6,-3 -6,-7l0 -32c0,-4 3,-7 6,-7zm24 31l0 8 21 -16 -21 -15 0 7 0 16zm3 1l13 -9 -13 -9 0 18z"></path><path class="fil1" d="M-2943 -297l211 0c19,0 35,16 35,35l0 114c0,19 -16,35 -35,35l-211 0c-19,0 -35,-16 -35,-35l0 -114c0,-19 16,-35 35,-35zm0 12l211 0c13,0 23,10 23,23l0 114c0,12 -10,23 -23,23l-211 0c-12,0 -23,-11 -23,-23l0 -114c0,-13 11,-23 23,-23zm82 108l0 27 77 -55 -77 -54 0 27 0 55zm12 4l44 -32 -44 -31 0 63z"></path><path class="fil1" d="M-3023 -246l39 0 0 80 -39 0 0 0c6,-7 10,-22 10,-40 0,-17 -4,-32 -10,-40l0 0z"></path><path class="fil1" d="M-2929 -356c70,7 127,33 152,65l-155 0c-30,-19 -72,-33 -122,-38 -13,-1 -27,-2 -40,-1 41,-21 101,-32 165,-26z"></path><path class="fil1" d="M-2929 -46c70,-7 127,-37 153,-74l-156 0c-29,22 -72,38 -121,43 -14,2 -28,2 -41,2 41,25 101,37 165,29z"></path><path class="fil1" d="M-2706 -294c102,18 170,51 170,89 0,37 -68,70 -170,88 9,-7 15,-19 15,-31l0 -114c0,-13 -6,-24 -15,-32z"></path><ellipse class="fil1" cx="-3085" cy="-206" rx="66" ry="7"></ellipse><ellipse class="fil1" cx="-3070" cy="-235" rx="46" ry="7"></ellipse><ellipse class="fil1" cx="-3071" cy="-176" rx="46" ry="7"></ellipse><path class="fil1" d="M-3563 30c131,26 218,70 218,119 0,50 -85,93 -216,119 12,-8 19,-22 19,-36l0 -164c0,-16 -8,-30 -21,-38zm-491 153c35,0 64,4 64,9 0,5 -29,9 -64,9 -36,0 -64,-4 -64,-9 0,-5 28,-9 64,-9zm0 -81c35,0 64,4 64,9 0,5 -29,9 -64,9 -35,0 -64,-4 -64,-9 0,-5 29,-9 64,-9zm-20 39c50,0 90,4 90,9 0,5 -40,9 -90,9 -51,0 -91,-4 -91,-9 0,-5 40,-9 91,-9zm86 -46l54 0 0 111 -54 0 0 0c7,-11 13,-32 13,-56 0,-24 -6,-45 -13,-55l0 0zm115 276c92,-10 167,-47 205,-94l-221 0c-40,26 -94,44 -156,51 -19,2 -38,3 -56,3 56,34 140,50 228,40zm-1 -428c91,9 165,40 203,80l-218 0c-1,0 -3,0 -4,0 -40,-21 -92,-37 -152,-43 -19,-2 -38,-2 -56,-2 56,-29 139,-44 227,-35zm-15 92l302 0c18,0 33,15 33,33l0 164c0,18 -15,33 -33,33l-302 0c-18,0 -33,-15 -33,-33l0 -164c0,-18 15,-33 33,-33zm117 147l0 30 83 -60 -83 -59 0 30 0 59z"></path><path class="fil1" d="M-4237 1770c80,0 145,63 145,141 0,79 -65,142 -145,142 -81,0 -146,-63 -146,-142 0,-78 65,-141 146,-141zm62 100c42,8 70,23 70,39 0,16 -27,30 -69,38 3,-3 6,-7 6,-12l0 -53c0,-5 -3,-9 -7,-12zm-159 50c11,0 21,1 21,3 0,1 -10,2 -21,2 -12,0 -21,-1 -21,-2 0,-2 9,-3 21,-3zm0 -27c11,0 21,2 21,3 0,2 -10,3 -21,3 -11,0 -21,-1 -21,-3 0,-1 10,-3 21,-3zm-7 13c17,0 30,1 30,3 0,2 -13,3 -30,3 -16,0 -29,-1 -29,-3 0,-2 13,-3 29,-3zm28 -15l18 0 0 36 -18 0 0 0c3,-3 4,-10 4,-18 0,-8 -1,-14 -4,-18l0 0zm37 90c30,-4 55,-16 67,-31l-72 0c-13,8 -30,14 -50,17 -6,0 -12,1 -18,1 18,10 45,16 73,13zm0 -139c30,3 54,13 66,26l-71 0c0,0 0,0 -1,0 -13,-7 -30,-12 -49,-14 -6,-1 -12,-1 -18,-1 18,-9 45,-14 73,-11zm-5 30l98 0c6,0 11,5 11,10l0 53c0,6 -5,11 -11,11l-98 0c-6,0 -10,-5 -10,-11l0 -53c0,-5 4,-10 10,-10zm38 47l0 10 27 -19 -27 -20 0 10 0 19z"></path><path class="fil1" d="M-4071 2815c56,0 102,45 102,100 0,56 -46,101 -102,101 -57,0 -103,-45 -103,-101 0,-55 46,-100 103,-100zm85 38c67,14 110,36 110,61 0,26 -43,48 -108,61 12,-17 19,-37 19,-60 0,-23 -8,-44 -21,-62zm-151 -45c13,1 26,4 38,7 -20,5 -39,16 -53,32 -20,-10 -45,-17 -74,-20 -10,-1 -19,-1 -29,-1 29,-15 72,-23 118,-18zm-61 78l25 0c-3,9 -5,19 -5,29 0,10 2,20 4,29l-24 0 0 0c4,-6 7,-17 7,-29 0,-13 -3,-23 -7,-29l0 0zm61 143c18,-2 34,-5 49,-11 -25,-4 -47,-16 -63,-34 -20,12 -46,20 -75,23 -10,1 -19,2 -29,2 29,17 72,26 118,20zm-98 -97c20,0 35,2 35,4 0,3 -15,5 -35,5 -19,0 -35,-2 -35,-5 0,-2 16,-4 35,-4zm1 -42c19,0 35,2 35,4 0,3 -16,5 -35,5 -20,0 -35,-2 -35,-5 0,-2 15,-4 35,-4zm-12 20c28,0 50,2 50,5 0,2 -22,5 -50,5 -27,0 -49,-3 -49,-5 0,-3 22,-5 49,-5zm151 33l0 27 79 -55 -79 -56 0 28 0 56z"></path><path class="fil2" d="M-3850 2308c-7,4 -34,3 -38,3 -4,0 -39,1 -39,-6 0,-7 35,-6 39,-6 4,0 31,0 38,4 0,-3 -1,-7 -2,-11 -4,5 -24,4 -27,4 -4,0 -29,1 -29,-6 0,-6 25,-6 29,-6 3,0 18,0 25,3 0,-1 -1,-1 -1,-1l0 -1 0 -4 22 0c3,-8 8,-17 13,-24 -16,-8 -35,-12 -53,-14 -7,-1 -14,-1 -21,-1l-11 0 9 -5c26,-13 60,-16 89,-13 9,1 19,2 29,5l5 1c5,-1 9,-1 14,-1 24,0 46,11 60,28l4 0c20,4 83,19 83,48 0,29 -62,43 -82,47l-4 1c-14,18 -36,29 -61,29 -2,0 -4,0 -6,0l-6 2c-11,4 -24,7 -36,8 -29,4 -63,0 -89,-15l-8 -5 10 0c7,0 14,0 21,-1 18,-2 37,-7 54,-17 -6,-7 -11,-16 -14,-25l-22 0 0 -3 0 -1c0,0 0,0 0,0 -6,2 -22,2 -25,2 -4,0 -28,1 -28,-6 0,-6 24,-6 28,-6 4,0 24,0 28,4 1,-4 2,-8 2,-11zm91 -76c42,0 76,33 76,74 0,41 -34,74 -76,74 -42,0 -75,-33 -75,-74 0,-41 33,-74 75,-74zm63 28c49,10 82,26 82,45 0,19 -32,35 -81,45 9,-13 15,-28 15,-44 0,-18 -6,-34 -16,-46zm-112 -34c11,1 20,3 29,5 -15,4 -29,13 -39,24 -15,-7 -34,-12 -55,-15 -7,0 -14,-1 -21,0 21,-12 53,-17 86,-14zm-45 58l19 0c-2,7 -3,14 -3,22 0,7 1,14 2,21l-18 0 0 -1c3,-4 5,-12 5,-21 0,-9 -2,-17 -5,-21l0 0zm46 106c13,-2 25,-4 36,-8 -19,-3 -35,-12 -47,-26 -15,9 -34,15 -55,17 -7,1 -14,2 -21,2 21,12 53,19 87,15zm-73 -72c15,0 26,1 26,3 0,2 -11,4 -26,4 -14,0 -25,-2 -25,-4 0,-2 11,-3 25,-3zm1 -31c14,0 25,1 25,3 0,2 -11,4 -25,4 -15,0 -26,-2 -26,-4 0,-2 11,-3 26,-3zm-9 15c21,0 37,1 37,3 0,2 -16,4 -37,4 -20,0 -36,-2 -36,-4 0,-2 16,-3 36,-3zm112 24l0 20 58 -41 -58 -41 0 21 0 41zm2 15l51 -36 -51 -36 0 72zm15 -107c-39,0 -73,32 -73,72 0,40 34,71 73,71 40,0 73,-31 73,-71 0,-40 -33,-72 -73,-72zm-20 118l0 -93 66 46 -66 47zm8 -16l43 -31 -43 -31 0 62zm82 -72c7,12 11,27 11,42 0,14 -3,28 -10,40 22,-5 71,-19 71,-41 0,-22 -50,-36 -72,-41zm-130 -12c8,-9 18,-16 30,-20 -7,-2 -13,-2 -19,-3 -23,-2 -51,-1 -74,8 3,0 6,0 9,1 18,1 37,6 54,14zm-29 35c2,5 3,13 3,18 0,6 -1,13 -3,19l10 0c-2,-6 -2,-12 -2,-18 0,-7 0,-13 2,-19l-10 0zm66 95c-14,-4 -27,-12 -36,-22 -17,9 -36,14 -55,16 -3,1 -7,1 -10,1 23,10 51,13 75,10 9,-1 18,-2 26,-5zm-113 -61c6,1 13,1 15,1 3,0 10,0 16,-1 -6,0 -13,-1 -16,-1 -2,0 -9,1 -15,1zm0 -31c6,1 13,1 16,1 2,0 9,0 15,-1 -6,0 -13,-1 -15,-1 -3,0 -10,1 -16,1zm29 15c-9,0 -19,0 -22,0 -3,0 -13,0 -21,0 8,1 18,1 21,1 3,0 13,0 22,-1z"></path><path class="fil2" d="M-4693 1708c1,-37 30,-67 67,-66 37,0 66,31 66,67 -1,37 -30,67 -67,67 -37,-1 -66,-31 -66,-68zm6 0c1,-34 28,-61 61,-60 33,0 60,28 59,61 0,34 -27,61 -60,60 -33,0 -60,-28 -60,-61zm60 29c1,2 1,12 1,13 0,1 0,14 -2,13 -3,0 -2,-12 -2,-13 0,-1 0,-11 1,-13 -1,0 -2,0 -4,0 2,2 2,9 2,10 0,1 0,10 -3,10 -2,0 -1,-9 -1,-10 0,-1 -1,-7 1,-9 -1,0 -1,0 -1,0l0 1 -1 0 0 -8c-3,-1 -6,-3 -9,-5 -2,6 -4,12 -5,19 0,2 0,5 0,7l0 4 -2 -4c-4,-9 -5,-21 -4,-30 0,-4 1,-7 2,-10l0 -2c0,-2 0,-4 0,-5 0,-8 4,-16 10,-21l0 -1c1,-7 7,-29 17,-29 10,0 15,22 16,29l0 1c6,5 10,13 10,21 0,1 0,2 0,2l1 2c1,5 2,9 2,13 1,10 0,22 -5,31l-2 3 0 -4c0,-2 0,-4 0,-7 -1,-6 -3,-13 -6,-19 -2,2 -5,4 -9,5l0 8 -1 0 0 0c0,-1 0,-1 0,-1 1,3 1,8 0,9 0,2 1,10 -2,10 -2,0 -2,-9 -2,-10 0,-1 0,-8 2,-9 -1,-1 -3,-1 -4,-1zm-26 -32c0,-15 12,-26 26,-26 14,0 25,12 25,26 0,15 -12,27 -26,26 -14,0 -25,-12 -25,-26zm10 -22c3,-17 9,-28 16,-28 6,0 12,11 15,28 -4,-3 -9,-5 -15,-5 -6,0 -12,2 -16,5zm-12 39c0,-4 1,-7 2,-10 1,5 4,10 8,14 -3,5 -5,11 -6,19 0,2 0,5 0,7 -4,-8 -6,-19 -4,-30zm20 16l0 -7c2,1 5,1 7,1 3,0 5,0 7,-1l0 7 0 0c-1,-1 -4,-2 -7,-2 -3,0 -6,1 -7,2l0 0zm37 -16c-1,-4 -2,-8 -3,-12 -1,6 -4,12 -9,16 3,5 5,12 6,19 0,3 0,5 0,7 4,-7 7,-18 6,-30zm-26 25c0,-5 1,-9 2,-9 0,0 1,4 1,9 0,5 -1,9 -2,9 0,0 -1,-4 -1,-9zm-11 0c0,-5 1,-9 2,-9 0,0 1,4 1,9 0,5 -1,9 -1,9 -1,0 -2,-4 -2,-9zm6 3c0,-7 0,-13 1,-13 1,0 1,6 1,13 0,7 -1,13 -1,13 -1,0 -1,-6 -1,-13zm8 -39l8 0 -15 -20 -14 20 7 0 14 0zm6 -1l-13 -18 -12 18 25 0zm-37 -5c0,14 10,25 24,25 14,1 25,-11 25,-25 0,-13 -10,-25 -24,-25 -14,0 -25,11 -25,25zm40 7l-32 0 17 -23 15 23zm-5 -3l-11 -15 -10 15 21 0zm-25 -28c5,-3 10,-4 15,-4 5,0 10,1 14,4 -2,-8 -7,-25 -14,-25 -8,0 -13,17 -15,25zm-5 45c-3,-3 -5,-7 -6,-11 -1,3 -1,5 -1,7 -1,8 -1,17 2,26 0,-2 0,-3 0,-4 1,-6 3,-12 5,-18zm13 10c2,-1 4,-1 6,-1 2,0 4,0 6,1l0 -3c-2,0 -4,0 -6,0 -2,0 -4,0 -6,0l0 3zm33 -23c-1,5 -4,10 -8,13 3,6 5,12 6,19 0,1 0,2 0,4 4,-8 4,-18 4,-27 -1,-3 -1,-6 -2,-9zm-22 39c1,-2 1,-4 1,-5 0,-1 0,-3 -1,-5 0,2 0,4 0,5 0,1 0,3 0,5zm-10 0c0,-2 0,-4 0,-5 0,-1 0,-3 0,-5 -1,2 -1,4 -1,5 0,1 0,3 1,5zm5 -10c0,3 0,7 0,8 0,1 0,4 0,7 0,-3 0,-6 0,-7 0,-1 0,-5 0,-8zm-13 -24c3,4 8,6 13,6 6,0 10,-2 14,-6l-27 0zm32 -13c0,-8 -5,-15 -12,-18l12 18zm-25 -18c-7,3 -12,9 -12,17l12 -17zm2 -16c2,0 3,0 5,0 1,0 3,0 4,0 -1,-4 -3,-8 -4,-9 -2,1 -4,5 -5,9z"></path><path class="fil1" d="M-4751 2576c65,0 118,52 118,117 0,64 -53,116 -118,116 -65,0 -118,-52 -118,-116 0,-65 53,-117 118,-117zm-55 116c-5,3 -23,3 -25,3 -3,0 -27,0 -27,-5 0,-4 24,-4 27,-4 2,0 20,0 25,3 0,-2 0,-5 -1,-7 -3,3 -16,2 -19,2 -2,0 -19,1 -19,-4 0,-4 17,-4 19,-4 2,0 13,0 17,2 0,0 0,-1 0,-1l0 0 0 -3 15 0c2,-6 5,-11 9,-16 -11,-5 -24,-8 -37,-10 -4,0 -9,0 -14,0l-7 0 6 -3c18,-9 41,-11 60,-10 7,1 13,2 19,4l4 1c3,-1 6,-1 10,-1 16,0 30,7 40,19l3 0c14,3 56,13 56,32 0,20 -42,29 -56,32l-2 1c-10,12 -25,19 -41,19 -2,0 -3,0 -4,0l-4 2c-8,3 -17,4 -25,5 -20,3 -43,0 -60,-10l-5 -4 6 1c5,0 10,-1 14,-1 13,-2 26,-5 37,-11 -4,-5 -8,-11 -10,-17l-14 0 0 -3 0 0c0,0 0,0 0,0 -5,1 -15,1 -17,1 -3,0 -19,1 -19,-4 0,-4 16,-4 19,-4 2,0 16,0 19,3 1,-3 1,-6 1,-8zm62 -51c28,0 51,22 51,50 0,27 -23,50 -51,50 -29,0 -51,-23 -51,-50 0,-28 22,-50 51,-50zm42 19c33,6 55,18 55,30 0,13 -21,24 -54,31 6,-9 10,-19 10,-30 0,-12 -4,-23 -11,-31zm-75 -23c7,1 13,2 19,3 -10,3 -20,9 -26,17 -10,-5 -23,-9 -37,-10 -5,-1 -10,-1 -15,-1 15,-7 36,-11 59,-9zm-31 39l13 0c-2,5 -2,10 -2,15 0,5 0,9 2,14l-13 0 0 0c2,-3 4,-8 4,-15 0,-6 -2,-11 -4,-14l0 0zm31 72c9,-1 17,-3 24,-6 -12,-2 -23,-8 -31,-17 -10,6 -23,10 -37,12 -5,0 -10,0 -15,0 15,9 36,13 59,11zm-49 -49c10,0 18,1 18,2 0,2 -8,3 -18,3 -10,0 -17,-1 -17,-3 0,-1 7,-2 17,-2zm0 -21c10,0 18,1 18,2 0,2 -8,3 -18,3 -9,0 -17,-1 -17,-3 0,-1 8,-2 17,-2zm-5 10c13,0 24,1 24,2 0,2 -11,3 -24,3 -14,0 -25,-1 -25,-3 0,-1 11,-2 25,-2zm75 16l0 14 39 -28 -39 -27 0 14 0 27zm2 11l34 -25 -34 -24 0 49zm10 -72c-27,0 -50,21 -50,48 0,27 23,48 50,48 26,0 49,-21 49,-48 0,-27 -23,-48 -49,-48zm-14 79l0 -63 44 31 -44 32zm6 -11l29 -21 -29 -20 0 41zm54 -48c6,8 9,18 9,28 0,9 -3,19 -8,27 15,-4 48,-13 48,-28 0,-15 -33,-24 -49,-27zm-87 -9c6,-6 12,-10 20,-13 -4,-1 -8,-2 -12,-2 -16,-2 -35,0 -50,5 2,1 4,1 6,1 12,1 25,4 36,9zm-20 24c2,4 3,9 3,12 0,4 -1,9 -3,13l7 0c-1,-4 -1,-8 -1,-12 0,-5 0,-9 1,-13l-7 0zm45 64c-9,-2 -18,-8 -25,-15 -11,7 -24,10 -36,11 -3,1 -5,1 -7,1 15,7 34,9 51,7 5,-1 11,-2 17,-4zm-76 -41c4,1 9,1 10,1 2,0 6,0 10,-1 -4,0 -8,0 -10,0 -1,0 -6,0 -10,0zm0 -21c4,1 9,1 10,1 2,0 7,0 11,-1 -4,0 -9,0 -11,0 -1,0 -6,0 -10,0zm19 10c-5,0 -12,0 -14,0 -2,0 -9,0 -15,0 6,1 13,1 15,1 2,0 9,0 14,-1z"></path><path class="fil2" d="M-4811 2242c-6,2 -15,3 -19,3 -17,2 -34,2 -50,2 -17,0 -34,0 -51,-2 -7,-1 -27,-1 -27,-12 0,-10 20,-11 27,-11 17,-2 34,-2 51,-2 16,0 33,0 50,2 4,0 13,0 19,3 0,-4 -1,-9 -2,-13 -13,8 -44,7 -52,7 -9,0 -56,1 -56,-14 0,-15 47,-14 56,-14 7,0 30,0 44,4l0 -9 47 0c6,-13 15,-26 25,-36 -32,-18 -71,-27 -107,-31 -13,-1 -26,-1 -39,-1l-30 0 27 -14c48,-25 112,-31 166,-25 40,4 85,15 120,36l5 3 -2 5c12,6 24,14 34,23l10 2c38,9 142,36 142,88 0,53 -108,80 -146,89l-12 2c-5,5 -12,9 -19,13l3 5 -5 4c-35,29 -85,44 -130,49 -55,6 -119,-1 -167,-29l-23 -14 27 0c13,0 26,0 39,-2 37,-4 75,-15 107,-35 -11,-10 -20,-23 -26,-38l-46 0 0 -7c-14,4 -38,4 -44,4 -9,0 -57,1 -57,-14 0,-15 48,-14 57,-14 7,0 39,-1 52,7 1,-5 2,-10 2,-14zm244 -87c83,19 137,48 137,81 0,33 -56,63 -141,82 21,-22 34,-51 34,-84 0,-30 -11,-58 -30,-79zm-166 236c53,-6 97,-24 127,-48 -17,8 -35,12 -54,12 -32,0 -61,-12 -84,-32 -28,19 -67,33 -111,37 -14,2 -27,3 -40,2 40,24 100,36 162,29zm0 -305c47,4 88,17 117,35 -14,-5 -29,-8 -44,-8 -32,0 -61,12 -83,32 -29,-16 -68,-28 -112,-33 -14,-1 -27,-1 -40,-1 40,-21 99,-31 162,-25zm73 34c63,0 116,50 116,114 0,64 -53,115 -116,115 -64,0 -117,-51 -117,-115 0,-64 53,-114 117,-114zm0 13c57,0 103,45 103,101 0,56 -46,101 -103,101 -57,0 -103,-45 -103,-101 0,-56 46,-101 103,-101zm-31 137l0 34 98 -69 -98 -69 0 35 0 69zm14 8l60 -43 -60 -43 0 86zm-136 -84l37 0c-5,12 -7,26 -7,40 0,14 2,27 6,39l-36 0 0 0c6,-8 10,-23 10,-40 0,-17 -4,-32 -10,-39l0 0zm-52 62c28,0 50,3 50,7 0,4 -22,6 -50,6 -27,0 -50,-2 -50,-6 0,-4 23,-7 50,-7zm0 -58c28,0 50,3 50,7 0,4 -22,7 -50,7 -27,0 -49,-3 -49,-7 0,-4 22,-7 49,-7zm-15 29c38,0 70,3 70,6 0,4 -32,7 -70,7 -39,0 -71,-3 -71,-7 0,-3 32,-6 71,-6zm220 -87c-52,0 -96,42 -96,94 0,53 44,94 96,94 52,0 96,-41 96,-94 0,-52 -44,-94 -96,-94zm-38 178l0 -166 117 83 -117 83zm28 -54l41 -29 -41 -29 0 58z"></path><path class="fil1" d="M-4232 3188c131,29 215,76 215,128 0,52 -87,99 -221,128 33,-34 54,-80 54,-131 0,-48 -18,-92 -48,-125zm-261 372c82,-9 153,-37 199,-76 -25,13 -54,20 -85,20 -50,0 -96,-19 -131,-51 -45,30 -106,51 -176,59 -21,2 -42,3 -63,3 64,37 157,56 256,45zm0 -481c74,7 138,28 184,56 -22,-9 -45,-13 -70,-13 -50,0 -96,19 -131,50 -45,-26 -106,-44 -176,-51 -21,-2 -42,-3 -63,-3 63,-33 157,-49 256,-39zm114 54c100,0 184,79 184,180 0,101 -84,180 -184,180 -100,0 -183,-79 -183,-180 0,-101 83,-180 183,-180zm0 21c90,0 163,71 163,159 0,88 -73,159 -163,159 -89,0 -162,-71 -162,-159 0,-88 73,-159 162,-159zm-48 215l0 54 153 -109 -153 -109 0 55 0 109zm22 13l95 -68 -95 -67 0 135zm-215 -133l58 0c-7,20 -11,41 -11,64 0,21 4,42 10,61l-57 0 0 0c9,-12 16,-36 16,-63 0,-27 -7,-50 -16,-62l0 0zm-81 99c43,0 78,4 78,10 0,6 -35,10 -78,10 -43,0 -79,-4 -79,-10 0,-6 36,-10 79,-10zm0 -91c44,0 79,4 79,10 0,6 -35,10 -79,10 -43,0 -78,-4 -78,-10 0,-6 35,-10 78,-10zm-25 44c62,0 111,5 111,10 0,6 -49,11 -111,11 -61,0 -111,-5 -111,-11 0,-5 50,-10 111,-10z"></path><path class="fil1" d="M-4403 432c75,0 136,59 136,132 0,73 -61,132 -136,132 -76,0 -137,-59 -137,-132 0,-73 61,-132 137,-132zm49 96c37,8 61,21 61,36 0,15 -24,28 -62,36 9,-9 15,-22 15,-37 0,-14 -5,-26 -14,-35zm-74 105c24,-3 44,-11 57,-21 -7,3 -16,5 -24,5 -14,0 -27,-5 -37,-14 -13,8 -30,14 -50,16 -6,1 -12,1 -18,1 18,11 45,16 72,13zm0 -136c21,2 39,8 53,16 -7,-3 -13,-4 -20,-4 -14,0 -27,5 -37,14 -13,-7 -30,-12 -50,-14 -6,-1 -12,-1 -18,-1 18,-9 44,-14 72,-11zm33 15c28,0 52,23 52,51 0,29 -24,51 -52,51 -28,0 -52,-22 -52,-51 0,-28 24,-51 52,-51zm0 6c25,0 46,20 46,45 0,25 -21,45 -46,45 -25,0 -46,-20 -46,-45 0,-25 21,-45 46,-45zm-14 61l0 15 44 -31 -44 -30 0 15 0 31zm6 4l27 -20 -27 -19 0 39zm-60 -38l16 0c-2,6 -3,12 -3,18 0,6 1,12 3,17l-16 0 0 0c2,-3 4,-10 4,-17 0,-8 -2,-15 -4,-18l0 0zm-23 28c12,0 22,1 22,3 0,1 -10,3 -22,3 -13,0 -23,-2 -23,-3 0,-2 10,-3 23,-3zm0 -26c12,0 22,1 22,3 0,2 -10,3 -22,3 -12,0 -22,-1 -22,-3 0,-2 10,-3 22,-3zm-7 13c17,0 31,1 31,3 0,1 -14,3 -31,3 -18,0 -32,-2 -32,-3 0,-2 14,-3 32,-3z"></path><path class="fil1" d="M-3919 -1067l93 0c9,0 16,7 16,15l0 50c0,9 -7,16 -16,16l-93 0c-8,0 -15,-7 -15,-16l0 -50c0,-8 7,-15 15,-15zm-53 73c19,0 35,1 35,2 0,1 -16,2 -35,2 -20,0 -35,-1 -35,-2 0,-1 15,-2 35,-2zm-3 -36c19,0 35,1 35,2 0,1 -16,2 -35,2 -20,0 -35,-1 -35,-2 0,-1 15,-2 35,-2zm-16 18c28,0 51,1 51,3 0,1 -23,3 -51,3 -28,0 -50,-2 -50,-3 0,-2 22,-3 50,-3zm19 -53c20,0 35,1 35,2 0,1 -15,2 -35,2 -19,0 -35,-1 -35,-2 0,-1 16,-2 35,-2zm-19 16c28,0 51,2 51,3 0,2 -23,3 -51,3 -28,0 -51,-1 -51,-3 0,-1 23,-3 51,-3zm72 -13l93 0c6,0 11,4 11,10l0 50c0,6 -5,11 -11,11l-93 0c-5,0 -10,-5 -10,-11l0 -50c0,-6 5,-10 10,-10zm36 48l0 12 34 -24 -34 -25 0 12 0 25zm6 2l19 -14 -19 -14 0 28z"></path><path class="fil1" d="M-4454 2576l124 0c17,0 30,14 30,30l0 67c0,17 -13,31 -30,31l-124 0c-17,0 -31,-14 -31,-31l0 -67c0,-16 14,-30 31,-30zm0 17l124 0c7,0 14,6 14,13l0 67c0,8 -7,14 -14,14l-124 0c-8,0 -14,-6 -14,-14l0 -67c0,-7 6,-13 14,-13zm48 60l0 12 34 -24 -34 -25 0 13 0 24zm-48 -68l124 0c12,0 21,10 21,21l0 67c0,12 -9,22 -21,22l-124 0c-12,0 -22,-10 -22,-22l0 -67c0,-11 10,-21 22,-21z"></path><path class="fil1" d="M-4341 1607c35,0 63,2 63,3 0,1 -28,2 -63,2 -35,0 -63,-1 -63,-2 0,-1 28,-3 63,-3zm2 -48c35,0 63,1 63,2 0,2 -28,3 -63,3 -34,0 -63,-1 -63,-3 0,-1 29,-2 63,-2zm1 94c34,0 62,1 62,2 0,2 -28,3 -62,3 -35,0 -63,-1 -63,-3 0,-1 28,-2 63,-2zm19 -22c23,0 41,1 41,2 0,2 -18,3 -41,3 -23,0 -41,-1 -41,-3 0,-1 18,-2 41,-2zm-1 -50c23,0 41,2 41,3 0,1 -18,2 -41,2 -23,0 -41,-1 -41,-2 0,-1 18,-3 41,-3zm63 -25l136 0c9,0 15,7 15,15l0 75c0,8 -6,15 -15,15l-136 0c-8,0 -15,-7 -15,-15l0 -75c0,-8 7,-15 15,-15zm53 67l0 14 37 -27 -37 -27 0 13 0 27z"></path><path class="fil2" d="M-4587 970c119,0 220,95 220,215 0,121 -101,216 -220,216 -120,0 -220,-95 -220,-216 0,-120 100,-215 220,-215zm0 25c107,0 194,85 194,190 0,106 -87,191 -194,191 -108,0 -195,-85 -195,-191 0,-105 87,-190 195,-190zm-58 257l0 66 183 -131 -183 -130 0 65 0 130zm26 16l113 -81 -113 -81 0 162z"></path><path class="fil2" d="M-4960 2968c33,0 60,25 60,58 0,33 -27,58 -60,58 -32,0 -59,-25 -59,-58 0,-33 27,-58 59,-58zm-117 55c25,0 46,1 46,2 0,2 -21,3 -46,3 -26,0 -47,-1 -47,-3 0,-1 21,-2 47,-2zm7 -23c26,0 47,1 47,2 0,2 -21,3 -47,3 -25,0 -46,-1 -46,-3 0,-1 21,-2 46,-2zm19 -26c25,0 46,1 46,3 0,1 -21,2 -46,2 -26,0 -46,-1 -46,-2 0,-2 20,-3 46,-3zm6 101c25,0 46,1 46,2 0,1 -21,3 -46,3 -26,0 -46,-2 -46,-3 0,-1 20,-2 46,-2zm-23 -27c25,0 46,1 46,2 0,2 -21,3 -46,3 -26,0 -47,-1 -47,-3 0,-1 21,-2 47,-2zm108 -73c29,0 53,23 53,51 0,28 -24,51 -53,51 -29,0 -52,-23 -52,-51 0,-28 23,-51 52,-51zm-15 69l0 18 49 -36 -49 -35 0 18 0 35zm7 4l30 -22 -30 -21 0 43z"></path><path class="fil1" d="M-3231 3317c26,0 47,21 47,46 0,25 -21,45 -47,45 -25,0 -46,-20 -46,-45 0,-25 21,-46 46,-46zm-91 63c24,0 43,1 43,2 0,2 -19,3 -43,3 -24,0 -43,-1 -43,-3 0,-1 19,-2 43,-2zm0 -39c24,0 44,1 44,3 0,1 -20,2 -44,2 -24,0 -43,-1 -43,-2 0,-2 19,-3 43,-3zm-4 20c24,0 44,1 44,2 0,1 -20,2 -44,2 -24,0 -43,-1 -43,-2 0,-1 19,-2 43,-2zm18 -39c24,0 43,1 43,3 0,1 -19,2 -43,2 -24,0 -44,-1 -44,-2 0,-2 20,-3 44,-3zm-1 77c24,0 44,1 44,2 0,1 -20,3 -44,3 -23,0 -43,-2 -43,-3 0,-1 20,-2 43,-2zm126 -27l0 -1 0 0 0 1zm-58 3l0 12 35 -25 -35 -25 0 13 0 25z"></path><path class="fil1" d="M-3281 2447c25,0 46,21 46,46 0,25 -21,45 -46,45 -26,0 -46,-20 -46,-45 0,-25 20,-46 46,-46zm47 54l0 0 0 0 0 0zm-58 4l0 12 36 -25 -36 -25 0 13 0 25z"></path><path class="fil1" d="M-3576 3244c-16,-3 -48,7 -52,6 -3,-2 0,-1 -15,-8 -48,-22 23,-3 25,-8 10,-31 49,-14 29,-33 -1,0 -10,-7 -30,5 -16,10 -52,0 -53,1 -8,1 -54,11 -7,-6 7,-3 13,-6 19,-7 52,-14 24,-25 -13,-14 -14,4 -44,22 -56,3 -14,-22 -49,0 -58,-3 -25,-7 -49,-33 -62,-32 -42,3 14,-13 20,-6 5,1 42,30 66,11 22,-18 59,0 59,-2 3,-12 31,-9 41,-11 22,-4 8,-21 -35,-6 0,0 -17,7 -2,-3 15,-10 5,-16 0,-15 -10,2 -32,28 -46,15 -12,-13 -40,-21 -40,-21 50,-12 48,24 75,-13 3,-5 31,-19 52,-2 39,31 75,-25 19,-8 -33,10 17,-25 36,-13 18,5 25,4 25,4 24,0 -13,-10 -13,-10 -14,-16 -64,-1 -87,-6 -39,-7 52,-14 51,-18 17,-16 115,-11 147,-11 60,0 110,48 110,108 0,61 -50,109 -110,109 -25,0 -72,-2 -95,-6zm95 -175c41,0 74,32 74,72 0,40 -33,73 -74,73 -41,0 -74,-33 -74,-73 0,-40 33,-72 74,-72zm0 -23c53,0 97,42 97,95 0,54 -44,96 -97,96 -53,0 -97,-42 -97,-96 0,-53 44,-95 97,-95zm0 15c44,0 82,35 82,80 0,45 -38,81 -82,81 -45,0 -82,-36 -82,-81 0,-45 37,-80 82,-80zm75 95l0 0 0 0 0 0zm-92 5l0 20 56 -40 -56 -40 0 20 0 40z"></path><path class="fil2" d="M-3310 -1347c-8,-1 -27,3 -33,4 -16,5 -45,21 -58,1 -12,-17 -42,3 -54,-1 -17,-4 -50,-30 -59,-29 -4,0 -18,3 -19,-4 -1,-9 31,-13 40,-10 10,3 19,12 34,15 9,2 18,2 26,-4 10,-8 24,-9 37,-7 6,1 14,3 20,4 7,-10 31,-8 42,-9 1,-1 3,-1 5,-2 -8,-3 -32,3 -37,4 -13,6 -21,0 -6,-10 1,0 6,-3 6,-5 -1,-1 -3,0 -3,0 -11,1 -32,27 -48,12 -3,-4 -8,-7 -12,-9 -6,-2 -11,-5 -17,-7 -2,0 -4,-1 -6,-2 -5,-1 -7,-7 -2,-9 12,-2 24,-3 36,0 4,1 12,4 16,4 7,0 15,-9 18,-14 11,-13 43,-13 56,-2 29,21 62,-13 18,0 -5,1 -14,4 -16,-2 -5,-11 35,-26 50,-18 2,1 5,1 7,2l0 -1c-10,-11 -63,0 -82,-3 -4,-1 -12,-2 -12,-8 0,-11 49,-12 59,-16l1 0c22,-19 118,-11 150,-12 57,0 103,47 103,103 0,57 -46,104 -103,104 -30,0 -68,-2 -98,-7 -13,-2 -46,7 -51,5 -5,-2 -10,-5 -15,-7 -4,-2 -20,-7 -18,-14 3,-9 31,0 40,-1 4,-8 11,-14 19,-17 3,-1 9,-2 13,-3 -1,-1 -2,-2 -3,-2 -5,-5 -19,1 -23,4 -16,9 -38,3 -53,1 -5,1 -9,2 -13,3 -4,0 -17,4 -19,-2 -2,-7 19,-13 23,-14 6,-2 12,-6 18,-7 4,-1 18,-4 23,-8zm157 -134c55,0 99,45 99,99 0,55 -44,99 -99,99 -27,0 -72,-2 -97,-6 -16,-3 -46,6 -50,5 -3,-1 -1,0 -15,-7 -46,-19 22,-3 24,-8 10,-28 48,-12 28,-29 0,0 -9,-7 -29,4 -15,9 -50,1 -51,1 -7,1 -52,11 -7,-5 7,-3 13,-6 18,-7 51,-12 24,-22 -12,-12 -14,4 -43,20 -54,3 -13,-20 -47,0 -56,-3 -24,-6 -47,-30 -60,-29 -40,3 14,-11 20,-6 4,1 41,28 63,11 22,-17 57,0 58,-2 3,-11 29,-8 39,-10 21,-4 8,-19 -34,-6 0,0 -16,7 -2,-2 15,-10 5,-14 0,-14 -9,2 -31,26 -44,13 -12,-11 -39,-18 -39,-18 49,-11 46,22 73,-12 3,-4 30,-17 50,-2 37,28 72,-23 18,-7 -32,9 17,-23 35,-12 18,4 24,4 24,4 23,0 -13,-10 -13,-10 -13,-14 -61,0 -84,-5 -37,-6 50,-12 50,-16 20,-18 110,-10 147,-11zm-15 150l0 -89 69 42 -69 47zm4 -8l57 -38 -57 -36 0 74z"></path><path class="fil1" d="M-3933 -417c53,0 96,42 96,93 0,52 -43,94 -96,94 -53,0 -95,-42 -95,-94 0,-51 42,-93 95,-93zm-203 134c-10,-2 -34,3 -41,5 -21,5 -58,25 -74,1 -15,-21 -53,3 -69,-2 -21,-5 -64,-36 -74,-35 -5,1 -23,3 -24,-5 -2,-10 39,-16 50,-12 13,4 25,14 43,18 11,3 23,3 33,-4 13,-10 31,-11 47,-9 8,1 18,4 26,5 8,-13 39,-10 52,-12 2,0 5,0 7,-1 -10,-5 -40,3 -47,5 -17,7 -26,-1 -8,-13 2,-1 8,-4 8,-6 -1,-1 -3,-1 -4,0 -14,2 -40,33 -60,14 -4,-4 -10,-7 -16,-10 -7,-3 -14,-6 -21,-9 -3,0 -5,-1 -7,-2 -7,-2 -10,-9 -3,-11 15,-3 30,-4 45,-1 6,2 16,6 21,6 9,0 18,-12 23,-18 13,-16 54,-15 71,-3 37,27 79,-15 22,1 -5,1 -17,5 -20,-2 -6,-14 45,-32 64,-23 2,1 5,2 9,2l-1 0c-13,-14 -80,0 -103,-4 -5,-1 -16,-3 -16,-10 0,-14 62,-14 75,-19l1 -1c28,-23 150,-13 191,-14 72,0 130,57 130,126 0,31 -11,59 -30,81l-2 2 0 0c-13,15 -29,27 -47,34l-2 1 0 0c-16,6 -32,9 -49,9 -39,0 -87,-2 -125,-8 -16,-3 -58,8 -64,6 -7,-3 -13,-6 -19,-8 -6,-3 -26,-9 -23,-18 3,-11 39,0 51,-1 5,-10 13,-17 24,-21 3,-1 11,-3 16,-4 -2,-1 -3,-2 -3,-3 -8,-5 -24,3 -31,6 -19,11 -47,4 -67,1 -5,1 -11,2 -16,3 -5,1 -21,5 -24,-2 -2,-9 24,-15 29,-17 8,-3 16,-7 24,-8 4,-1 22,-6 28,-10zm168 78c-32,-1 -69,-3 -92,-7 -20,-3 -58,8 -63,6 -4,-2 -1,-1 -19,-8 -58,-24 28,-4 30,-10 13,-34 61,-15 36,-36 -1,0 -12,-8 -36,6 -19,10 -64,0 -66,0 -9,2 -66,13 -8,-6 9,-3 16,-7 23,-8 64,-15 30,-28 -15,-15 -18,4 -55,24 -69,4 -17,-25 -60,-1 -71,-5 -31,-7 -60,-36 -76,-35 -51,4 18,-14 25,-7 5,2 51,34 80,13 27,-20 72,0 73,-2 4,-14 37,-10 50,-13 27,-4 10,-23 -43,-6 0,0 -21,8 -3,-3 19,-12 7,-18 0,-17 -12,2 -39,31 -55,16 -15,-14 -50,-23 -50,-23 62,-13 58,27 92,-15 4,-4 38,-20 63,-2 48,35 92,-27 24,-9 -40,12 21,-27 44,-14 22,5 31,5 31,5 29,0 -17,-12 -17,-12 -16,-17 -77,-1 -106,-6 -47,-8 63,-15 63,-20 24,-20 130,-13 181,-13 -65,5 -116,58 -116,123 0,57 38,104 90,119zm35 -223c58,0 106,46 106,104 0,59 -48,105 -106,105 -58,0 -106,-46 -106,-105 0,-58 48,-104 106,-104zm98 123l0 0 0 0 0 0zm-120 7l0 26 74 -52 -74 -52 0 26 0 52z"></path><path class="fil1" d="M-3073 2620l302 0c18,0 33,15 33,33l0 164c0,18 -15,33 -33,33l-302 0c-19,0 -34,-15 -34,-33l0 -164c0,-18 15,-33 34,-33zm117 147l0 30 83 -60 -83 -59 0 30 0 59z"></path><path class="fil1" d="M94 90l285 0 -76 124 -280 0 0 -53c0,-39 32,-71 71,-71zm372 0l67 0 -75 124 -67 0 75 -124zm155 0l67 0 -75 124 -67 0 75 -124zm153 3c30,9 51,36 51,68l0 53 -124 0 73 -121zm51 171l0 430c0,39 -32,71 -71,71l-660 0c-39,0 -71,-32 -71,-71l0 -430 802 0zm-476 401l180 -137 -180 -136 0 273z"></path></g></svg>