<?xml version="1.0" encoding="utf-8"?>
<!-- Generator: Adobe Illustrator 24.3.0, SVG Export Plug-In . SVG Version: 6.00 Build 0)  -->
<svg version="1.1" id="Layer_1" xmlns="http://www.w3.org/2000/svg" xmlns:xlink="http://www.w3.org/1999/xlink" x="0px" y="0px"
	 viewBox="0 0 100 100" style="enable-background:new 0 0 100 100;" xml:space="preserve">
<style type="text/css">
	.st0{fill:#FFFFFF;}
</style>
<path class="st0" d="M60.7,27.3c0,2.6-2.1,4.8-4.8,4.8s-4.8-2.1-4.8-4.8c0-2.6,2.1-4.8,4.8-4.8C58.6,22.5,60.7,24.6,60.7,27.3
	C60.7,27.3,60.7,27.3,60.7,27.3z M49.9,66l6.6-24.6c1.2-4.6-5.8-6.4-10.3-4.3c-2.8,1.4-5.2,3.5-7,6.1c2.8-1.2,9.2-4.1,6.9,4.5
	l-6.6,24.6c-1.2,4.6,5.8,6.4,10.3,4.3c2.8-1.4,5.2-3.5,7-6.1C54,71.8,47.6,74.6,49.9,66z M95,50c0,24.9-20.1,45-45,45S5,74.9,5,50
	S25.1,5,50,5C74.8,5,95,25.2,95,50z M90,50c0-22.1-17.9-40-40-40S10,27.9,10,50s17.9,40,40,40C72.1,90,90,72.1,90,50z"/>
</svg>
