<svg height='100px' width='100px'  fill="#000000" xmlns="http://www.w3.org/2000/svg" xmlns:xlink="http://www.w3.org/1999/xlink" version="1.1" x="0px" y="0px" viewBox="0 0 100 100" enable-background="new 0 0 100 100" xml:space="preserve"><g><path d="M49.999,64.939c5.119,0,9.651-3.646,12.448-9.262c1.541-3.084,2.554-6.762,2.855-10.754   c0.107-0.729,0.16-1.472,0.174-2.225l-0.955-0.178h-0.098l-5.211-0.661c2.859-1.651,1.348-5.261,0.643-6.471   c-0.209-0.357-0.354-0.569-0.354-0.569c-0.037,0.033-0.08,0.059-0.119,0.088c-8.141,5.865-14.807,8.089-14.807,8.089   c-3.68,1.453-9.84,2.474-9.838,2.471C35.747,56.464,42.196,64.939,49.999,64.939z"></path><path d="M22.864,71.37c1.742-1.545,3.715-2.836,5.871-3.8c-2.84,0.053-4.965,0.195-4.965,0.195   c7.893-4.336,7.689-19.91,7.689-19.91c-1.25-27.308,14.943-28.598,18.021-28.598c0.322,0,0.502,0.016,0.502,0.016l0.016,0.045   l0.012-0.047c0,0,0.18-0.016,0.502-0.016c3.078,0,19.275,1.293,18.027,28.6c0,0-0.205,15.572,7.688,19.908   c0,0-3.469-0.682-7.424-1.125c3.113,0.982,5.934,2.615,8.316,4.732c4.339,3.83,7.217,9.26,7.713,15.371   C91.186,78.984,95,69.066,95,58.257c0-24.853-20.146-45-45-45c-24.854,0-45,20.147-45,45c0,10.812,3.814,20.728,10.167,28.486   C15.661,80.632,18.532,75.202,22.864,71.37z"></path></g></svg>