<?xml version="1.0" encoding="utf-8"?>
<!-- Generator: Adobe Illustrator 25.2.0, SVG Export Plug-In . SVG Version: 6.00 Build 0)  -->
<svg version="1.1" xmlns="http://www.w3.org/2000/svg" xmlns:xlink="http://www.w3.org/1999/xlink" x="0px" y="0px"
	 viewBox="0 0 512 512" style="enable-background:new 0 0 512 512;" xml:space="preserve">
<style type="text/css">
	.st0{fill:#007A6B;}
	.st1{opacity:0.44;}
	.st2{fill:#FFFFFF;}
</style>
<g id="Layer_2">
	<g>
		<path class="st0" d="M256,0L256,0c141.4,0,256,114.6,256,256v0c0,141.4-114.6,256-256,256h0C114.6,512,0,397.4,0,256v0
			C0,114.6,114.6,0,256,0z"/>
	</g>
	<g class="st1">
		<path class="st2" d="M256,31c30.4,0,59.9,5.9,87.6,17.7c26.8,11.3,50.9,27.6,71.5,48.2c20.7,20.7,36.9,44.7,48.2,71.5
			c11.7,27.7,17.7,57.2,17.7,87.6c0,30.4-5.9,59.9-17.7,87.6c-11.3,26.8-27.6,50.9-48.2,71.5c-20.7,20.7-44.7,36.9-71.5,48.2
			C315.9,475.1,286.4,481,256,481c-30.4,0-59.9-5.9-87.6-17.7c-26.8-11.3-50.9-27.6-71.5-48.2c-20.7-20.7-36.9-44.7-48.2-71.5
			C36.9,315.9,31,286.4,31,256c0-30.4,5.9-59.9,17.7-87.6c11.3-26.8,27.6-50.9,48.2-71.5c20.7-20.7,44.7-36.9,71.5-48.2
			C196.1,36.9,225.6,31,256,31 M256,0L256,0C114.6,0,0,114.6,0,256v0c0,141.4,114.6,256,256,256h0c141.4,0,256-114.6,256-256v0
			C512,114.6,397.4,0,256,0L256,0z"/>
	</g>
</g>
<g id="Layer_1">
	<g>
		<polygon class="st2" points="256.6,499.9 82.3,231.8 102.7,230.7 231.1,437.6 247.4,418.4 247.4,328 256.7,298.5 265.8,328 
			265.8,418.4 285.1,429.9 406.5,230.7 430.8,232.2 		"/>
		<polygon class="st2" points="102.7,230.7 196.4,216.8 239.9,278.5 197.5,143 175.1,147.5 138.4,40.9 82.3,231.8 		"/>
		<polygon class="st2" points="410.4,230.7 316.7,223.8 273.2,278.5 315.6,143 338.1,147.5 374.7,40.9 430.8,231.8 		"/>
		<polyline class="st2" points="256.3,292.4 327.2,66 271,190.2 256.7,131.4 241.4,201.6 185.3,66 		"/>
		<ellipse class="st2" cx="189.8" cy="292.9" rx="14.8" ry="16.8"/>
		<ellipse class="st2" cx="328.5" cy="292.4" rx="14.8" ry="16.8"/>
	</g>
</g>
</svg>
