<?xml version="1.0" encoding="utf-8"?>
<!-- Generator: Adobe Illustrator 24.3.0, SVG Export Plug-In . SVG Version: 6.00 Build 0)  -->
<svg version="1.1" id="Layer_1" xmlns="http://www.w3.org/2000/svg" xmlns:xlink="http://www.w3.org/1999/xlink" x="0px" y="0px"
	 viewBox="0 0 100 100" style="enable-background:new 0 0 100 100;" xml:space="preserve">
<path d="M88.1,0H9.2v55.2h12.9l4.8,7.3l-12,5.1l24.7,21.2L52.5,100l-8-15.3l-5.7-10.8l14.8-5.1l-4.2-13.7h41.4V1.5
	c0,0-1.6,8.6-3.6,15.8c-0.2,3.7-0.6,8.3-0.9,14c-0.1,2.9-0.2,6-0.4,9.4c0,1.7-0.1,3.5-0.2,5.3c0,0.9,0,1.7-0.1,2.7
	c0,0.4,0,0.7-0.1,1.1c-0.2,0-0.5,0-0.9,0h-0.4c-0.4,0-0.7,0-1.1,0c-1.5,0-3.1-0.1-4.6-0.1c-3.2-0.1-6.6-0.1-10.1-0.2
	c-3.5,0-7.2-0.1-11.2-0.2c-2,0-4,0-6-0.1c-3.4,0-6.7,0-10.2-0.1c1.1,3.6,2.2,7.2,3.4,10.9c0.4,1.2,0.7,2.5,1.1,3.9l0.2,0.9v0.1V65
	h-0.1l0,0L45,65.2c-1.2,0.4-2.5,0.9-3.9,1.2c-3.7,1.2-7.5,2.6-11.3,4c0.4,0.7,0.9,1.6,1.2,2.5c-1.4-1.1-2.6-2.2-4-3.5l0,0l0,0l0,0
	l0,0l0.6-0.2c3-1.2,6-2.5,8.8-3.7c-3.9-5.7-7.5-11.3-11.1-16.6c-2.5,0-5,0-7.5,0c-0.7,0-1.6,0-2.4,0h-0.1c-0.1-8.3-0.1-16-0.2-23.1
	c0-4.1-0.1-8-0.1-11.7c0-1.9,0-3.7-0.1-5.5c0-0.5,0-0.9,0-1.4V6.6V6.5V6C26,5.7,58.5,4.3,66.3,4.1"/>
<polygon points="51.1,7.6 47,9.6 47,24.1 31.4,24.1 30.1,27.7 47.2,27.7 47.3,44 51.1,46.1 51.1,27.8 67.2,27.3 69.8,23.6 51.1,24 
	"/>
</svg>
