<svg height='100px' width='100px'  fill="#b8cc00" xmlns="http://www.w3.org/2000/svg" xmlns:xlink="http://www.w3.org/1999/xlink" version="1.1" x="0px" y="0px" viewBox="0 0 64 64" style="enable-background:new 0 0 64 64;" xml:space="preserve"><style type="text/css">
	.st0{fill:#b8cc00;}
	.st1{fill:#b8cc00;}
</style><g><g><g><path d="M28.5,25.5c0.4,0.2,1,0,1.2-0.5c0.2-0.5,0-1-0.5-1.2l-2.8-1.2l1.3-2.6c0.2-0.4,0-1-0.4-1.2c-0.2-0.1-0.5-0.1-0.7,0     c-0.2,0.1-0.4,0.2-0.5,0.5L24.8,22l-2.7-1.2c-0.2-0.1-0.5-0.1-0.7,0c-0.2,0.1-0.4,0.3-0.5,0.5c-0.1,0.2-0.1,0.5,0,0.7     c0.1,0.2,0.3,0.4,0.5,0.5l2.6,1.1l-1.3,2.7c-0.2,0.4,0,1,0.4,1.2c0.4,0.2,1,0,1.2-0.4l1.4-2.8L28.5,25.5z"></path><path d="M47.4,41c0.4,0.2,1,0,1.2-0.5c0.2-0.5,0-1-0.5-1.2l-2.8-1.2l1.3-2.6c0.2-0.4,0-1-0.4-1.2c-0.2-0.1-0.5-0.1-0.7,0     c-0.2,0.1-0.4,0.2-0.5,0.5l-1.3,2.7L41,36.3c-0.2-0.1-0.5-0.1-0.7,0c-0.2,0.1-0.4,0.3-0.5,0.5c-0.1,0.2-0.1,0.5,0,0.7     c0.1,0.2,0.3,0.4,0.5,0.5l2.6,1.1l-1.3,2.7c-0.2,0.4,0,1,0.4,1.2c0.4,0.2,1,0,1.2-0.4l1.4-2.8L47.4,41z"></path><path d="M29.5,40.8c-2,0.8-3,3-2.3,5c0.8,2,3,3,5,2.3s3-3,2.3-5C33.8,41.1,31.5,40.1,29.5,40.8z M31.6,46.5     c-1.1,0.4-2.3-0.2-2.7-1.2c-0.4-1.1,0.2-2.3,1.2-2.7c1.1-0.4,2.3,0.2,2.7,1.2C33.2,44.8,32.7,46,31.6,46.5z"></path><path d="M45.8,20.2l-3.1-5.4c-0.2-0.3-0.7-0.3-0.9,0l-3.1,5.4c-0.2,0.4,0.2,0.9,0.6,0.7l1.6-0.5v2c0,0.4,0,0.7,0,1.1     c-0.2,2.3-1.7,4.4-4,5.3l-14.6,5.4c-3.6,1.4-6,4.9-5.8,8.8c-0.9,0.8-1.3,2.1-0.9,3.3c0.6,1.5,2.3,2.3,3.8,1.8     c1.5-0.6,2.3-2.3,1.8-3.8c-0.3-0.9-1.1-1.5-1.9-1.8c0.1-2.5,1.7-4.7,4-5.6l14.6-5.4c3.9-1.5,6.2-5.4,5.8-9.4v-0.9v-0.6l1.6,0.5     C45.6,21.1,46,20.6,45.8,20.2z"></path></g><g><g><path d="M11,62.6c-0.9,0-1.7,0-2.6-0.1l-0.4,0l-0.3-0.1c0,0,0,0-0.1,0H7.1L5.9,61l-0.1-0.5c-0.1-0.3-0.1-0.6-0.1-0.8l0.1-0.6      C5.8,58.8,6,58.4,6.3,58l3.4-4.5c0.4-0.5,0.6-0.9,0.7-1.1c0.1-0.3-0.7-1.1-1.2-1.5c-0.2-0.2-0.4-0.4-0.6-0.7      c-1.3-1.5-2.5-3.3-3.7-5.8c-1.9-4-2.9-8.5-2.9-12.9C1.9,14.9,15.4,1.4,32,1.4c16.6,0,30,13.5,30,30.1c0,16.6-13.5,30.1-30,30.1      c-3.3,0-6.5-0.5-9.5-1.6c-0.2,0-0.3,0.1-0.3,0.1c-1.1,0.5-2.2,1-3.4,1.4c-0.4,0.1-0.8,0.2-1.1,0.3l-0.5,0.1      C15.1,62.4,13.1,62.6,11,62.6z M8.2,62.5C8.2,62.5,8.2,62.5,8.2,62.5L8.2,62.5z M9.6,60.4L9.6,60.4C9.6,60.4,9.6,60.4,9.6,60.4z       M10.9,58.6c1.7,0,3.5-0.2,5.2-0.6l0.5-0.1c0.3-0.1,0.6-0.2,0.9-0.3c1-0.4,1.9-0.7,2.8-1.1c0.5-0.3,1.2-0.5,2.1-0.6l0.5,0      l0.5,0.1c2.8,1,5.7,1.5,8.6,1.5c14.3,0,26-11.7,26-26c0-14.4-11.7-26-26-26c-14.4,0-26,11.7-26,26c0,3.8,0.9,7.7,2.5,11.2      c1,2.2,2,3.7,3.1,4.9c0.2,0.2,0.3,0.3,0.5,0.5c1.1,1.1,2.9,3,2.1,5.6c-0.3,0.9-0.8,1.6-1.3,2.3L10.9,58.6z"></path></g></g></g></g></svg>