<?xml version="1.0" encoding="utf-8"?>
<!-- Generator: Adobe Illustrator 24.3.0, SVG Export Plug-In . SVG Version: 6.00 Build 0)  -->
<svg version="1.1" id="Layer_1" xmlns="http://www.w3.org/2000/svg" xmlns:xlink="http://www.w3.org/1999/xlink" x="0px" y="0px"
	 viewBox="0 0 100 100" style="enable-background:new 0 0 100 100;" xml:space="preserve">
<style type="text/css">
	.st0{fill:#B8CC00;}
</style>
<g>
	<g>
		<g>
			<path class="st0" d="M46,42.6c0.5,0.2,1.1,0,1.4-0.6c0.2-0.6,0-1.1-0.6-1.4l-3.2-1.4l1.5-2.9c0.2-0.5,0-1.1-0.5-1.4
				c-0.2-0.1-0.6-0.1-0.8,0c-0.2,0.1-0.5,0.2-0.6,0.6l-1.5,3.1l-3.1-1.4c-0.2-0.1-0.6-0.1-0.8,0c-0.2,0.1-0.5,0.3-0.6,0.6
				c-0.1,0.2-0.1,0.6,0,0.8c0.1,0.2,0.3,0.5,0.6,0.6l2.9,1.2l-1.5,3.1c-0.2,0.5,0,1.1,0.5,1.4c0.5,0.2,1.1,0,1.4-0.5l1.6-3.2
				L46,42.6z"/>
			<path class="st0" d="M67.5,60.2c0.5,0.2,1.1,0,1.4-0.6c0.2-0.6,0-1.1-0.6-1.4l-3.2-1.4l1.5-2.9c0.2-0.5,0-1.1-0.5-1.4
				c-0.2-0.1-0.6-0.1-0.8,0s-0.5,0.2-0.6,0.6l-1.5,3.1l-3.1-1.4c-0.2-0.1-0.6-0.1-0.8,0c-0.2,0.1-0.5,0.3-0.6,0.6
				c-0.1,0.2-0.1,0.6,0,0.8c0.1,0.2,0.3,0.5,0.6,0.6l2.9,1.2l-1.5,3.1c-0.2,0.5,0,1.1,0.5,1.4c0.5,0.2,1.1,0,1.4-0.5l1.6-3.2
				L67.5,60.2z"/>
			<path class="st0" d="M47.2,60c-2.3,0.9-3.4,3.4-2.6,5.7c0.9,2.3,3.4,3.4,5.7,2.6c2.3-0.8,3.4-3.4,2.6-5.7
				C52,60.3,49.4,59.2,47.2,60z M49.5,66.4c-1.2,0.5-2.6-0.2-3.1-1.4c-0.5-1.2,0.2-2.6,1.4-3.1c1.2-0.5,2.6,0.2,3.1,1.4
				C51.4,64.5,50.8,65.9,49.5,66.4z"/>
			<path class="st0" d="M65.6,36.6l-3.5-6.1c-0.2-0.3-0.8-0.3-1,0l-3.5,6.1c-0.2,0.5,0.2,1,0.7,0.8l1.8-0.6v2.3c0,0.5,0,0.8,0,1.2
				c-0.2,2.6-1.9,5-4.5,6L39,52.5c-4.1,1.6-6.8,5.6-6.6,10c-1,0.9-1.5,2.4-1,3.7c0.7,1.7,2.6,2.6,4.3,2c1.7-0.7,2.6-2.6,2-4.3
				c-0.3-1-1.2-1.7-2.2-2c0.1-2.8,1.9-5.3,4.5-6.3l16.5-6.1c4.4-1.7,7-6.1,6.6-10.7v-1v-0.7l1.8,0.6C65.4,37.6,65.9,37.1,65.6,36.6z
				"/>
		</g>
		<g>
			<g>
				<path class="st0" d="M26.2,84.7c-1,0-1.9,0-2.9-0.1h-0.5l-0.3-0.1c0,0,0,0-0.1,0h-0.6l-1.4-1.6l-0.1-0.6
					c-0.1-0.3-0.1-0.7-0.1-0.9l0.1-0.7c0-0.3,0.2-0.8,0.6-1.2l3.9-5.1c0.5-0.6,0.7-1,0.8-1.2c0.1-0.3-0.8-1.2-1.4-1.7
					c-0.2-0.2-0.5-0.5-0.7-0.8c-1.5-1.7-2.8-3.7-4.2-6.6c-2.2-4.5-3.3-9.6-3.3-14.6c-0.1-18.8,15.2-34.1,34-34.1s34,15.3,34,34.1
					S68.7,83.5,50,83.5c-3.7,0-7.4-0.6-10.8-1.8c-0.2,0-0.3,0.1-0.3,0.1c-1.2,0.6-2.5,1.1-3.9,1.6c-0.5,0.1-0.9,0.2-1.2,0.3
					l-0.6,0.1C30.8,84.5,28.6,84.7,26.2,84.7z M23,84.6L23,84.6L23,84.6z M24.6,82.2L24.6,82.2L24.6,82.2z M26.1,80.1
					c1.9,0,4-0.2,5.9-0.7l0.6-0.1c0.3-0.1,0.7-0.2,1-0.3c1.1-0.5,2.2-0.8,3.2-1.2c0.6-0.3,1.4-0.6,2.4-0.7h0.6l0.6,0.1
					c3.2,1.1,6.5,1.7,9.7,1.7c16.2,0,29.5-13.3,29.5-29.5C79.5,33.1,66.2,20,50,20c-16.3,0-29.5,13.3-29.5,29.5
					c0,4.3,1,8.7,2.8,12.7c1.1,2.5,2.3,4.2,3.5,5.6c0.2,0.2,0.3,0.3,0.6,0.6c1.2,1.2,3.3,3.4,2.4,6.3c-0.3,1-0.9,1.8-1.5,2.6
					L26.1,80.1z"/>
			</g>
		</g>
	</g>
</g>
</svg>
