<svg height='100px' width='100px'  fill="#000000" xmlns:dc="http://purl.org/dc/elements/1.1/" xmlns:cc="http://creativecommons.org/ns#" xmlns:rdf="http://www.w3.org/1999/02/22-rdf-syntax-ns#" xmlns:svg="http://www.w3.org/2000/svg" xmlns="http://www.w3.org/2000/svg" xmlns:sodipodi="http://sodipodi.sourceforge.net/DTD/sodipodi-0.dtd" xmlns:inkscape="http://www.inkscape.org/namespaces/inkscape" version="1.1" x="0px" y="0px" viewBox="0 0 100 100"><g transform="translate(0,-952.36218)"><path style="text-indent:0;text-transform:none;direction:ltr;block-progression:tb;baseline-shift:baseline;color:#000000;enable-background:accumulate;" d="m 58.842871,962.55095 a 2.000164,1.9947137 0 0 0 -1.781218,1.55821 l -17.999676,75.79154 a 2.000164,1.9947137 0 1 0 3.87493,0.9038 l 17.999677,-75.79157 a 2.000164,1.9947137 0 0 0 -2.093713,-2.46198 z m -28.061995,19.97631 a 2.000164,1.9947137 0 0 0 -1.156229,0.52979 l -18.999658,17.95065 a 2.000164,1.9947137 0 0 0 0,2.8983 l 18.999658,17.9506 a 2.000164,1.9947137 0 0 0 2.7812,-0.031 l 4.99991,-4.9863 a 2.000164,1.9947137 0 0 0 0,-2.8359 l -11.593541,-11.531 11.593541,-11.56195 a 2.000164,1.9947137 0 0 0 0,-2.83595 l -4.99991,-4.98629 a 2.000164,1.9947137 0 0 0 -1.624971,-0.56095 z m 37.936818,0 a 2.000164,1.9947137 0 0 0 -1.12498,0.56095 l -4.99991,4.98629 a 2.000164,1.9947137 0 0 0 0,2.83595 l 11.593541,11.56195 -3.593685,3.5527 a 2.000164,1.9947137 0 1 0 2.812449,2.836 l 4.99991,-4.9863 a 2.000164,1.9947137 0 0 0 0,-2.836 l -11.593541,-11.53074 2.21871,-2.21267 16.062211,15.17701 -16.062211,15.1458 -2.21871,-2.1815 1.593721,-1.5893 a 2.000164,1.9947137 0 1 0 -2.812449,-2.836 l -2.999946,2.9918 a 2.000164,1.9947137 0 0 0 0,2.8359 l 4.99991,4.9863 a 2.000164,1.9947137 0 0 0 2.7812,0.031 l 18.999658,-17.9506 a 2.000164,1.9947137 0 0 0 0,-2.8983 L 70.373914,983.05685 a 2.000164,1.9947137 0 0 0 -1.65622,-0.52979 z m -37.749321,4.76813 2.21871,2.21267 -11.593542,11.53074 a 2.000164,1.9947137 0 0 0 0,2.836 l 11.593542,11.5619 -2.21871,2.1815 -16.062211,-15.1458 16.062211,-15.17701 z" fill="#000000" fill-opacity="1" fill-rule="nonzero" stroke="none" marker="none" visibility="visible" display="inline" overflow="visible"></path></g></svg>