<?xml version="1.0" encoding="utf-8"?>
<!-- Generator: Adobe Illustrator 24.3.0, SVG Export Plug-In . SVG Version: 6.00 Build 0)  -->
<svg version="1.1" xmlns="http://www.w3.org/2000/svg" xmlns:xlink="http://www.w3.org/1999/xlink" x="0px" y="0px"
	 viewBox="0 0 100 100" style="enable-background:new 0 0 100 100;" xml:space="preserve">
<style type="text/css">
	.st0{fill:#FFFFFF;}
</style>
<g id="Layer_2">
</g>
<g id="Layer_1">
	<g>
		<g>
			<path class="st0" d="M92.8,2.5H7.2c-1.1,0-2,0.9-2,2v68.9c0,1.1,0.9,2,2,2h9.5c1.1,0,2,0.9,2,2v17.9c0,1.7,1.9,2.6,3.3,1.6
				l27.7-21.2c0.4-0.3,0.8-0.4,1.2-0.4h41.9c1.1,0,2-0.9,2-2V4.5C94.9,3.4,93.9,2.5,92.8,2.5z M86.7,65.3c0,1.1-0.9,2-2,2H48.2
				c-0.4,0-0.9,0.1-1.2,0.4L28.3,82.1c-0.6,0.4-1.4,0-1.4-0.7v-12c0-1.1-0.9-2-2-2h-9.5c-1.1,0-2-0.9-2-2V12.7c0-1.1,0.9-2,2-2h69.3
				c1.1,0,2,0.9,2,2C86.7,12.7,86.7,65.3,86.7,65.3z"/>
			<path class="st0" d="M72.7,26.1h-7l1.4-6.9c0.1-0.6-0.3-1.1-0.9-1.1h-5.8c-0.4,0-0.8,0.3-0.9,0.7L58,26.1H47.3l1.4-6.9
				c0.1-0.6-0.3-1.1-0.9-1.1H42c-0.4,0-0.8,0.3-0.9,0.7l-1.5,7.3h-7.4c-0.4,0-0.8,0.3-0.9,0.7l-1.2,5.7c-0.1,0.6,0.3,1.1,0.9,1.1h7
				l-2.2,10.8h-7.4c-0.4,0-0.8,0.3-0.9,0.7l-1.2,5.7c-0.1,0.6,0.3,1.1,0.9,1.1h7l-1.4,6.9c-0.1,0.6,0.3,1.1,0.9,1.1h5.8
				c0.4,0,0.8-0.3,0.9-0.7l1.5-7.3h10.6l-1.4,6.9c-0.1,0.6,0.3,1.1,0.9,1.1h5.8c0.4,0,0.8-0.3,0.9-0.7l1.5-7.3h7.4
				c0.4,0,0.8-0.3,0.9-0.7l1.2-5.7c0.1-0.6-0.3-1.1-0.9-1.1h-7L64,33.6h7.4c0.4,0,0.8-0.3,0.9-0.7l1.2-5.7
				C73.7,26.6,73.3,26.1,72.7,26.1z M54.2,44.4H43.6l2.2-10.8h10.6L54.2,44.4z"/>
		</g>
	</g>
</g>
</svg>
