<?xml version="1.0" encoding="utf-8"?>
<!-- Generator: Adobe Illustrator 25.1.0, SVG Export Plug-In . SVG Version: 6.00 Build 0)  -->
<svg version="1.1" id="Layer_1" xmlns="http://www.w3.org/2000/svg" xmlns:xlink="http://www.w3.org/1999/xlink" x="0px" y="0px"
	 viewBox="0 0 510.5 865" style="enable-background:new 0 0 510.5 865;" xml:space="preserve">
<style type="text/css">
	.st0{fill:url(#SVGID_1_);}
	.st1{fill:url(#SVGID_2_);}
	.st2{fill:url(#SVGID_3_);}
	.st3{fill:url(#SVGID_4_);}
	.st4{fill:url(#SVGID_5_);}
	.st5{fill:url(#SVGID_6_);}
	.st6{clip-path:url(#SVGID_8_);}
	.st7{fill:url(#SVGID_9_);}
	.st8{fill:url(#SVGID_10_);}
	.st9{fill:#3A2A32;}
	.st10{clip-path:url(#SVGID_12_);}
	.st11{fill:url(#SVGID_13_);}
	.st12{fill:url(#SVGID_14_);}
</style>
<g id="Layer_2_1_">
	
		<linearGradient id="SVGID_1_" gradientUnits="userSpaceOnUse" x1="279.9697" y1="116.6799" x2="108.3297" y2="746.0198" gradientTransform="matrix(1 0 0 -1 -6.52 990)">
		<stop  offset="0" style="stop-color:#006837;stop-opacity:0.22"/>
		<stop  offset="1" style="stop-color:#93278F"/>
	</linearGradient>
	<path class="st0" d="M281.5,893c6.8-9.9,21-36.9-12-119c-44.7-111.2-95.9-124.7-155-233c-34.6-63.5-63.6-116.6-51-181
		c18.1-92.4,111.9-158.2,139-147c12.6,5.2,22.4,16.5,22.4,16.5c5.7,6.6,9.9,14.3,12.6,22.5c0.5-0.2-4.4-50.5-31-64
		c-32.6-16.6-91.8,25.5-125,66c-78.9,96.3-48.9,230.7-45,247c13.3,55.8,39.7,97.8,63,135c52.9,84.3,87.3,93.2,95,146
		c10.1,69,9,98-19,134C157.7,938.8,257.4,928,281.5,893z"/>
	
		<linearGradient id="SVGID_2_" gradientUnits="userSpaceOnUse" x1="335.7979" y1="82.5394" x2="201.368" y2="575.4395" gradientTransform="matrix(1 0 0 -1 -6.52 990)">
		<stop  offset="0" style="stop-color:#006837;stop-opacity:0.22"/>
		<stop  offset="1" style="stop-color:#93278F"/>
	</linearGradient>
	<path class="st1" d="M136.4,919c-31.9-27-65.9-55.8-81.1-104c-3.8-12-19.8-62.7,2.2-108c47.7-98.5,225.1-69.6,339.7-192
		c13.9-14.8,31.6-37,28.5-63c-5.2-42.9-65.5-81.4-110.7-74c-37.7,6.2-51.5,15-65.7,38c-1.1,1.7-0.3-26.1,14.3-41
		c16.8-17.2,40.4-19.6,54.8-21c9.5-0.9,52.7-5.2,89.9,21c43.4,30.6,51.5,83.8,41.6,121c-9,33.9-32.4,53.3-64.6,80
		c-54.5,45.1-118,70.5-160,87c-45.4,17.8-66.3,21.6-83.3,44c-23.7,31.2-17.5,69.4-15.3,80c11.8,57.5,71.1,102.1,126,116
		c27.2,6.9,45.6,4.3,48.2,13c4.5,14.6-39.7,48.8-84.4,47C186.9,961.8,167.7,945.5,136.4,919z"/>
	
		<linearGradient id="SVGID_3_" gradientUnits="userSpaceOnUse" x1="257.1177" y1="70.0894" x2="31.4977" y2="897.3693" gradientTransform="matrix(1 0 0 -1 -6.52 990)">
		<stop  offset="0" style="stop-color:#006837;stop-opacity:0.22"/>
		<stop  offset="1" style="stop-color:#93278F"/>
	</linearGradient>
	<path class="st2" d="M169.5,977.2c125.8-118.2,132-242.4,132-242.4c3.9-78.7-31.1-147.9-101-286.4c-22.4-44.4-41.9-77.1-67-139.9
		C89,197.2,91.9,154,98.5,125.6c4-17,19.4-83.8,71-98.7c31.9-9.2,73.9,2.6,88,26.8c11.6,19.9,1.8,43.9,3,44.1
		c1.5,0.2,20.4-38.5,2-68c-19.7-31.6-68-29.9-72-29.7c-44.4,2.1-72.6,35.9-85,50.7c-32.7,39.2-36.7,83-39,108.3
		c-2.4,27.3-0.4,54.8,6,81.4c20.8,90.5,63.7,161.6,85,201.2c54.4,101.1,108.5,201.6,79,302.7c-18.3,62.8-74.3,144.7-156,170.6
		c-42.2,13.4-75.5,6.8-80,22c-6.9,23.5,60.9,78,120,67.1C144.6,999.6,160.7,985.5,169.5,977.2z"/>
	
		<linearGradient id="SVGID_4_" gradientUnits="userSpaceOnUse" x1="274.8651" y1="814.9635" x2="321.3921" y2="785.1155" gradientTransform="matrix(1 0 0 -1 -6.52 990)">
		<stop  offset="0" style="stop-color:#ED1E79"/>
		<stop  offset="1" style="stop-color:#93278F"/>
	</linearGradient>
	<path class="st3" d="M312.6,193.8v13.9h-9.5v15.4h-16.4v-15.4h-39.4l40.1-56.3h15.6v42.5H312.6z M286.8,175.2l-4.8,6.9l-8.3,11.6
		h13.1V175.2z"/>
	
		<linearGradient id="SVGID_5_" gradientUnits="userSpaceOnUse" x1="342.1994" y1="753.939" x2="401.9694" y2="718.4789" gradientTransform="matrix(1 0 0 -1 -6.52 990)">
		<stop  offset="0" style="stop-color:#ED1E79"/>
		<stop  offset="1" style="stop-color:#93278F"/>
	</linearGradient>
	<path class="st4" d="M335.9,278.3c-5.9-7.2-8.8-16.7-8.8-28.4c0-11.4,3-20.6,9.1-27.6c6-7,14-10.4,23.9-10.4
		c9.9,0,17.9,3.5,23.9,10.4s9.1,16.1,9.1,27.6c0,11.6-3,21-8.9,28.3c-5.9,7.3-14,10.9-24.1,10.9
		C349.8,289.1,341.7,285.5,335.9,278.3z M370,266.4c2.3-3.9,3.5-9.4,3.5-16.5c0-6.9-1.2-12.2-3.6-15.8c-3.4-5.4-10.5-7-15.8-3.7
		c-1.5,0.9-2.7,2.2-3.7,3.7c-2.4,3.6-3.6,8.9-3.6,15.8c0,14.9,4.4,22.4,13.3,22.4C364.4,272.3,367.6,270.4,370,266.4z"/>
	
		<linearGradient id="SVGID_6_" gradientUnits="userSpaceOnUse" x1="444.6189" y1="792.3782" x2="524.4907" y2="743.2571" gradientTransform="matrix(1 0 0 -1 -6.52 990)">
		<stop  offset="0" style="stop-color:#ED1E79"/>
		<stop  offset="1" style="stop-color:#93278F"/>
	</linearGradient>
	<path class="st5" d="M510.5,235.5v20.1h-17.4v30.9h-23.7v-30.9H402l74.3-104.2h16.8v84.1H510.5z M469.4,235.5V194l-29.1,41.5
		L469.4,235.5z"/>
</g>
<g id="Layer_1_1_">
	<g id="_Mirror_Repeat_">
		<g>
			<defs>
				<rect id="SVGID_7_" x="121.5" y="461.1" width="94.9" height="284.9"/>
			</defs>
			<clipPath id="SVGID_8_">
				<use xlink:href="#SVGID_7_"  style="overflow:visible;"/>
			</clipPath>
			<g class="st6">
				
					<linearGradient id="SVGID_9_" gradientUnits="userSpaceOnUse" x1="189.5919" y1="478.7002" x2="190.8619" y2="272.8902" gradientTransform="matrix(1 0 0 -1 -6.52 990)">
					<stop  offset="0" style="stop-color:#ED1E79"/>
					<stop  offset="1" style="stop-color:#93278F"/>
				</linearGradient>
				<path class="st7" d="M220.5,515.3c-9.2-7-15.8-12.1-20.9-16.1c0,0-3.6-2.8-4.1-2.3c-0.7,0.8,7.3,8.2,5.8,10.4
					c-0.9,1.3-4.1-0.2-11-1.2c-8.8-1.2-15-0.5-15.1,0s5.9,0,9.9,4c1.6,1.7,3.2,4.4,2.3,5.8s-3.2,0.7-6.4,0.6
					c-8.4-0.3-15.1,2.9-15.1,3.5s7.9-1.3,8.7,0.6c1,2.2-8.9,7-16.2,13.9c-12.1,11.4-20.6,31.7-16.8,48.7c3.7,16.5,16,16,18.5,33
					c1.4,9.3-2.1,10.8-5.2,33c-2.5,18.2-2.1,31.2-1.2,31.3c0.7,0.1,1.6-7.1,6.4-17.4c1.7-3.5,3.4-7.2,4.6-7
					c1.8,0.4,1.6,8.6,1.2,13.3c-0.7,7.8-2.3,10.2-4.1,19.7c-1.3,7.2,1.4,18.2,1.7,17.4c2.3-5.8,0.2-13.3,7.5-26.1
					c2.6-4.6,4.6-5.8,7.5-8.1c1.9-1.5,4.8-0.2,7,4.6c2.3,5.2,2.9,7,1.7,8.1c-8.1,8.1-8.3,29.1-8.1,28.4
					c4.6-17.4,24.7-20.7,24.3-32.4c-0.1-4.2-8.4-0.8-9.3-0.6c-1.8,0.5,1.1,12.2,4.6,31.9c1.9,10.8,22.6,5.6,27.8,4.6"/>
				
					<linearGradient id="SVGID_10_" gradientUnits="userSpaceOnUse" x1="189.8964" y1="288.0433" x2="145.3964" y2="508.7933" gradientTransform="matrix(1 0 0 -1 -6.52 990)">
					<stop  offset="0" style="stop-color:#C6A8B6"/>
					<stop  offset="1" style="stop-color:#E6E6E6"/>
				</linearGradient>
				<path class="st8" d="M196.8,606.3c5.6,37-3.1,59.9,1.6,92.1c0.2,1.3,1.2,7.9,0.4,8.1c-1.4,0.3-5.4-17.5-12.4-32.5
					c-11-23.4-23.9-28-37.9-45.3c-21.8-27-25-58.6-26.2-70.8c-5-49.5,17.4-97.9,25.4-96.8c0.9,0.1,2,9.4,3.6,17.2
					c2.9,14.4,3,17.1,8.5,35c4.6,15.1,9.2,16.3,20.2,38C188.6,568.6,194.3,587.2,196.8,606.3z"/>
				<path class="st9" d="M222.6,698.5c-3,0.2-13.5,1.2-20.2,8.7c-2,2.3-3.1,3.4-3.3,5.2c-0.9,7.9,16,11.4,23.4,26.1
					c1.2,2.4,2.1,4.9,2.6,7.5"/>
				<path class="st9" d="M166.6,602.8c13.1,0.8,26.3,8.3,25.3,12.1c-0.9,3.6-14.7,4.9-25.5,1.5c-7.3-2.3-15.6-7.4-14.7-10.5
					C152.5,602.9,161.4,602.5,166.6,602.8z"/>
			</g>
		</g>
	</g>
	<g id="_Mirror_Repeat_2">
		<g>
			<defs>
				<rect id="SVGID_11_" x="216.5" y="461.1" width="94.9" height="284.9"/>
			</defs>
			<clipPath id="SVGID_12_">
				<use xlink:href="#SVGID_11_"  style="overflow:visible;"/>
			</clipPath>
			<g class="st10">
				
					<linearGradient id="SVGID_13_" gradientUnits="userSpaceOnUse" x1="-1218.4081" y1="478.7002" x2="-1217.1381" y2="272.8902" gradientTransform="matrix(-1 0 0 -1 -968.52 990)">
					<stop  offset="0" style="stop-color:#ED1E79"/>
					<stop  offset="1" style="stop-color:#93278F"/>
				</linearGradient>
				<path class="st11" d="M212.4,515.3c9.2-7,15.8-12.1,20.9-16.1c0,0,3.6-2.8,4.1-2.3c0.7,0.8-7.3,8.2-5.8,10.4
					c0.9,1.3,4.1-0.2,11-1.2c8.8-1.2,15-0.5,15.1,0s-5.9,0-9.9,4c-1.6,1.7-3.2,4.4-2.3,5.8s3.2,0.7,6.4,0.6
					c8.4-0.3,15.2,2.9,15.1,3.5s-7.9-1.3-8.7,0.6c-1,2.2,8.9,7,16.2,13.9c12.1,11.4,20.6,31.7,16.8,48.7c-3.7,16.5-16,16-18.5,33
					c-1.4,9.3,2.1,10.8,5.2,33c2.5,18.2,2.1,31.2,1.2,31.3c-0.7,0.1-1.6-7.1-6.4-17.4c-1.7-3.5-3.4-7.2-4.6-7
					c-1.8,0.4-1.6,8.6-1.2,13.3c0.7,7.8,2.3,10.2,4.1,19.7c1.3,7.2-1.4,18.2-1.7,17.4c-2.3-5.8-0.2-13.3-7.5-26.1
					c-2.6-4.6-4.6-5.8-7.5-8.1c-1.9-1.5-4.8-0.2-7,4.6c-2.3,5.2-2.9,7-1.7,8.1c8.1,8.1,8.3,29.1,8.1,28.4
					c-4.6-17.4-24.7-20.7-24.3-32.4c0.1-4.2,8.4-0.8,9.3-0.6c1.8,0.5-1.1,12.2-4.6,31.9c-1.9,10.8-22.6,5.6-27.8,4.6"/>
				
					<linearGradient id="SVGID_14_" gradientUnits="userSpaceOnUse" x1="-1218.1035" y1="288.0433" x2="-1262.6035" y2="508.7933" gradientTransform="matrix(-1 0 0 -1 -968.52 990)">
					<stop  offset="0" style="stop-color:#C6A8B6"/>
					<stop  offset="1" style="stop-color:#E6E6E6"/>
				</linearGradient>
				<path class="st12" d="M236.1,606.3c-5.6,37,3.1,59.9-1.6,92.1c-0.2,1.3-1.2,7.9-0.4,8.1c1.4,0.3,5.4-17.5,12.4-32.5
					c11-23.4,23.9-28,37.9-45.3c21.8-27,25-58.6,26.2-70.8c5-49.5-17.4-97.9-25.4-96.8c-0.9,0.1-2,9.4-3.6,17.2
					c-2.9,14.4-3,17.1-8.5,35c-4.6,15.1-9.2,16.3-20.2,38C244.4,568.6,238.7,587.2,236.1,606.3z"/>
				<path class="st9" d="M210.4,698.5c3,0.2,13.5,1.2,20.2,8.7c2,2.3,3.1,3.4,3.3,5.2c0.9,7.9-16,11.4-23.4,26.1
					c-1.2,2.4-2.1,4.9-2.6,7.5"/>
				<path class="st9" d="M266.4,602.8c-13,0.8-26.3,8.3-25.3,12.1c0.9,3.6,14.7,4.9,25.5,1.5c7.3-2.3,15.6-7.4,14.7-10.5
					C280.5,602.9,271.5,602.5,266.4,602.8z"/>
			</g>
		</g>
	</g>
</g>
</svg>
