<svg xmlns="http://www.w3.org/2000/svg" xmlns:xlink="http://www.w3.org/1999/xlink" viewBox="0 0 510.45 1005.49"><defs><style>.cls-1{fill:none;}.cls-2{fill:url(#linear-gradient);}.cls-3{fill:url(#linear-gradient-2);}.cls-4{fill:url(#linear-gradient-3);}.cls-5{fill:url(#linear-gradient-4);}.cls-6{fill:url(#linear-gradient-5);}.cls-7{fill:url(#linear-gradient-6);}.cls-8{clip-path:url(#clip-path);}.cls-9{fill:url(#linear-gradient-7);}.cls-10{fill:url(#linear-gradient-8);}.cls-11{fill:#3a2a32;}.cls-12{clip-path:url(#clip-path-2);}.cls-13{fill:url(#linear-gradient-9);}.cls-14{fill:url(#linear-gradient-10);}</style><linearGradient id="linear-gradient" x1="279.97" y1="891.32" x2="108.33" y2="261.98" gradientUnits="userSpaceOnUse"><stop offset="0" stop-color="#006837" stop-opacity="0.22"/><stop offset="1" stop-color="#93278f"/></linearGradient><linearGradient id="linear-gradient-2" x1="335.8" y1="925.46" x2="201.37" y2="432.56" xlink:href="#linear-gradient"/><linearGradient id="linear-gradient-3" x1="257.12" y1="937.91" x2="31.5" y2="110.63" xlink:href="#linear-gradient"/><linearGradient id="linear-gradient-4" x1="274.86" y1="193.03" x2="321.39" y2="222.88" gradientUnits="userSpaceOnUse"><stop offset="0" stop-color="#ed1e79"/><stop offset="1" stop-color="#93278f"/></linearGradient><linearGradient id="linear-gradient-5" x1="342.2" y1="254.06" x2="401.97" y2="289.52" xlink:href="#linear-gradient-4"/><linearGradient id="linear-gradient-6" x1="444.62" y1="215.62" x2="524.49" y2="264.74" xlink:href="#linear-gradient-4"/><clipPath id="clip-path" transform="translate(-6.52 -18)"><rect class="cls-1" x="128.06" y="479.08" width="94.94" height="284.92"/></clipPath><linearGradient id="linear-gradient-7" x1="189.56" y1="529.3" x2="190.83" y2="735.11" xlink:href="#linear-gradient-4"/><linearGradient id="linear-gradient-8" x1="189.88" y1="719.96" x2="145.38" y2="499.21" gradientUnits="userSpaceOnUse"><stop offset="0" stop-color="#c6a8b6"/><stop offset="1" stop-color="#e6e6e6"/></linearGradient><clipPath id="clip-path-2" transform="translate(-6.52 -18)"><rect class="cls-1" x="223" y="479.08" width="94.94" height="284.92"/></clipPath><linearGradient id="linear-gradient-9" x1="189.56" y1="529.3" x2="190.83" y2="735.11" gradientTransform="matrix(-1, 0, 0, 1, 446, 0)" xlink:href="#linear-gradient-4"/><linearGradient id="linear-gradient-10" x1="189.88" y1="719.96" x2="145.38" y2="499.21" gradientTransform="matrix(-1, 0, 0, 1, 446, 0)" xlink:href="#linear-gradient-8"/></defs><g id="Layer_2" data-name="Layer 2"><path class="cls-2" d="M288,911c6.82-9.89,21-36.88-12-119-44.65-111.22-95.88-124.68-155-233C86.36,495.53,57.39,442.44,70,378c18.09-92.41,111.92-158.19,139-147,12.58,5.2,22.39,16.46,22.39,16.46A65.58,65.58,0,0,1,244,270c.49-.19-4.43-50.5-31-64-32.64-16.58-91.84,25.5-125,66C9.14,368.33,39.12,502.72,43,519c13.31,55.8,39.69,97.85,63,135,52.92,84.34,87.3,93.16,95,146,10.05,69,9,98-19,134C164.23,956.85,263.87,946,288,911Z" transform="translate(-6.52 -18)"/><path class="cls-3" d="M142.88,937C111,910,77,881.24,61.8,833,58,821,42,770.34,64,725c47.73-98.47,225.12-69.6,339.67-192,13.86-14.81,31.64-37,28.49-63-5.19-42.89-65.53-81.4-110.67-74-37.7,6.18-51.48,15-65.74,38-1.06,1.71-.29-26.08,14.25-41,16.78-17.22,40.39-19.57,54.78-21,9.48-.94,52.68-5.25,89.85,21,43.41,30.65,51.45,83.81,41.64,121-8.95,33.89-32.41,53.31-64.65,80-54.5,45.11-118,70.54-160,87-45.4,17.82-66.31,21.61-83.28,44-23.67,31.24-17.51,69.43-15.34,80,11.83,57.49,71.09,102.06,126,116,27.17,6.89,45.55,4.33,48.21,13,4.49,14.63-39.66,48.78-84.37,47C193.47,979.83,174.24,963.55,142.88,937Z" transform="translate(-6.52 -18)"/><path class="cls-4" d="M176,995.24C301.84,877,308,752.86,308,752.86c3.9-78.65-31.07-147.91-101-286.44-22.42-44.4-41.92-77.13-67-139.87C95.47,215.17,98.42,172,105,143.57c4-17,19.44-83.82,71-98.67,31.9-9.18,73.89,2.59,88,26.82,11.6,19.94,1.79,43.92,3,44.07,1.54.2,20.38-38.53,2-68-19.69-31.59-68-29.89-72-29.69C152.57,20.25,124.38,54,112,68.85c-32.74,39.22-36.71,83-39,108.25a254.38,254.38,0,0,0,6,81.44C99.84,349,142.74,420.19,164,459.72c54.39,101.09,108.47,201.63,79,302.72C224.71,825.19,168.71,907.1,87,933c-42.2,13.36-75.54,6.79-80,22-6.88,23.5,60.91,78,120,67.06C151.1,1017.61,167.21,1003.5,176,995.24Z" transform="translate(-6.52 -18)"/><text x="-6.52" y="-18"/><path class="cls-5" d="M319.16,211.78v13.89H309.7v15.44H293.3V225.67H253.93l40.14-56.35H309.7v42.46ZM293.3,193.25l-4.83,6.95-8.3,11.58H293.3Z" transform="translate(-6.52 -18)"/><path class="cls-6" d="M342.41,296.3q-8.79-10.8-8.78-28.37,0-17.16,9.07-27.59t23.93-10.42q14.85,0,23.93,10.42t9.07,27.59q0,17.37-8.88,28.28t-24.12,10.9Q351.18,307.11,342.41,296.3Zm34.06-11.86q3.48-5.9,3.48-16.51,0-10.41-3.57-15.82a11.5,11.5,0,0,0-19.5,0q-3.57,5.4-3.57,15.82,0,22.4,13.32,22.39C370.87,290.32,374.16,288.36,376.47,284.44Z" transform="translate(-6.52 -18)"/><path class="cls-7" d="M517,253.46v20.07H499.6v30.88H475.86V273.53H408.51l74.3-104.21H499.6v84.14Zm-41.1,0V212l-29.14,41.49Z" transform="translate(-6.52 -18)"/></g><g id="Layer_1" data-name="Layer 1"><g id="_Mirror_Repeat_" data-name="&lt;Mirror Repeat&gt;"><g class="cls-8"><path class="cls-9" d="M227.06,533.27c-9.25-7-15.82-12.07-20.86-16.06,0,0-3.56-2.82-4.06-2.32-.73.75,7.27,8.18,5.8,10.43-.85,1.29-4.14-.19-11-1.16-8.77-1.24-15-.48-15.06,0s5.93,0,9.85,4.05c1.63,1.68,3.18,4.42,2.31,5.8s-3.18.68-6.37.58c-8.39-.28-15.15,2.93-15.06,3.47s7.85-1.31,8.69.58c1,2.24-8.9,7-16.22,13.91-12.1,11.38-20.6,31.7-16.8,48.66,3.7,16.55,16,16,18.54,33,1.38,9.35-2.15,10.75-5.22,33-2.5,18.18-2.07,31.19-1.16,31.29.68.07,1.57-7.13,6.38-17.38,1.66-3.55,3.4-7.21,4.63-7,1.76.37,1.57,8.6,1.16,13.33-.68,7.75-2.32,10.16-4.06,19.7-1.32,7.25,1.41,18.19,1.74,17.38,2.32-5.8.18-13.26,7.53-26.07,2.65-4.62,4.64-5.8,7.53-8.11,1.94-1.55,4.79-.25,7,4.63,2.31,5.21,2.86,7,1.73,8.11-8.11,8.11-8.3,29.11-8.11,28.39,4.64-17.38,24.72-20.69,24.33-32.44-.13-4.22-8.44-.8-9.26-.58-1.78.46,1.15,12.16,4.63,31.86,1.91,10.82,22.6,5.59,27.81,4.63" transform="translate(-6.52 -18)"/><path class="cls-10" d="M203.36,624.27c5.57,37-3.05,59.93,1.65,92.12.18,1.27,1.17,7.9.35,8.11C204,724.83,200,707,192.94,692c-11-23.38-23.9-28-37.91-45.34-21.79-27-25-58.6-26.24-70.77-5-49.55,17.41-97.89,25.4-96.77.88.12,2,9.36,3.65,17.24,2.93,14.37,3,17.15,8.46,35,4.63,15.14,9.21,16.3,20.19,38A175.37,175.37,0,0,1,203.36,624.27Z" transform="translate(-6.52 -18)"/><path class="cls-11" d="M229.09,716.5c-3,.18-13.47,1.15-20.18,8.69-2,2.29-3.07,3.43-3.26,5.21-.86,7.93,16,11.42,23.44,26.07a30,30,0,0,1,2.6,7.53" transform="translate(-6.52 -18)"/><path class="cls-11" d="M173.1,620.83c13.05.85,26.3,8.27,25.31,12.12-.94,3.63-14.68,4.9-25.53,1.51-7.33-2.29-15.62-7.43-14.72-10.55C159,620.94,167.94,620.5,173.1,620.83Z" transform="translate(-6.52 -18)"/></g></g><g id="_Mirror_Repeat_2" data-name="&lt;Mirror Repeat&gt;"><g class="cls-12"><path class="cls-13" d="M218.94,533.27c9.25-7,15.82-12.07,20.86-16.06,0,0,3.56-2.82,4.06-2.32.73.75-7.27,8.18-5.8,10.43.85,1.29,4.14-.19,11-1.16,8.77-1.24,15-.48,15.06,0s-5.93,0-9.85,4.05c-1.63,1.68-3.18,4.42-2.31,5.8s3.18.68,6.37.58c8.39-.28,15.15,2.93,15.06,3.47s-7.85-1.31-8.69.58c-1,2.24,8.9,7,16.22,13.91,12.1,11.38,20.6,31.7,16.8,48.66-3.7,16.55-16,16-18.54,33-1.38,9.35,2.15,10.75,5.22,33,2.5,18.18,2.07,31.19,1.16,31.29-.68.07-1.57-7.13-6.38-17.38-1.66-3.55-3.4-7.21-4.63-7-1.76.37-1.57,8.6-1.16,13.33.68,7.75,2.32,10.16,4.06,19.7,1.32,7.25-1.41,18.19-1.74,17.38-2.32-5.8-.18-13.26-7.53-26.07-2.65-4.62-4.64-5.8-7.53-8.11-1.94-1.55-4.79-.25-7,4.63-2.31,5.21-2.86,7-1.73,8.11,8.11,8.11,8.3,29.11,8.11,28.39-4.64-17.38-24.72-20.69-24.33-32.44.13-4.22,8.44-.8,9.26-.58,1.78.46-1.15,12.16-4.63,31.86-1.91,10.82-22.6,5.59-27.81,4.63" transform="translate(-6.52 -18)"/><path class="cls-14" d="M242.64,624.27c-5.57,37,3.05,59.93-1.65,92.12-.18,1.27-1.17,7.9-.35,8.11C242,724.83,246,707,253.06,692c11-23.38,23.9-28,37.91-45.34,21.79-27,25-58.6,26.24-70.77,5-49.55-17.41-97.89-25.4-96.77-.88.12-2,9.36-3.65,17.24-2.93,14.37-3,17.15-8.46,35-4.63,15.14-9.21,16.3-20.19,38A175.37,175.37,0,0,0,242.64,624.27Z" transform="translate(-6.52 -18)"/><path class="cls-11" d="M216.91,716.5c3,.18,13.47,1.15,20.18,8.69,2,2.29,3.07,3.43,3.26,5.21.86,7.93-16,11.42-23.44,26.07a30,30,0,0,0-2.6,7.53" transform="translate(-6.52 -18)"/><path class="cls-11" d="M272.9,620.83c-13,.85-26.3,8.27-25.31,12.12.94,3.63,14.68,4.9,25.53,1.51,7.33-2.29,15.62-7.43,14.72-10.55C287,620.94,278.06,620.5,272.9,620.83Z" transform="translate(-6.52 -18)"/></g></g></g></svg>