<svg height='100px' width='100px'  fill="#002337" xmlns="http://www.w3.org/2000/svg" xmlns:xlink="http://www.w3.org/1999/xlink" version="1.1" x="0px" y="0px" viewBox="0 0 96 96" enable-background="new 0 0 96 96" xml:space="preserve"><g><path d="M41.376,15.346l-0.498-6.691c-2.89,0.524-5.716,1.365-8.425,2.504l1.105,6.819C36.048,16.784,38.674,15.898,41.376,15.346z   "></path><path d="M51.328,14.833l1.282-6.569c-2.646-0.304-5.296-0.339-7.919-0.118l0.497,6.653C47.219,14.623,49.274,14.628,51.328,14.833z   "></path><path d="M81.024,25.436l-3.67,6.802c5.1,9.534,5.491,21.367-0.016,31.579c-8.725,16.178-28.979,22.237-45.157,13.513   c-16.177-8.723-22.24-28.98-13.516-45.156c2.774-5.143,6.718-9.259,11.32-12.208l-1.144-7.067   c-6.581,3.579-12.24,9.031-16.054,16.105C2.317,48.419,9.594,72.735,29.012,83.208c19.417,10.472,43.732,3.194,54.204-16.223   C90.547,53.392,89.169,37.4,81.024,25.436z"></path><path d="M66.992,12.782c-0.534-0.291-1.075-0.559-1.618-0.821l-3.172,5.882c0.545,0.254,1.085,0.525,1.62,0.814L66.992,12.782z"></path><path d="M61.823,10.457c-1.787-0.66-3.598-1.18-5.422-1.571l-1.281,6.553c1.172,0.258,2.339,0.576,3.495,0.966L61.823,10.457z"></path></g></svg>