<?xml version="1.0" encoding="utf-8"?>
<!-- Generator: Adobe Illustrator 25.4.1, SVG Export Plug-In . SVG Version: 6.00 Build 0)  -->
<svg version="1.1" xmlns="http://www.w3.org/2000/svg" xmlns:xlink="http://www.w3.org/1999/xlink" x="0px" y="0px"
	 viewBox="0 0 256 256" style="enable-background:new 0 0 256 256;" xml:space="preserve">
<style type="text/css">
	.st0{display:none;}
	.st1{display:inline;}
</style>
<g id="Layer_1">
	<g>
		<path d="M122.7,178.8v-60.5H61.8v60.5H37.9V39.5h23.9v56.3h60.9V39.5h23.7v139.3H122.7z"/>
		<path d="M165.7,200.7l12.5-11.7c16.5-14.9,25.1-24.3,25.1-34.4c0-7.6-4.8-13.9-15.1-13.9c-7,0-12.9,3.6-16.7,6.2l-4.2-9
			c5.4-4.6,14.3-8.4,24.3-8.4c18.7,0,26.5,11.7,26.5,22.5c0,14.9-11.3,25.9-26.5,39.2l-6.2,5.6v0.4h34V208h-53.7V200.7z"/>
	</g>
</g>
<g id="Layer_1_copy" class="st0">
	<g class="st1">
		<path d="M122.7,178.8v-60.5H61.8v60.5H37.9V39.5h23.9v56.3h60.9V39.5h23.7v139.3H122.7z"/>
		<path d="M184.6,208v-65.5h-0.4l-14.3,7l-2.2-10.3l18.7-8.8h12.1V208H184.6z"/>
	</g>
</g>
</svg>
