<svg height='100px' width='100px'  fill="#000000" xmlns="http://www.w3.org/2000/svg" data-name="Layer 1" viewBox="0 0 100 100" x="0px" y="0px"><title>Artboard 32</title><g><path d="M25,46h8V25a4,4,0,0,0-4-4H19v8h6Z"></path><rect x="42" y="22" width="39" height="8"></rect><rect x="42" y="38" width="39" height="8"></rect><rect x="42" y="54" width="39" height="8"></rect><rect x="42" y="70" width="39" height="8"></rect><path d="M29.36,69.29l3.43-3.43A7.54,7.54,0,0,0,27.46,53H19v8h7.34l-2.64,2.64A16,16,0,0,0,19,75a4,4,0,0,0,4,4H36V71H28.06A8.12,8.12,0,0,1,29.36,69.29Z"></path></g></svg>