<svg height='100px' width='100px'  fill="#000000" xmlns="http://www.w3.org/2000/svg" data-name="Layer 1" viewBox="0 0 100 100" x="0px" y="0px"><title>Artboard 8</title><rect x="41.34" y="47" width="17.31" height="6" transform="translate(-20.71 50) rotate(-45)"></rect><path d="M74.88,20.88l-6,6a19.9,19.9,0,0,0-25.94,1.94l4.24,4.24A14,14,0,0,1,66.91,52.85l4.24,4.24a19.9,19.9,0,0,0,1.94-25.94l6-6Z"></path><path d="M25.12,79.12l6-6a19.9,19.9,0,0,0,25.94-1.94l-4.24-4.24A14,14,0,0,1,33.09,47.15l-4.24-4.24a19.9,19.9,0,0,0-1.94,25.94l-6,6Z"></path><rect x="30" y="25.93" width="6" height="14.14" transform="translate(-13.67 33) rotate(-45)"></rect><rect x="64" y="59.93" width="6" height="14.14" transform="translate(-27.75 67) rotate(-45)"></rect></svg>